<svg xmlns="http://www.w3.org/2000/svg" data-name="Layer 1" viewBox="0 0 100 125" x="0px" y="0px"><path d="M38.58,52.1a2.87,2.87,0,1,0-2.86-2.86A2.86,2.86,0,0,0,38.58,52.1Z"/><path d="M60.16,52.1a2.87,2.87,0,1,0-2.86-2.86A2.87,2.87,0,0,0,60.16,52.1Z"/><path d="M62.46,64.74a1.43,1.43,0,0,0-1.09.17,1.41,1.41,0,0,0-.65.89,5.48,5.48,0,0,1-1.48,2.59,4.52,4.52,0,0,1-5,.55,5.21,5.21,0,0,1-3-4.9c1-.57,3.09-1.94,3.19-3.72A2.52,2.52,0,0,0,53.18,58a6.84,6.84,0,0,0-3.83-1c-2.35,0-4.9.87-5.31,2.8-.34,1.58.82,3,3.49,4.23a5.19,5.19,0,0,1-3,4.9,4.52,4.52,0,0,1-5-.55A5.46,5.46,0,0,1,38,65.8a1.44,1.44,0,0,0-2.8.68,8.22,8.22,0,0,0,2.28,4,6.89,6.89,0,0,0,4.81,1.85,8.26,8.26,0,0,0,3.4-.76,7.9,7.9,0,0,0,3.65-3.39A8,8,0,0,0,53,71.55a8.27,8.27,0,0,0,3.41.76,6.86,6.86,0,0,0,4.8-1.85,8.22,8.22,0,0,0,2.28-4A1.45,1.45,0,0,0,62.46,64.74Z"/><path d="M92.71,59.08l-6.85-.67a41.31,41.31,0,0,0-1-5.25l7.94-1.47a1.43,1.43,0,0,0-.52-2.82L84,50.39c-.74-2.39-1.57-4.63-2.29-6.55-.13-2.59-1.1-21.31-1.23-24.56a5.73,5.73,0,0,0-5.58-5.8,5.85,5.85,0,0,0-4,1.67c-2.21,2.06-11.87,12.63-14.35,15.36H43.43C41,27.78,31.29,17.21,29.08,15.15a5.85,5.85,0,0,0-4-1.67,5.73,5.73,0,0,0-5.58,5.8c-.13,3.25-1.1,22-1.23,24.56C17.54,45.76,16.71,48,16,50.39L7.76,48.87a1.43,1.43,0,1,0-.52,2.82l7.94,1.47a41.31,41.31,0,0,0-1,5.25l-6.85.67a1.43,1.43,0,0,0,.14,2.85h.14l6.32-.61a22.2,22.2,0,0,0,.6,6.5,15.41,15.41,0,0,0,1.32,3.33l.3.59a14.61,14.61,0,0,0,3.19,4.13h0l.06.06,2.87,2.17.06,0a48.25,48.25,0,0,0,14.34,6.52A50.8,50.8,0,0,0,50,86.52a50.8,50.8,0,0,0,13.37-1.87,48.52,48.52,0,0,0,14.19-6.41l.36-.26,2.72-2.06.06-.06a14.61,14.61,0,0,0,3.19-4.13l.3-.59a15.61,15.61,0,0,0,1.32-3.33,22.24,22.24,0,0,0,.6-6.5l6.32.61h.14a1.43,1.43,0,0,0,.14-2.85ZM77.08,73.92c-11,8.16-23.51,8.79-27.08,8.79s-16.09-.63-27.08-8.79c-4.36-3.24-5.53-8-5.23-13L21,60.61a1.43,1.43,0,0,0-.28-2.85L18,58a42,42,0,0,1,.9-4.18l1.61.29.26,0a1.43,1.43,0,0,0,.26-2.84l-1.32-.24c.71-2.23,1.5-4.33,2.18-6.15l0,0a2.3,2.3,0,0,0,.11-.57c0-.22,1.11-21.4,1.25-24.9.06-1.41.94-2.14,1.78-2.14a2.11,2.11,0,0,1,1.41.64c2.38,2.22,14.58,15.63,14.7,15.76a1.92,1.92,0,0,0,1.41.62H57.41a1.92,1.92,0,0,0,1.41-.62c.12-.13,12.32-13.54,14.7-15.76a2.11,2.11,0,0,1,1.41-.64c.84,0,1.72.73,1.78,2.14.14,3.5,1.23,24.68,1.25,24.9a2.3,2.3,0,0,0,.11.57l0,0c.68,1.82,1.47,3.92,2.18,6.15L79,51.33a1.43,1.43,0,0,0,.26,2.84l.26,0,1.61-.29A42,42,0,0,1,82,58l-2.7-.27A1.43,1.43,0,0,0,79,60.61l3.31.32C82.61,65.93,81.44,70.68,77.08,73.92Z"/></svg>