<svg xmlns="http://www.w3.org/2000/svg" xmlns:xlink="http://www.w3.org/1999/xlink" version="1.1" x="0px" y="0px" viewBox="0 0 100 125" enable-background="new 0 0 100 100" xml:space="preserve"><circle cx="41.172" cy="39.699" r="3.891"/><circle cx="59.208" cy="39.699" r="3.891"/><path d="M64.308,62c-1.121,6-3.938,7.074-6.312,7.074c-1.922,0-6.305-0.274-6.465-7.474l0.087-0.37c0,0-0.014,0.019-0.026,0.014  c2.354-1.747,5.618-6.771,4.699-8.095c-1.159-1.67-10.652-2.129-12.089,0.006c-1.054,1.564,2.265,6.409,4.653,8.113  c-0.008,0.004-0.021,0.011-0.021,0.011l0.086,0.423c-0.159,7.199-4.543,7.372-6.464,7.372c-2.373,0-5.19-1.074-6.312-7.074h-2.87  c0,5,3.991,10.217,9.039,10.217c5.591,0,7.58-3.664,7.914-4.337c0.334,0.673,2.322,4.285,7.913,4.285  c5.048,0,9.039-5.165,9.039-10.165H64.308z"/><path d="M57.168,82.946h-13.89c-4.312,0-9.322-2.71-13.747-7.434c-4.227-4.514-6.895-9.808-7.136-14.164  c-0.461-8.297,0.22-11.678,2.652-22.123c1.641-7.048,3.869-12.213,6.81-15.79c3.21-3.903,7.293-5.882,12.137-5.882h12.098  c12.753,0,17.004,12.326,19.092,21.598c2.67,11.851,2.922,15.467,2.922,22.076c0,4.285-2.62,9.604-7.008,14.228  C66.647,80.146,61.44,82.946,57.168,82.946z M43.995,21.92c-7.119,0-11.789,5.813-14.695,18.296  c-2.372,10.185-2.975,13.167-2.545,20.891c0.184,3.313,2.469,7.69,5.964,11.421c3.497,3.733,7.543,6.053,10.56,6.053h13.89  c3.051,0,7.176-2.349,10.764-6.13c3.528-3.719,5.809-8.124,5.809-11.223c0-6.257-0.242-9.699-2.814-21.117  c-1.319-5.859-2.898-9.958-4.969-12.9c-2.504-3.56-5.73-5.29-9.864-5.29H43.995z"/><path d="M32.698,18.028c-5.556-1.519-21.107,1.803-21.063,14.332c0.04,11.266,9.472,10.507,10.625,8.766  c0.693-1.046,2.009-5.202,4.123-12.468C27.902,23.438,35.204,18.713,32.698,18.028z"/><path d="M67.771,18.028c5.557-1.519,21.107,1.803,21.063,14.332c-0.039,11.266-9.472,10.507-10.625,8.766  c-0.693-1.046-2.01-5.202-4.123-12.468C72.568,23.438,65.266,18.713,67.771,18.028z"/></svg>