<?xml version="1.0" encoding="utf-8"?>
<!-- Generator: Adobe Illustrator 25.2.3, SVG Export Plug-In . SVG Version: 6.00 Build 0)  -->
<svg version="1.1" id="Layer_1" xmlns="http://www.w3.org/2000/svg" xmlns:xlink="http://www.w3.org/1999/xlink" x="0px" y="0px"
	 viewBox="0 0 1072.1 895.9" style="enable-background:new 0 0 1072.1 895.9;" xml:space="preserve">
<style type="text/css">
	.st0{fill:#FFFFFF;}
	.st1{fill:#F6EBC1;}
	.st2{opacity:0.24;}
	.st3{fill:#AAA187;}
	.st4{fill:#9C9C9C;stroke:#000000;stroke-miterlimit:10;}
	.st5{opacity:0.21;}
	.st6{fill:#9C9C9C;}
	.st7{fill:#A9177A;stroke:#A9177A;stroke-miterlimit:10;}
	.st8{fill:#FFFFFF;stroke:#A9177A;stroke-miterlimit:10;}
</style>
<g>
	<polygon class="st0" points="248,131.7 230.9,143.8 222.8,169.6 211.5,298.5 212.7,555.1 219.5,790.3 229.7,823 240,828.4 
		327.7,866.1 428.4,889.1 547.3,889.1 653.4,875.2 748.1,848 842.5,814.4 851,799.9 850.5,625.5 850.5,404.6 844.3,284.6 
		838.9,201.4 832,153.8 818.8,133.4 782.2,105.2 759.3,71.7 314.7,71.7 	"/>
	<path class="st1" d="M852.7,601.9c-0.1-11.3-0.3-22.6-0.5-33.9c0-1.9-1-3.7-2.9-4.2c-12.1-3.6-18.7-5.5-31.2-5.5
		c-34.3-62.5-122.2-77-184.6-54.3c-17.7,6.4-34.3,16.2-47.9,29.2c-46-23.9-114.3-17.2-145.6,27.6c-6,8.5-9.8,18.1-11.5,28.3
		c-29.9-9.4-65.4-4.8-88.9,16.7c-30.3-33.3-80-43.7-123.1-35.9c-2.5,0.4-3.7,3.4-3.6,5.6c1.4,61.8,3.9,123.6,6.9,185.3
		c0.6,12.5,1.8,25.2,1.1,37.7c0,0.1,0,0.3,0,0.4c-0.1,13.9,12.8,26.9,23.4,34.1c5.2,3.5,10.6,5.6,16.5,7.4c1,0.3,0.1,0,1.5,0.6
		c0.9,0.4,1.9,0.8,2.8,1.2c12.9,5.8,25.3,12.5,38.4,17.9c55.8,23.4,115,28.3,175.3,29.1c63.9,0.8,127.4-5,189.8-18.5
		c38.2-8.2,75.3-20,112.4-32.4c21.1-7.1,35.6-13.6,56.3-21.8c14.9-5.9,13.7-21,14.1-34.2C852.7,720.9,853.5,663.1,852.7,601.9z"/>
	<g class="st2">
		<ellipse class="st3" cx="652" cy="592.6" rx="5.6" ry="5.3"/>
		<ellipse class="st3" cx="248" cy="613" rx="7.3" ry="6.9"/>
		<ellipse class="st3" cx="464.6" cy="756.7" rx="6.2" ry="5.9"/>
		<ellipse class="st3" cx="571.3" cy="860.3" rx="6.2" ry="5.9"/>
		<ellipse class="st3" cx="507" cy="580.2" rx="7.5" ry="7.1"/>
		<ellipse class="st3" cx="803.3" cy="625.5" rx="7.5" ry="7.1"/>
		<ellipse class="st3" cx="711.8" cy="638.8" rx="5.4" ry="5.1"/>
		<ellipse class="st3" cx="299.7" cy="807.9" rx="6.8" ry="6.5"/>
		<ellipse class="st3" cx="396.2" cy="671.1" rx="11.1" ry="10.4"/>
		<ellipse class="st3" cx="646.4" cy="704.7" rx="13.3" ry="12.6"/>
	</g>
	<g>
		<path d="M283.5,61.3c0.2,4.4-1.3,8.3-1.9,12.6c-0.4,2.9-0.5,5.8-0.9,8.7c-0.9,7.8-2.4,13.4-6.2,19.6
			c-6.5,10.6-17.6,18.2-28.3,24.2c-5.8,3.2-11.9,5.2-16.1,10.4c-5.5,6.8-8.2,15.7-10.3,24.1c-3,11.4-4.7,23.1-6.1,34.8
			c-4.3,34.7-5.8,69.8-6.8,104.8c-1.3,43.7-1.5,87.4-1.2,131.1c0.3,45,1.1,89.9,2.3,134.9c1,39,2.2,78,3.7,117
			c1.1,31.6,3.8,63.5,2.9,95.1c-0.3,12.3-1.1,24.8,3.1,36.6c1.9,5.4,4.7,10.4,9,14.2c2,1.8,4.1,3.2,6.6,4.2c0.5,0.2,4.8,1.7,2.5,0.9
			c0.2,0.1,0.4,0.1,0.5,0.2c4.1,1.6,8.1,3.7,12,5.7c15.9,8.2,32,15.9,48.7,22.4c27.3,10.6,55.7,18.5,84.5,23.8
			c40.8,7.5,82.4,10.1,123.9,9c56.2-1.4,112.2-9.4,167-21.6c34-7.6,67.7-16.8,100.9-27.3c18.6-5.9,37.1-12.2,55.5-18.8
			c7.5-2.7,14-6,19-12.5c4.8-6.1,7.4-13.5,7.7-21.3c1-23.1,0.7-46.3,0.9-69.4c0.2-36.4,0.2-72.9,0.1-109.3
			c-0.2-43.3-0.5-86.7-1.1-130c-0.6-43.9-1.5-87.7-2.8-131.6c-1.1-37.9-2.6-75.7-4.9-113.5c-1.6-26.1-3.3-52.5-7.6-78.3
			c-1.1-6.4-2.2-13.1-4.9-19.1c-1-2.2-2-4-4-5.5c-6.6-4.9-14-8.6-20.6-13.6c-5.3-4-10.3-8.3-14.8-13.1c-7.4-8-13.1-17.2-16.5-27.5
			c-1.7-5.2-2.9-10.7-3.6-16.1c-0.4-3-0.7-6.1-0.9-9.1c-0.1-1.4-0.1-2.8-0.2-4.2c-0.1-1.2,0.2-1.1-0.1,0c-0.8,1.7-1.7,3.5-2.5,5.2
			c0,0,0,0,0,0c-2.2,0.9-4.3,1.7-6.5,2.6c-1.5-0.9-1.3-1.8-1.5-3c3.5-2.5,7.1-5,10.6-7.5c-2-5.4-1.5-10.8-5.1-15.7
			c-4.6-6.3-12.4-9.9-20-10.6c-1.8-0.2-3.7-0.1-5.5-0.1c-8.9,0-17.8,0-26.6,0c-36.5,0-72.9,0-109.4,0c-46.2,0-92.4,0-138.5,0
			c-38.1,0-76.3,0-114.4,0c-10.5,0-21.1,0-31.6,0c-2.1,0-4.2,0-6.2,0c-11,0.1-20.6,5.2-26.9,14.2C285.6,45.3,282.9,53.4,283.5,61.3
			c0.7,8.9,11.3-0.2,10.8-6c-0.9-10.6,7.4-16.8,17.4-17c1.9,0,3.8,0,5.6,0c9.6,0,19.2,0,28.9,0c36.1,0,72.3,0,108.4,0
			c44.9,0,89.8,0,134.8,0c37.3,0,74.7,0,112,0c10.7,0,21.4,0,32.1,0c9.2,0,19.1-0.6,25.8,7.3c3.7,4.3,3,9.4,4.8,14.4
			c2.6,7.2,11.1-3.1,10.6-7.5c-0.2-1.5-0.4-3.1-1.8-4c-2.4-1.4-5,1-6.5,2.6c-3.7,3.9-2.8,9.7-2.4,14.5c0.5,6.2,1.3,12.3,2.6,18.4
			c2.4,10.9,6.8,21.4,13.4,30.5c7.6,10.5,17.8,19,28.4,26.3c5.1,3.5,10.6,6.4,15.6,10c-1.2-0.9-0.1,0.1,0.5,1
			c0.2,0.3,0.8,1.6,0.4,0.8c-0.4-0.9,0.3,0.7,0.4,1c0.5,1.3,0.9,2.5,1.3,3.8c1,3.4,1.7,7,2.4,10.5c1.9,10.6,2.9,19.2,4,30.3
			c3.2,31.7,4.8,63.5,6.3,95.3c1.8,41,3,82,3.9,123.1c1,44.1,1.6,88.1,2,132.2c0.4,41,0.6,82,0.5,123c0,31.4-0.1,62.7-0.5,94.1
			c-0.1,10.2-0.2,20.4-0.5,30.5c-0.1,3.1,0,6.3-1.3,9.2c-3.2,7.2-12,9-18.7,11.4c-18,6.4-36,12.5-54.2,18.2
			c-61.2,19.1-123.8,33.8-187.5,41.6c-47.3,5.8-95.2,7.5-142.7,3.5c-34.5-2.9-68.7-8.8-101.9-18.5c-22-6.4-43.4-14.7-64-24.6
			c-10.3-4.9-20.3-11.3-31-15.2c-25.1-9.1-17.6-44.5-17.9-64.9c-0.2-13.2-0.9-26.5-1.5-39.7c-1.3-33.6-2.5-67.1-3.6-100.7
			c-1.3-43.2-2.4-86.3-3.2-129.5c-0.7-44.9-1.1-89.8-0.6-134.8c0.4-39.4,1.3-78.9,3.9-118.2c1-15.2,2.3-29.8,4.2-44.9
			c0.8-6.1,1.7-12.2,2.9-18.3c0.5-2.6,1-5.3,1.6-7.9c0.3-1.1,0.5-2.2,0.8-3.4c0.2-0.7,1.2-4.3,0.6-2.2c0.6-2,1.2-4,1.9-5.9
			c0.3-0.8,0.6-1.6,0.9-2.4c0.2-0.4,0.3-0.7,0.5-1.1c0.7-1.8-0.5,0.8-0.1,0.1c0.3-0.6,0.7-1.3,1-1.9c0.5-0.9,2.1-2.6,0.2-0.5
			c0.4-0.4,0.6-1,1.1-1.4c0.7-0.6-1.4,1.3,0.1-0.1c0.8-0.7-1.7,0.7,0,0.1c3.5-1.3,6.9-3.5,10.2-5.3c6.7-3.8,13.2-8,19.1-12.9
			c8.8-7.3,16.2-16.4,20.8-26.9c2.9-6.6,4.4-13.7,5.1-20.9c0.3-2.6,0.4-5.2,0.8-7.8c0.1-0.5,0.2-1.1,0.3-1.6c0.3-1.7-0.3,1.1,0-0.1
			c1.2-4.4,2-8.6,1.8-13.2c-0.2-3.3-2.6-4.6-5.5-3.2C285.8,53.6,283.4,58,283.5,61.3z"/>
	</g>
	<path class="st4" d="M230.9,41.5"/>
	<g class="st5">
		<path class="st3" d="M523.6,705.6c-0.2,0-0.5,0.2-0.8,0.5c-0.2,0.3-0.5,0.6-0.9,1.2c-0.4,0.5-0.9,1.1-1.4,1.8
			c-0.5,0.7-1.1,1.4-1.7,2.1c-0.6,0.7-1.2,1.4-1.8,2s-1.1,1.1-1.6,1.5c-0.5,0.4-0.9,0.6-1.2,0.6c-0.4,0-0.7-0.1-0.9-0.3
			c-0.2-0.2-0.4-0.4-0.4-0.7s-0.1-0.6-0.2-0.9s0-0.6,0-0.9c0.1-0.5,0.2-0.9,0.2-1.2c0.1-0.3,0.1-0.6,0.2-0.8s0.1-0.5,0.1-0.7
			s0.1-0.5,0.2-0.8c0.3-1.4,0.6-2.6,0.8-3.5c0.2-0.9,0.3-1.6,0.4-2.2c0.1-0.5,0.1-0.9,0.1-1.1c0-0.2,0-0.3,0-0.4c-0.1,0-0.2,0-0.4,0
			c-0.2,0-0.4,0-0.7,0c-0.3,0-0.7,0.1-1.1,0.2c0.7-1,0.9-1.8,0.8-2.4s-0.4-1.1-0.9-1.4c-0.5-0.3-1.2-0.6-2.1-0.8
			c-0.7-0.1-1.6,0.2-2.7,0.8s-2.2,1.4-3.3,2.5c-1.1,1.1-2.2,2.4-3.1,4c-1,1.6-1.6,3.3-2.1,5.2c-0.3,1.4-0.5,2.6-0.4,3.6
			c0.1,1,0.3,1.8,0.7,2.5c0.3,0.6,0.8,1.1,1.3,1.4s1,0.4,1.4,0.4c0.9-0.1,1.9-0.3,2.8-0.6c0.8-0.3,1.7-0.8,2.6-1.5
			c0.9-0.7,1.7-1.6,2.5-2.9c0,0.8,0,1.5,0.2,2.1s0.3,1,0.4,1.4c0.2,0.4,0.4,0.7,0.7,0.9c0.3,0.2,0.6,0.3,1,0.4
			c0.4,0.1,0.8,0.1,1.2,0.1c0.4,0,0.8-0.1,1.2-0.2c0.4-0.1,0.8-0.3,1.1-0.5c0.5-0.3,1.1-0.9,1.8-1.6c0.7-0.8,1.4-1.6,2.2-2.5
			c0.7-0.9,1.4-1.8,2.1-2.8c0.7-0.9,1.2-1.7,1.7-2.3c0.4-0.5,0.6-0.9,0.7-1.3s0.1-0.7-0.1-0.8S523.8,705.5,523.6,705.6z
			 M511.3,703.4c-0.1,0.5-0.2,1.2-0.4,1.9c-0.2,0.8-0.3,1.6-0.6,2.4s-0.4,1.6-0.6,2.2c0,0.2-0.2,0.4-0.4,0.8
			c-0.2,0.3-0.5,0.7-0.9,1.1c-0.4,0.4-0.8,0.8-1.2,1.2s-0.9,0.7-1.4,0.9s-0.9,0.4-1.3,0.4c-0.4,0-0.8-0.1-1.2-0.5
			c-0.2-0.2-0.3-0.6-0.4-1.2s0-1.3,0.1-2.1c0.1-0.8,0.3-1.7,0.6-2.6c0.3-0.9,0.7-1.8,1.1-2.6c1.1-2,2.1-3.3,3-4.1
			c0.9-0.7,1.5-1,1.8-0.7c0.1,0.1,0.2,0.3,0.2,0.5c0,0.2,0,0.4,0,0.8s-0.2,0.7-0.4,1.2c0.2-0.1,0.5-0.1,0.8-0.1
			c0.2,0,0.5-0.1,0.6-0.1c0.2-0.1,0.4-0.1,0.5-0.1C511.3,702.7,511.4,702.9,511.3,703.4z"/>
		<path class="st3" d="M289.3,715.4c-0.2-0.2-0.5-0.4-0.7-0.5c-0.2-0.2-0.4-0.2-0.6-0.2c-0.4,0-0.9,0.2-1.5,0.7
			c-0.6,0.4-1.2,0.9-1.8,1.5s-1.1,1.1-1.6,1.6c-0.5,0.5-0.7,0.8-0.7,0.9c0.2,0.3,0.6,0.7,1,1.1c0.4,0.4,0.9,0.7,1.3,1
			c-0.1,0.5-0.3,1.2-0.4,1.9c-0.1,0.8-0.3,1.6-0.5,2.6c-1.1,5.6-2.1,10-3,13.3c0-0.1-0.1-0.2-0.1-0.2c-0.1-0.1-0.3-0.2-0.6-0.2
			c-0.2,0-0.5,0.1-0.7,0.4c-0.2,0.3-0.6,0.6-0.9,1c-0.4,0.4-0.8,0.9-1.2,1.4c-0.4,0.5-0.9,1-1.4,1.4s-0.9,0.9-1.3,1.2
			c-1.7,1.3-2.9,2.1-3.7,2.4c-0.8,0.3-1.4,0.1-1.7-0.4c-0.2-0.4-0.2-0.8-0.1-1.3c0.2-0.5,0.4-1.1,0.7-1.8c0.4-1,0.8-1.9,1.1-2.7
			c0.3-0.8,0.5-1.5,0.7-2.1c0.2-0.6,0.3-1.2,0.4-1.8c0.1-0.5,0.2-1,0.2-1.5c0-0.8,0-1.5-0.2-2c-0.2-0.5-0.4-1-0.7-1.3
			s-0.6-0.6-1-0.7s-0.8-0.2-1.2-0.2c-0.8,0-1.6,0.2-2.4,0.5c-0.8,0.4-1.5,0.8-2.1,1.4c-0.7,0.5-1.3,1.1-1.9,1.8s-1,1.3-1.5,1.9
			c0.7-2.7,1.4-5.3,2.2-7.7s1.5-4.9,2.2-7.4c0.2-0.7,0.3-1.3,0.4-1.9c0.1-0.5,0.1-1,0.1-1.5s-0.1-0.8-0.3-0.9
			c-0.1-0.2-0.2-0.3-0.4-0.3s-0.5-0.1-0.7-0.1c-0.3,0-0.6,0-0.9,0.1c-0.3,0.1-0.7,0.1-1,0.2c-0.3,0.1-0.6,0.1-0.9,0.2
			s-0.6,0.2-0.8,0.4c0.1,0.4,0.1,0.9,0.1,1.5c0,0.5,0,1-0.1,1.5c-0.1,0.6-0.1,1.1-0.2,1.7c-0.2,0.8-0.5,2.4-1,4.5
			c-0.4,1.8-1.1,4.5-1.9,8c-0.8,3.5-1.9,8.1-3.3,13.9c0.1,0.3,0.2,0.6,0.4,0.8s0.4,0.4,0.6,0.5c0.2,0.1,0.5,0.2,0.7,0.3
			c0.2,0,0.4,0,0.7,0c0.2,0,0.4,0,0.6-0.1c0.2-0.1,0.4-0.2,0.6-0.3c0.2-0.9,0.4-1.9,0.7-3.1s0.5-2.3,0.7-3.3
			c0.2-1.2,0.5-2.4,0.8-3.6c0.4-0.7,0.9-1.3,1.4-2c0.5-0.7,1.1-1.3,1.7-1.9c0.6-0.5,1.2-1,1.7-1.3c0.6-0.3,1.1-0.5,1.6-0.5
			c0.7,0,1.1,0.4,1.2,1.1s0,1.6-0.2,2.6c-0.2,1-0.5,2-0.9,3.1s-0.7,2-0.9,2.8c-0.3,1.2-0.5,2.3-0.5,3.1c0,0.8,0.3,1.6,0.8,2.3
			c0.6,0.8,1.3,1.2,1.9,1.2s1.4-0.3,2.4-0.8c0.8-0.5,1.7-1.1,2.6-1.8c0.9-0.7,1.8-1.5,2.7-2.3c0.9-0.8,1.7-1.6,2.5-2.5
			c0.7-0.8,1.4-1.6,2-2.4c-0.8,2.7-1.4,4.6-1.6,5.5c-0.2,0.5-0.3,1-0.4,1.5c-0.1,0.5,0,0.9,0.1,1.3c0.1,0.4,0.3,0.6,0.6,0.9
			c0.3,0.2,0.7,0.3,1.2,0.3c0.4,0,0.8,0,1.2,0c0.3,0,0.7-0.1,1.1-0.2c0.4-0.1,0.7-0.2,1-0.4c-0.3-0.9-0.4-1.9-0.4-3s0.1-2.1,0.3-3.1
			s0.4-2,0.6-3s0.5-1.9,0.7-2.7l5.2-21.3c0-0.2,0-0.4-0.2-0.6S289.5,715.6,289.3,715.4z"/>
		<path class="st3" d="M595.2,603.1c0.7-2.5,1.2-4.5,1.5-5.8c0.2-0.7,0.3-1.3,0.4-1.9c0.1-0.5,0.1-1,0.1-1.5s-0.1-0.8-0.3-0.9
			c-0.1-0.2-0.2-0.3-0.4-0.3s-0.5-0.1-0.7-0.1c-0.3,0-0.6,0-0.9,0.1c-0.3,0.1-0.7,0.1-1,0.2c-0.3,0.1-0.6,0.1-0.9,0.2
			s-0.6,0.2-0.8,0.4c0.1,0.4,0.1,0.9,0.1,1.5c0,0.5,0,1-0.1,1.5c-0.1,0.6-0.1,1.1-0.2,1.7c-0.2,0.8-0.5,2.4-1,4.5
			c-0.4,1.7-1,4.2-1.7,7.3c-1,0.4-2.1,0.8-3.2,1c-1.4,0.3-2.7,0.5-3.9,0.6c-0.1-1-0.4-1.9-0.8-2.6c-0.4-0.7-0.8-1-1.4-1
			c-0.3,0-0.7,0.1-1.1,0.2c-0.4,0.2-0.8,0.4-1.1,0.7s-0.6,0.6-0.9,1c-0.2,0.4-0.4,0.8-0.4,1.2c0,0.7,0.2,1.2,0.6,1.6
			c0.4,0.4,0.9,0.7,1.5,0.8c-0.1,0.9-0.3,1.9-0.7,3.1c-0.4,1.1-0.9,2.2-1.4,3.2c-0.6,1-1.2,1.8-1.9,2.5c-0.7,0.7-1.5,1-2.2,1
			c-0.9,0-1.5-0.7-1.8-2.1c-0.3-1.4-0.3-3.2,0-5.4c0.5-0.9,1-2,1.6-3.2s1.2-2.6,1.8-4.1c0.6-1.5,1.2-3.1,1.8-4.8
			c0.6-1.7,1.1-3.5,1.6-5.4c0.5-2,0.8-3.6,0.9-4.8c0.1-1.2,0-1.9-0.2-2.1c-0.1-0.1-0.3-0.1-0.7-0.1c-0.3,0-0.6,0-1,0.1
			c-0.4,0.1-0.7,0.2-1.1,0.4c-0.4,0.2-0.7,0.4-1,0.8c-0.2,0.3-0.5,0.8-1,1.7c-0.4,0.9-0.9,2-1.4,3.3c-0.5,1.3-1,2.8-1.6,4.4
			c-0.5,1.6-1,3.3-1.5,5c-0.4,1.7-0.8,3.4-1.1,5.2c-0.3,1.5-0.4,2.8-0.5,4.2c-0.2,0.3-0.4,0.5-0.7,0.8c-0.5,0.7-1.1,1.4-1.7,2.1
			c-0.6,0.7-1.2,1.4-1.8,2s-1.1,1.1-1.6,1.5c-0.5,0.4-0.9,0.6-1.2,0.6c-0.4,0-0.7-0.1-0.9-0.3c-0.2-0.2-0.4-0.4-0.4-0.7
			s-0.1-0.6-0.2-0.9s0-0.6,0-0.9c0.1-0.5,0.2-0.9,0.2-1.2c0.1-0.3,0.1-0.6,0.2-0.8s0.1-0.5,0.1-0.7s0.1-0.5,0.2-0.8
			c0.3-1.4,0.6-2.6,0.8-3.5c0.2-0.9,0.3-1.6,0.4-2.2c0.1-0.5,0.1-0.9,0.1-1.1c0-0.2,0-0.3,0-0.4c-0.1,0-0.2,0-0.4,0
			c-0.2,0-0.4,0-0.7,0c-0.3,0-0.7,0.1-1.1,0.2c0.7-1,0.9-1.8,0.8-2.4s-0.4-1.1-0.9-1.4c-0.5-0.3-1.2-0.6-2.1-0.8
			c-0.7-0.1-1.6,0.2-2.7,0.8s-2.2,1.4-3.3,2.5c-1.1,1.1-2.2,2.4-3.1,4c-0.8,1.3-1.4,2.7-1.8,4.2c-0.6,0.7-1.1,1.3-1.8,2
			c-0.7,0.8-1.5,1.5-2.2,2.2s-1.4,1.2-2.1,1.6c-0.7,0.4-1.2,0.6-1.7,0.5c-0.6,0-1.1-0.2-1.5-0.6c-0.3-0.3-0.6-0.8-0.9-1.5
			s-0.3-1.7-0.1-3.1c0.8-1.9,1.5-3.6,2.2-5.3c0.7-1.7,1.2-3.1,1.7-4.4c0.5-1.5,1-2.8,1.4-4.1c0.2-0.5,0.3-1,0.4-1.5
			c0.1-0.5,0.2-1,0.4-1.5c0.2,0,0.5,0,0.7,0c0.2,0,0.4,0,0.6,0c1,0,1.9,0,2.6,0.1c0.8,0.1,1.4,0.1,1.9,0.2c0.5,0.1,1,0.1,1.4,0.2
			s0.7,0.2,1.1,0.2c0.3,0.1,0.6,0,0.8-0.2s0.4-0.4,0.5-0.7c0.1-0.3,0.2-0.5,0.1-0.8c0-0.2-0.1-0.4-0.4-0.5c-0.2-0.1-0.5-0.2-1-0.4
			c-0.4-0.2-1-0.3-1.7-0.5c-0.7-0.2-1.6-0.3-2.6-0.5s-2.2-0.2-3.5-0.2c0.3-1.6,0.5-2.9,0.5-3.9s0-1.7-0.2-1.9
			c-0.2-0.2-0.4-0.3-0.8-0.4s-0.7,0-1.1,0s-0.7,0.1-1.1,0.2c-0.3,0.1-0.5,0.2-0.6,0.4c-0.3,0.4-0.7,1.2-1.1,2.3
			c-0.4,1.1-0.8,2.4-1.2,3.9c-0.5,0.1-1.1,0.2-1.6,0.2c-0.5,0.1-1.1,0.1-1.7,0.1c-0.8,0-1.6,0-2.2,0s-1.3-0.1-1.9-0.2
			c-0.2,0-0.4,0.1-0.6,0.3c-0.2,0.2-0.4,0.4-0.6,0.6s-0.2,0.5-0.3,0.7s0.1,0.4,0.3,0.5c0.4,0.2,1.1,0.4,2,0.7s1.8,0.4,2.8,0.4
			c0.4,0,0.9,0,1.5-0.1c0.5-0.1,1.1-0.1,1.6-0.2c-0.4,1.8-0.9,3.7-1.2,5.6c-0.4,2-0.7,3.8-1.1,5.5c-0.3,1.7-0.6,3.2-0.8,4.5
			c-0.2,1.3-0.3,2.2-0.3,2.7c-0.1,0.6,0,1.2,0.1,1.9s0.4,1.4,0.8,1.9c0.4,0.6,0.9,1.1,1.6,1.5c0.7,0.4,1.5,0.6,2.6,0.6
			c0.7,0,1.6-0.4,2.7-1.2s2.2-1.8,3.3-3c0.4-0.4,0.8-0.9,1.2-1.4c0,0.3,0,0.5,0,0.8c0.1,1,0.3,1.8,0.7,2.5c0.3,0.6,0.8,1.1,1.3,1.4
			s1,0.4,1.4,0.4c0.9-0.1,1.9-0.3,2.8-0.6c0.8-0.3,1.7-0.8,2.6-1.5c0.9-0.7,1.7-1.6,2.5-2.9c0,0.8,0,1.5,0.2,2.1s0.3,1,0.4,1.4
			c0.2,0.4,0.4,0.7,0.7,0.9c0.3,0.2,0.6,0.3,1,0.4c0.4,0.1,0.8,0.1,1.2,0.1c0.4,0,0.8-0.1,1.2-0.2c0.4-0.1,0.8-0.3,1.1-0.5
			c0.5-0.3,1.1-0.9,1.8-1.6c0.7-0.8,1.4-1.6,2.2-2.5c0.5-0.6,0.9-1.2,1.4-1.8c0.1,1.2,0.2,2.2,0.4,3c0.4,1.2,0.8,2.1,1.4,2.7
			s1.1,0.9,1.6,1s1,0.1,1.4,0.1c1.1,0,2.2-0.4,3.4-1.2s2.2-1.8,3.1-3.1c0.9-1.2,1.7-2.6,2.4-4s1-2.8,1.2-4.1c0.6,0,1.2-0.1,1.9-0.2
			c0.7-0.1,1.4-0.3,2.2-0.5c0.8-0.2,1.5-0.5,2.3-0.8c0.1,0,0.2-0.1,0.3-0.2c-0.8,3.3-1.8,7.5-3,12.6c0.1,0.3,0.2,0.6,0.4,0.8
			s0.4,0.4,0.6,0.5c0.2,0.1,0.4,0.2,0.7,0.3c0.2,0,0.5,0,0.7,0c0.2,0,0.4,0,0.6-0.1c0.2-0.1,0.4-0.2,0.6-0.3
			c1.4-5.7,2.6-10.3,3.6-14.1C593.9,608.2,594.7,605.3,595.2,603.1z M557.5,611.7c-0.1,0.5-0.2,1.2-0.4,1.9
			c-0.2,0.8-0.3,1.6-0.6,2.4s-0.4,1.6-0.6,2.2c0,0.2-0.2,0.4-0.4,0.8c-0.2,0.3-0.5,0.7-0.9,1.1c-0.4,0.4-0.8,0.8-1.2,1.2
			s-0.9,0.7-1.4,0.9s-0.9,0.4-1.3,0.4c-0.4,0-0.8-0.1-1.2-0.5c-0.2-0.2-0.3-0.6-0.4-1.2s0-1.3,0.1-2.1c0.1-0.8,0.3-1.7,0.6-2.6
			c0.3-0.9,0.7-1.8,1.1-2.6c1.1-2,2.1-3.3,3-4.1c0.9-0.7,1.5-1,1.8-0.7c0.1,0.1,0.2,0.3,0.2,0.5c0,0.2,0,0.4,0,0.8s-0.2,0.7-0.4,1.2
			c0.2-0.1,0.5-0.1,0.8-0.1c0.2,0,0.5-0.1,0.6-0.1c0.2-0.1,0.4-0.1,0.5-0.1C557.6,610.9,557.6,611.1,557.5,611.7z"/>
		<path class="st3" d="M597.2,621.9c0.4,1.1,0.9,2,1.6,2.7c0.7,0.7,1.4,1.2,2.2,1.5s1.5,0.5,2.2,0.5c1.3,0,2.7-0.3,4.1-0.9
			s2.8-1.4,4.1-2.5c1.3-1,2.6-2.2,3.8-3.5c1.2-1.3,2.2-2.6,3.2-4c0.2-0.3,0.3-0.6,0.3-0.9c0-0.3-0.1-0.5-0.2-0.6
			c-0.1-0.1-0.3-0.1-0.6-0.1s-0.5,0.2-0.7,0.4c-0.6,0.8-1.4,1.6-2.4,2.7s-2,2-3.1,3c-1.1,1-2.2,1.8-3.4,2.4c-1.2,0.7-2.3,1-3.3,1
			c-0.5,0-1-0.1-1.5-0.2s-0.9-0.4-1.3-0.7s-0.7-0.8-0.9-1.3c-0.2-0.5-0.4-1.2-0.4-2c0.5-0.3,1-0.7,1.6-1.1s1.3-0.9,2-1.3
			c0.6-0.4,1.3-0.9,2-1.5c0.7-0.5,1.4-1.1,2-1.8s1.2-1.4,1.6-2.2c0.5-0.8,0.7-1.7,0.8-2.7c0.1-0.9-0.2-1.6-0.7-2.2
			c-0.5-0.6-1.4-0.9-2.6-0.9c-1.2,0-2.5,0.4-3.7,1.2c-1.2,0.8-2.3,1.8-3.3,3c-1,1.2-1.8,2.5-2.5,3.9c-0.7,1.4-1.1,2.8-1.2,4.1
			C596.7,619.5,596.8,620.9,597.2,621.9z M602,613.3c0.4-1,0.9-1.9,1.4-2.6s1-1.2,1.5-1.6s1-0.6,1.3-0.6c0.3,0,0.6,0.1,0.8,0.4
			c0.2,0.3,0.2,0.7,0.2,1.3c-0.1,0.6-0.4,1.2-0.9,2c-0.5,0.8-1.5,1.7-2.8,2.7c-0.4,0.3-0.9,0.7-1.3,1c-0.4,0.3-0.8,0.6-1.2,0.9
			C601.3,615.5,601.6,614.3,602,613.3z"/>
		<path class="st3" d="M352.1,646.8c-0.2,0-0.4,0.1-0.6,0.3c-0.3,0.3-0.6,0.6-1.1,1c-0.5,0.4-1,0.8-1.6,1.1
			c-0.6,0.3-1.4,0.6-2.2,0.9c-0.9,0.3-1.8,0.4-2.9,0.4c-0.2,0-0.5,0-0.7-0.1c-0.2-0.1-0.4-0.1-0.5-0.2c0.8-1.3,1.5-2.6,2-3.7
			c0.5-1.1,0.8-2,0.9-2.7c0.1-0.4,0-0.9-0.2-1.3s-0.7-0.6-1.5-0.6c-0.4,0-0.9,0.2-1.4,0.5s-1,0.8-1.5,1.4c-0.5,0.6-0.9,1.3-1.3,2.2
			c-0.4,0.9-0.6,1.8-0.7,2.9c0,0.7,0,1.3,0.2,1.8c-0.5,1-1.1,1.9-1.7,2.8c-0.6,0.9-1.2,1.7-1.7,2.4c-0.5,0.7-1,1.2-1.5,1.7
			s-0.7,0.6-0.9,0.6c-0.1,0-0.3-0.2-0.5-0.5c-0.2-0.3-0.4-0.8-0.6-1.4s-0.3-1.4-0.4-2.2s-0.1-1.9,0-3.1c0.1-0.7,0.2-1.4,0.3-2.2
			s0.3-1.5,0.4-2.2c0.2-0.7,0.3-1.3,0.4-1.9c0.1-0.5,0.2-1,0.3-1.2c0.1-0.3,0.1-0.5,0-0.7c-0.1-0.2-0.3-0.3-0.5-0.3s-0.5-0.1-0.8,0
			c-0.3,0-0.5,0.1-0.8,0.1c-0.5,0.1-0.9,0.3-1.2,0.5s-0.6,0.5-0.8,0.9c-0.2,0.4-0.4,1-0.6,1.7c-0.2,0.7-0.3,1.7-0.4,2.9
			c-0.1,1-0.1,2.2,0,3.4c-0.1,0.2-0.3,0.3-0.4,0.5c-0.5,0.7-1.1,1.4-1.7,2.1c-0.6,0.7-1.2,1.4-1.8,2s-1.1,1.1-1.6,1.5
			c-0.5,0.4-0.9,0.6-1.2,0.6c-0.4,0-0.7-0.1-0.9-0.3c-0.2-0.2-0.4-0.4-0.4-0.7s-0.1-0.6-0.2-0.9s0-0.6,0-0.9
			c0.1-0.5,0.2-0.9,0.2-1.2c0.1-0.3,0.1-0.6,0.2-0.8s0.1-0.5,0.1-0.7s0.1-0.5,0.2-0.8c0.3-1.4,0.6-2.6,0.8-3.5
			c0.2-0.9,0.3-1.6,0.4-2.2c0.1-0.5,0.1-0.9,0.1-1.1c0-0.2,0-0.3,0-0.4c-0.1,0-0.2,0-0.4,0c-0.2,0-0.4,0-0.7,0
			c-0.3,0-0.7,0.1-1.1,0.2c0.7-1,0.9-1.8,0.8-2.4s-0.4-1.1-0.9-1.4c-0.5-0.3-1.2-0.6-2.1-0.8c-0.7-0.1-1.6,0.2-2.7,0.8
			s-2.2,1.4-3.3,2.5c-1.1,1.1-2.2,2.4-3.1,4c-0.8,1.3-1.4,2.8-1.9,4.4c-0.7,0.9-1.5,1.8-2.2,2.7c-0.9,1-1.7,1.8-2.6,2.5
			c-0.9,0.7-1.6,1-2.1,1s-0.9-0.2-0.9-0.8c0-0.5,0-1.1,0.2-1.8c0.3-1.1,0.6-2,0.9-2.9s0.4-1.7,0.6-2.3l0.5-2.1
			c0.3-1,0.4-1.9,0.4-2.8s-0.2-1.6-0.5-2.2s-0.6-1.1-1.1-1.4c-0.5-0.3-1-0.5-1.6-0.5c-0.7,0-1.4,0.1-2.1,0.4
			c-0.7,0.3-1.3,0.7-1.9,1.1s-1.2,1-1.7,1.6c-0.5,0.6-1,1.1-1.4,1.7c0.2-0.5,0.3-1,0.5-1.5c0.1-0.4,0.2-0.9,0.4-1.2
			c0.1-0.4,0.2-0.7,0.3-0.9c-0.2-0.2-0.4-0.3-0.6-0.4c-0.2-0.1-0.5-0.1-0.7-0.2c-0.2,0-0.5,0-0.8,0c-0.3,0-0.5,0.1-0.8,0.2
			c-0.2,0.1-0.5,0.1-0.7,0.3c-0.2,0.1-0.5,0.3-0.7,0.4c-0.3,1.2-0.6,2.3-0.8,3.3c-0.2,1-0.4,1.9-0.6,2.6c-0.2,0.9-0.4,1.7-0.5,2.4
			c-0.2,0.9-0.5,1.9-0.7,2.9c-0.2,1-0.5,1.9-0.7,2.8s-0.4,1.7-0.6,2.3s-0.3,1.1-0.3,1.3c-0.1,0.3,0.1,0.4,0.5,0.4s0.9-0.1,1.4-0.3
			s1-0.4,1.5-0.7s0.8-0.6,0.8-0.9c0.1-0.4,0.2-0.9,0.3-1.4c0.1-0.5,0.3-1,0.4-1.7c0.1-0.6,0.3-1.4,0.5-2.2s0.4-1.7,0.7-2.8
			c0.5-0.8,1.1-1.5,1.6-2.3c0.5-0.7,1.1-1.4,1.6-1.9s1.1-1,1.6-1.3s1-0.5,1.5-0.5c0.4,0,0.7,0.2,0.8,0.7c0.1,0.5,0.2,1,0.1,1.7
			s-0.2,1.5-0.4,2.3c-0.2,0.9-0.4,1.7-0.7,2.6c-0.2,0.9-0.5,1.7-0.7,2.4c-0.2,0.7-0.4,1.3-0.5,1.8c-0.2,0.7-0.2,1.3-0.1,1.9
			c0.1,0.6,0.3,1.1,0.6,1.5s0.7,0.8,1.2,1.1c0.5,0.3,1.1,0.4,1.9,0.4c0.7,0,1.4-0.2,2.2-0.6s1.5-1,2.3-1.6c0.8-0.7,1.5-1.4,2.2-2.2
			c0.3-0.3,0.5-0.6,0.8-0.9c0,0.2,0,0.4,0,0.6c0.1,1,0.3,1.8,0.7,2.5c0.3,0.6,0.8,1.1,1.3,1.4s1,0.4,1.4,0.4
			c0.9-0.1,1.9-0.3,2.8-0.6c0.8-0.3,1.7-0.8,2.6-1.5c0.9-0.7,1.7-1.6,2.5-2.9c0,0.8,0,1.5,0.2,2.1s0.3,1,0.4,1.4
			c0.2,0.4,0.4,0.7,0.7,0.9c0.3,0.2,0.6,0.3,1,0.4c0.4,0.1,0.8,0.1,1.2,0.1c0.4,0,0.8-0.1,1.2-0.2c0.4-0.1,0.8-0.3,1.1-0.5
			c0.5-0.3,1.1-0.9,1.8-1.6c0.7-0.8,1.4-1.6,2.2-2.5c0.5-0.6,0.9-1.2,1.4-1.8c0.1,0.8,0.2,1.6,0.4,2.4c0.3,1.4,0.8,2.5,1.4,3.4
			s1.4,1.4,2.4,1.4c0.4,0,0.9-0.3,1.6-0.8s1.4-1.3,2.2-2.2s1.6-1.9,2.5-3s1.7-2.3,2.5-3.5c0.3,0.1,0.6,0.2,0.9,0.2
			c0.3,0,0.5,0,0.7,0c2.2,0,4-0.4,5.6-1.3s3-2,4.1-3.3c0.2-0.2,0.3-0.4,0.3-0.6s-0.1-0.3-0.2-0.4S352.3,646.8,352.1,646.8z
			 M318.2,646.8c-0.1,0.5-0.2,1.2-0.4,1.9c-0.2,0.8-0.3,1.6-0.6,2.4s-0.4,1.6-0.6,2.2c0,0.2-0.2,0.4-0.4,0.8
			c-0.2,0.3-0.5,0.7-0.9,1.1c-0.4,0.4-0.8,0.8-1.2,1.2s-0.9,0.7-1.4,0.9s-0.9,0.4-1.3,0.4c-0.4,0-0.8-0.1-1.2-0.5
			c-0.2-0.2-0.3-0.6-0.4-1.2s0-1.3,0.1-2.1c0.1-0.8,0.3-1.7,0.6-2.6c0.3-0.9,0.7-1.8,1.1-2.6c1.1-2,2.1-3.3,3-4.1
			c0.9-0.7,1.5-1,1.8-0.7c0.1,0.1,0.2,0.3,0.2,0.5c0,0.2,0,0.4,0,0.8s-0.2,0.7-0.4,1.2c0.2-0.1,0.5-0.1,0.8-0.1
			c0.2,0,0.5-0.1,0.6-0.1c0.2-0.1,0.4-0.1,0.5-0.1C318.3,646.1,318.3,646.3,318.2,646.8z"/>
		<path class="st3" d="M745,566.5c0.7-0.4,1.2-0.7,1.5-0.7c0.5,0,0.9,0.2,1.1,0.7c0.2,0.4,0.2,1.1,0,1.9c-0.2,0.7-0.3,1.4-0.6,2.2
			s-0.4,1.7-0.7,2.6s-0.4,1.8-0.5,2.6s-0.2,1.6-0.2,2.2s0.1,1.2,0.3,1.6s0.5,0.8,0.9,1c0.4,0.2,0.8,0.4,1.2,0.5s0.9,0.1,1.3,0.1
			c1.3,0,2.6-0.4,3.8-1.2s2.4-1.8,3.4-2.9c0.8-0.8,1.5-1.7,2.2-2.6c-0.4,1.5-0.7,3.1-1.1,4.8c0.1,0.3,0.2,0.6,0.4,0.8
			s0.4,0.4,0.6,0.5c0.2,0.1,0.4,0.2,0.7,0.3c0.2,0,0.5,0,0.7,0c0.2,0,0.4,0,0.6-0.1c0.2-0.1,0.4-0.2,0.6-0.3
			c1.4-5.7,2.6-10.3,3.6-14.1c1-3.7,1.7-6.7,2.3-8.8c0.7-2.5,1.2-4.5,1.5-5.8c0.2-0.7,0.3-1.3,0.4-1.9c0.1-0.5,0.1-1,0.1-1.5
			s-0.1-0.8-0.3-0.9c-0.1-0.2-0.2-0.3-0.4-0.3s-0.5-0.1-0.7-0.1c-0.3,0-0.6,0-0.9,0.1c-0.3,0.1-0.7,0.1-1,0.2
			c-0.3,0.1-0.6,0.1-0.9,0.2s-0.6,0.2-0.8,0.4c0.1,0.4,0.1,0.9,0.1,1.5c0,0.5,0,1-0.1,1.5c-0.1,0.6-0.1,1.1-0.2,1.7
			c-0.2,0.8-0.5,2.4-1,4.5c-0.4,1.8-1.1,4.5-1.9,8c-0.3,1.3-0.6,2.7-1,4.3c-0.3,0.4-0.7,0.9-1.1,1.5c-0.8,1.1-1.6,2.2-2.5,3.2
			s-1.8,1.9-2.7,2.7s-1.8,1.1-2.6,1.1c-1,0-1.3-0.8-1-2.3l1.6-6.3c0.2-0.8,0.3-1.7,0.4-2.6c0.1-0.9,0-1.8-0.1-2.5
			c-0.2-0.8-0.5-1.4-0.9-1.9c-0.5-0.5-1.1-0.8-1.9-0.8c-0.7,0-1.4,0.2-2.2,0.5c-0.7,0.3-1.4,0.8-2.1,1.3c-0.7,0.5-1.3,1.1-1.9,1.8
			c-0.6,0.7-1.2,1.3-1.7,2c0.1-0.8,0.1-1.5,0.1-2.2s-0.1-1.3-0.4-1.8s-0.5-0.9-0.8-1.2c-0.4-0.3-0.8-0.5-1.3-0.5
			c-0.7,0-1.4,0.2-2.1,0.5c-0.7,0.3-1.4,0.7-2.1,1.3c-0.7,0.5-1.4,1.1-2,1.8c-0.7,0.7-1.3,1.4-1.9,2.1c0.2-1,0.4-1.7,0.6-2.2
			c0.3-1.7,0-2.6-1-2.6c-0.2,0-0.5,0-0.8,0.1c-0.2,0.1-0.6,0.2-1,0.3c-0.4,0.1-0.9,0.3-1.4,0.6c0.1,0.2,0.1,0.5,0.1,0.8
			s-0.1,0.7-0.1,1c-0.1,0.4-0.1,0.8-0.2,1.2l-0.6,2.5c-0.1,0.2-0.3,0.3-0.4,0.6c-0.5,0.6-1,1.3-1.6,2s-1.3,1.5-2,2.3
			c-0.7,0.8-1.5,1.5-2.2,2.2s-1.4,1.2-2.1,1.6c-0.7,0.4-1.2,0.6-1.7,0.5c-0.6,0-1.1-0.2-1.5-0.6c-0.3-0.3-0.6-0.8-0.9-1.5
			s-0.3-1.7-0.1-3.1c0.8-1.9,1.5-3.6,2.2-5.3c0.7-1.7,1.2-3.1,1.7-4.4c0.5-1.5,1-2.8,1.4-4.1c0.2-0.5,0.3-1,0.4-1.5
			c0.1-0.5,0.2-1,0.4-1.5c0.2,0,0.5,0,0.7,0c0.2,0,0.4,0,0.6,0c1,0,1.9,0,2.6,0.1c0.8,0.1,1.4,0.1,1.9,0.2c0.5,0.1,1,0.1,1.4,0.2
			s0.7,0.2,1.1,0.2c0.3,0.1,0.6,0,0.8-0.2s0.4-0.4,0.5-0.7c0.1-0.3,0.2-0.5,0.1-0.8c0-0.2-0.1-0.4-0.4-0.5c-0.2-0.1-0.5-0.2-1-0.4
			c-0.4-0.2-1-0.3-1.7-0.5c-0.7-0.2-1.6-0.3-2.6-0.5s-2.2-0.2-3.5-0.2c0.3-1.6,0.5-2.9,0.5-3.9s0-1.7-0.2-1.9
			c-0.2-0.2-0.4-0.3-0.8-0.4s-0.7,0-1.1,0s-0.7,0.1-1.1,0.2c-0.3,0.1-0.5,0.2-0.6,0.4c-0.3,0.4-0.7,1.2-1.1,2.3
			c-0.4,1.1-0.8,2.4-1.2,3.9c-0.5,0.1-1.1,0.2-1.6,0.2c-0.5,0.1-1.1,0.1-1.7,0.1c-0.8,0-1.6,0-2.2,0s-1.3-0.1-1.9-0.2
			c-0.2,0-0.4,0.1-0.6,0.3c-0.2,0.2-0.4,0.4-0.6,0.6s-0.2,0.5-0.3,0.7s0.1,0.4,0.3,0.5c0.4,0.2,1.1,0.4,2,0.7s1.8,0.4,2.8,0.4
			c0.4,0,0.9,0,1.5-0.1c0.5-0.1,1.1-0.1,1.6-0.2c-0.4,1.8-0.9,3.7-1.2,5.6c-0.4,2-0.7,3.8-1.1,5.5c-0.1,0.5-0.2,1-0.3,1.5
			c-0.1,0.1-0.3,0.2-0.4,0.3c-0.2,0.3-0.6,0.6-0.9,1c-0.4,0.4-0.8,0.9-1.2,1.4c-0.4,0.5-0.9,1-1.4,1.4s-0.9,0.9-1.3,1.2
			c-1.7,1.3-2.9,2.1-3.7,2.4c-0.8,0.3-1.4,0.1-1.7-0.4c-0.2-0.4-0.2-0.8-0.1-1.3c0.2-0.5,0.4-1.1,0.7-1.8c0.4-1,0.8-1.9,1.1-2.7
			c0.3-0.8,0.5-1.5,0.7-2.1c0.2-0.6,0.3-1.2,0.4-1.8c0.1-0.5,0.2-1,0.2-1.5c0-0.8,0-1.5-0.2-2c-0.2-0.5-0.4-1-0.7-1.3
			s-0.6-0.6-1-0.7s-0.8-0.2-1.2-0.2c-0.8,0-1.6,0.2-2.4,0.5c-0.8,0.4-1.5,0.8-2.1,1.4c-0.7,0.5-1.3,1.1-1.9,1.8s-1,1.3-1.5,1.9
			c0.7-2.7,1.4-5.3,2.2-7.7s1.5-4.9,2.2-7.4c0.2-0.7,0.3-1.3,0.4-1.9c0.1-0.5,0.1-1,0.1-1.5s-0.1-0.8-0.3-0.9
			c-0.1-0.2-0.2-0.3-0.4-0.3s-0.5-0.1-0.7-0.1c-0.3,0-0.6,0-0.9,0.1c-0.3,0.1-0.7,0.1-1,0.2c-0.3,0.1-0.6,0.1-0.9,0.2
			s-0.6,0.2-0.8,0.4c0.1,0.4,0.1,0.9,0.1,1.5c0,0.5,0,1-0.1,1.5c-0.1,0.6-0.1,1.1-0.2,1.7c-0.2,0.8-0.5,2.4-1,4.5
			c-0.4,1.8-1.1,4.5-1.9,8c-0.8,3.5-1.9,8.1-3.3,13.9c0.1,0.3,0.2,0.6,0.4,0.8s0.4,0.4,0.6,0.5c0.2,0.1,0.5,0.2,0.7,0.3
			c0.2,0,0.4,0,0.7,0c0.2,0,0.4,0,0.6-0.1c0.2-0.1,0.4-0.2,0.6-0.3c0.2-0.9,0.4-1.9,0.7-3.1s0.5-2.3,0.7-3.3
			c0.2-1.2,0.5-2.4,0.8-3.6c0.4-0.7,0.9-1.3,1.4-2c0.5-0.7,1.1-1.3,1.7-1.9c0.6-0.5,1.2-1,1.7-1.3c0.6-0.3,1.1-0.5,1.6-0.5
			c0.7,0,1.1,0.4,1.2,1.1s0,1.6-0.2,2.6c-0.2,1-0.5,2-0.9,3.1s-0.7,2-0.9,2.8c-0.3,1.2-0.5,2.3-0.5,3.1c0,0.8,0.3,1.6,0.8,2.3
			c0.6,0.8,1.3,1.2,1.9,1.2s1.4-0.3,2.4-0.8c0.8-0.5,1.7-1.1,2.6-1.8c0.9-0.7,1.8-1.5,2.7-2.3c0.9-0.8,1.7-1.6,2.5-2.5
			c0.3-0.4,0.7-0.8,1-1.1c-0.2,1.3-0.3,2.2-0.3,2.7c-0.1,0.6,0,1.2,0.1,1.9s0.4,1.4,0.8,1.9c0.4,0.6,0.9,1.1,1.6,1.5
			c0.7,0.4,1.5,0.6,2.6,0.6c0.7,0,1.6-0.4,2.7-1.2s2.2-1.8,3.3-3c1.1-1.2,2.1-2.4,3.1-3.8l-1.3,5.4c-0.2,0.7-0.2,1.2-0.1,1.5
			s0.2,0.6,0.4,0.7c0.2,0.1,0.4,0.1,0.7,0.1c0.2,0,0.4-0.1,0.6-0.1l2.3-1c0.1-0.2,0.1-0.5,0.1-0.7c0-0.2,0.1-0.5,0.1-0.7
			c0.1-0.2,0.1-0.5,0.2-0.8v0.1c0.6-2.6,1.2-4.6,2-6.3c0.8-1.6,1.6-2.9,2.4-3.8c0.8-0.9,1.5-1.5,2.2-1.8c0.7-0.3,1.1-0.5,1.4-0.5
			c0.4,0,0.7,0.1,0.9,0.3c0.2,0.2,0.3,0.6,0.3,1.2c0,0.8-0.1,1.8-0.4,3c-0.2,1.1-0.5,2.3-0.8,3.4c-0.3,1.1-0.6,2.2-1,3.2
			c-0.3,1-0.6,1.7-0.7,2.1c-0.2,0.9-0.3,1.5-0.1,1.7s0.6,0.3,1.2,0.3c0.2,0,0.5-0.1,0.8-0.1c0.5-0.1,1.1-0.3,1.7-0.6
			c0.5-2.8,1.1-5.1,1.9-7s1.7-3.3,2.5-4.4S744.2,566.9,745,566.5z"/>
		<path class="st3" d="M600.2,755.3c-0.2-0.2-0.5-0.3-0.9-0.2c-0.3,0.1-0.8,0.3-1.2,0.6c-0.5,0.4-0.9,0.8-1.2,1.3s-0.5,1.1-0.4,1.6
			c0,0.6,0.4,1.1,1,1.6c0.2,0.2,0.5,0.3,0.8,0.2c0.3-0.1,0.7-0.2,1-0.4c0.3-0.2,0.6-0.5,0.9-0.8s0.4-0.7,0.5-1
			c0.1-0.3,0.1-0.7,0.1-1.1c0-0.4-0.1-0.8-0.2-1.1S600.5,755.5,600.2,755.3z"/>
		<path class="st3" d="M663.3,774.9c-0.2,0-0.5,0-0.8,0.2c-0.3,0.2-0.6,0.4-0.8,0.8c-0.3,0.4-0.8,1-1.5,1.7
			c-0.7,0.7-1.4,1.4-2.2,2.1s-1.7,1.5-2.7,2.2c-0.9,0.7-1.8,1.3-2.7,1.8c0.3-1.2,0.6-2.5,0.9-3.8s0.6-2.5,0.8-3.6
			c0.3-1.1,0.5-2,0.7-2.8s0.3-1.3,0.4-1.5c0.2-0.6,0.3-1,0.4-1.4c0.1-0.3,0.2-0.6,0.3-0.8c0.1-0.2,0.2-0.4,0.3-0.6s0.2-0.5,0.4-0.8
			c0-0.1-0.1-0.3-0.4-0.4c-0.3-0.2-0.7-0.2-1.1-0.2c-0.8,0-1.4,0.2-1.8,0.6c-0.4,0.4-0.7,1.1-1.1,2.2c-0.1,0.2-0.1,0.3-0.1,0.5
			c0,0.2-0.1,0.4-0.1,0.6c-0.1-0.5-0.2-1-0.4-1.6c-0.2-0.6-0.5-1.1-0.8-1.6s-0.8-0.9-1.3-1.3c-0.5-0.3-1.1-0.5-1.8-0.5
			c-1.5,0-2.8,0.5-4,1.4c-1.2,0.9-2.2,2-3,3.3s-1.4,2.7-1.9,4.2c-0.2,0.7-0.4,1.4-0.5,2c-0.7,0.9-1.4,1.9-2.2,2.8
			c-0.9,1-1.8,1.9-2.7,2.7s-1.8,1.1-2.6,1.1c-1,0-1.3-0.8-1-2.3l1.6-6.3c0.2-0.8,0.3-1.7,0.4-2.6c0.1-0.9,0-1.8-0.1-2.5
			c-0.2-0.8-0.5-1.4-0.9-1.9c-0.5-0.5-1.1-0.8-1.9-0.8c-0.7,0-1.4,0.2-2.2,0.5c-0.7,0.3-1.4,0.8-2.1,1.3c-0.7,0.5-1.3,1.1-1.9,1.8
			c-0.6,0.7-1.2,1.3-1.7,2c0.1-0.8,0.1-1.5,0.1-2.2s-0.1-1.3-0.4-1.8s-0.5-0.9-0.8-1.2c-0.4-0.3-0.8-0.5-1.3-0.5
			c-0.7,0-1.4,0.2-2.1,0.5c-0.7,0.3-1.4,0.7-2.1,1.3c-0.7,0.5-1.4,1.1-2,1.8c-0.7,0.7-1.3,1.4-1.9,2.1c0.2-1,0.4-1.7,0.6-2.2
			c0.3-1.7,0-2.6-1-2.6c-0.2,0-0.5,0-0.8,0.1c-0.2,0.1-0.6,0.2-1,0.3c-0.4,0.1-0.9,0.3-1.4,0.6c0.1,0.2,0.1,0.5,0.1,0.8
			s-0.1,0.7-0.1,1c-0.1,0.4-0.1,0.8-0.2,1.2l-0.5,2.2c-0.1,0.1-0.2,0.2-0.3,0.3c-0.4,0.6-1,1.4-1.9,2.4s-1.8,2-2.7,2.9
			c-1,1-2,1.8-2.9,2.5c-1,0.7-1.7,1-2.4,1c-0.2,0-0.4-0.1-0.6-0.2s-0.4-0.4-0.5-0.8c-0.2-0.3-0.2-0.8-0.1-1.4
			c0.1-0.6,0.2-1.2,0.4-1.9c0.2-0.7,0.4-1.4,0.6-2.1s0.4-1.3,0.6-1.9s0.4-1.3,0.7-2.2s0.6-1.8,0.9-2.6s0.5-1.6,0.7-2.2
			c0.2-0.6,0.3-1,0.2-1c-0.1,0-0.3,0-0.7,0c-0.4,0-0.8,0.1-1.3,0.1c-0.5,0.1-0.9,0.2-1.4,0.3c-0.4,0.1-0.7,0.3-0.9,0.5
			c-0.5,0.6-0.9,1.6-1.3,2.9c-0.4,1.3-0.7,2.6-1,4.1c-0.2,1.4-0.4,2.8-0.5,4.2s-0.1,2.4,0,3.2c0,0.5,0.2,1,0.5,1.5
			c0.3,0.5,0.6,0.9,1.1,1.3c0.4,0.4,0.9,0.6,1.4,0.8c0.5,0.2,1,0.3,1.6,0.3c0.7,0,1.5-0.4,2.6-1.2s2.1-1.7,3.2-2.8
			c1.1-1.1,2.1-2.3,3.1-3.5c0,0,0,0,0-0.1l-1.4,5.6c-0.2,0.7-0.2,1.2-0.1,1.5s0.2,0.6,0.4,0.7c0.2,0.1,0.4,0.1,0.7,0.1
			c0.2,0,0.4-0.1,0.6-0.1l2.3-1c0.1-0.2,0.1-0.5,0.1-0.7c0-0.2,0.1-0.5,0.1-0.7c0.1-0.2,0.1-0.5,0.2-0.8v0.1c0.6-2.6,1.2-4.6,2-6.3
			c0.8-1.6,1.6-2.9,2.4-3.8c0.8-0.9,1.5-1.5,2.2-1.8c0.7-0.3,1.1-0.5,1.4-0.5c0.4,0,0.7,0.1,0.9,0.3c0.2,0.2,0.3,0.6,0.3,1.2
			c0,0.8-0.1,1.8-0.4,3c-0.2,1.1-0.5,2.3-0.8,3.4c-0.3,1.1-0.6,2.2-1,3.2c-0.3,1-0.6,1.7-0.7,2.1c-0.2,0.9-0.3,1.5-0.1,1.7
			s0.6,0.3,1.2,0.3c0.2,0,0.5-0.1,0.8-0.1c0.5-0.1,1.1-0.3,1.7-0.6c0.5-2.8,1.1-5.1,1.9-7s1.7-3.3,2.5-4.4s1.7-1.8,2.4-2.3
			c0.7-0.4,1.2-0.7,1.5-0.7c0.5,0,0.9,0.2,1.1,0.7c0.2,0.4,0.2,1.1,0,1.9c-0.2,0.7-0.3,1.4-0.6,2.2s-0.4,1.7-0.7,2.6
			s-0.4,1.8-0.5,2.6s-0.2,1.6-0.2,2.2s0.1,1.2,0.3,1.6s0.5,0.8,0.9,1c0.4,0.2,0.8,0.4,1.2,0.5s0.9,0.1,1.3,0.1
			c1.3,0,2.6-0.4,3.8-1.2s2.4-1.8,3.4-2.9c0.6-0.7,1.2-1.4,1.8-2.1c0.1,1.7,0.5,3,1.2,3.9c0.8,1.2,1.9,1.8,3.3,1.8
			c1.5,0,2.8-0.4,3.9-1.1s2.1-1.7,2.9-2.8c-0.1,0.4-0.2,0.9-0.4,1.5c-0.1,0.5-0.3,1.1-0.4,1.8c-0.6,0.5-1.2,1-1.9,1.5
			s-1.3,1.2-2.1,1.8c-1.5,1.2-2.7,2.3-3.6,3.1s-1.7,1.6-2.2,2.4s-0.9,1.5-1.1,2.4c-0.2,0.8-0.3,1.9-0.3,3.1c0,0.9,0.1,1.9,0.4,3
			c0.2,1.1,0.6,2.1,1.1,3c0.5,0.9,1.1,1.7,1.9,2.3s1.6,0.9,2.6,0.9c0.7,0,1.3-0.3,1.9-0.9c0.6-0.6,1.1-1.4,1.5-2.4s0.9-2.1,1.3-3.3
			c0.4-1.2,0.7-2.5,1-3.7c0.3-1.2,0.6-2.4,0.8-3.6s0.4-2.1,0.6-2.8c0.2-0.7,0.3-1.5,0.6-2.4c0.2-0.9,0.5-2,0.8-3.4
			c0.7-0.4,1.6-1,2.6-1.7s2.1-1.5,3.1-2.4c1.1-0.9,2.1-1.9,3.2-3s1.9-2.2,2.6-3.4c0.2-0.4,0.4-0.7,0.3-1S663.6,775,663.3,774.9z
			 M647,793c-0.2,1-0.5,2-0.7,2.9c-0.2,0.9-0.4,1.7-0.6,2.4s-0.3,1.2-0.4,1.6c-0.4,1.6-0.9,2.9-1.2,3.8c-0.4,0.9-0.9,1.4-1.5,1.4
			c-0.2,0-0.5-0.1-0.7-0.2s-0.4-0.4-0.5-0.8s-0.2-0.9-0.3-1.5s-0.1-1.5-0.1-2.5s0.1-1.9,0.4-2.7c0.3-0.8,0.7-1.5,1.2-2.2
			c0.5-0.7,1.1-1.3,1.7-1.9s1.3-1.2,2-1.9c0.3-0.3,0.6-0.6,0.8-0.8s0.5-0.5,0.8-0.7C647.5,790.9,647.2,792,647,793z M650.8,776.7
			c-0.1,0.4-0.2,0.9-0.4,1.4s-0.3,0.8-0.4,1.1c-0.2,0.3-0.4,0.7-0.7,1.1s-0.7,0.9-1.2,1.4c-0.5,0.5-1,0.9-1.6,1.2
			c-0.6,0.3-1.2,0.5-1.9,0.5c-1.2,0-2-0.4-2.3-1.2s-0.6-1.9-0.6-3.2c0-1.1,0.2-2.2,0.5-3.4s0.7-2.2,1.3-3.2s1.2-1.8,1.9-2.4
			c0.7-0.6,1.4-0.9,2.2-0.9c0.5,0,0.9,0.3,1.3,0.8c0.4,0.5,0.6,1.3,0.8,2.4c0,0.2,0.1,0.5,0.1,0.8s0.1,0.6,0.1,0.8s0.1,0.5,0.3,0.8
			c0.1,0.2,0.3,0.3,0.4,0.4c0.2,0,0.3,0.2,0.4,0.6C650.9,775.9,650.9,776.3,650.8,776.7z"/>
		<path class="st3" d="M771.5,693.3c-0.1-0.1-0.3-0.1-0.5,0c-0.2,0.1-0.5,0.3-0.7,0.6c-0.2,0.2-0.5,0.6-0.8,1.1s-0.8,1.1-1.4,1.7
			c-0.5,0.6-1.2,1.3-1.8,2c-0.7,0.7-1.4,1.3-2.1,1.9c-0.7,0.6-1.5,1.1-2.2,1.4s-1.5,0.6-2.2,0.6c-0.2,0-0.3,0-0.3,0c0,0-0.1,0-0.1,0
			c0,0,0,0,0,0c0,0-0.1,0-0.2-0.1c0.6-0.8,1.2-1.6,1.7-2.4c0.5-0.9,1-1.8,1.4-2.7c0.4-0.9,0.7-1.8,1-2.7c0.2-0.9,0.4-1.7,0.4-2.5
			c0-0.7,0-1.4,0-2.2c-0.1-0.7-0.2-1.4-0.5-2c-0.2-0.6-0.6-1.1-1.1-1.4c-0.5-0.4-1-0.5-1.8-0.5c-0.5,0-1.1,0.1-1.7,0.4
			s-1.1,0.5-1.7,0.9s-1.1,0.8-1.6,1.3s-1,1-1.5,1.5c0-0.1,0-0.2,0-0.4c0-0.1,0-0.2,0.1-0.4c0.2-1,0.1-1.8-0.1-2.2s-0.7-0.7-1.6-0.8
			c-0.3,0-0.7,0-1,0.1c-0.3,0.1-0.7,0.2-1.1,0.4c-0.4,0.2-0.8,0.4-1.1,0.7c0.5,0.5,0.8,1.2,0.7,1.9c-0.1,0.7-0.2,1.7-0.6,2.9
			c-0.2,1.1-0.5,2.3-0.8,3.5c-0.3,1.2-0.6,2.4-0.8,3.5c-0.3,1.2-0.6,2.5-0.9,3.8c-0.3,1.3-0.8,2.9-1.2,4.9c-0.4,1.7-1,3.7-1.6,6.2
			c-0.6,2.5-1.4,5.4-2.2,8.7c0.1,0.3,0.3,0.6,0.5,0.9s0.4,0.4,0.6,0.6c0.2,0.2,0.4,0.3,0.7,0.4c0.6,0.2,1.2,0.3,1.7,0.2
			c0.5-0.1,0.8-0.6,1-1.5c0.5-3.1,1-5.9,1.5-8.3c0.5-2.4,0.9-4.5,1.2-6.2c0.4-2,0.8-3.7,1.2-5.2c0-0.2,0.1-0.3,0.1-0.4
			s0-0.2,0.1-0.3c0.1,0.3,0.2,0.7,0.4,1.1c0.2,0.4,0.4,0.7,0.6,1c0.2,0.3,0.6,0.5,1,0.7c0.4,0.2,0.9,0.3,1.4,0.3
			c0.6,0,1.1-0.1,1.7-0.4s1.2-0.6,1.7-1c0.2,0.1,0.4,0.2,0.6,0.3c0.2,0.1,0.3,0.2,0.5,0.2c0.2,0.1,0.4,0.1,0.6,0.2c0.2,0,0.6,0,1,0
			c0.8,0,1.7-0.2,2.6-0.7s1.8-1,2.6-1.7c0.8-0.7,1.6-1.5,2.4-2.3s1.4-1.7,2-2.4c0.6-0.8,1.1-1.5,1.5-2.1c0.4-0.6,0.7-1.1,0.8-1.4
			c0.2-0.4,0.3-0.7,0.3-1C771.7,693.6,771.6,693.4,771.5,693.3z M757.2,699.2c-0.5,0.7-1,1.3-1.5,1.9c-0.8-0.4-1.4-0.8-1.9-1.1
			c-0.5-0.4-1-0.5-1.3-0.5c-0.3,0-0.6,0-0.9,0.1s-0.6,0.2-0.8,0.4c0.2-1,0.4-1.8,0.6-2.5s0.3-1.3,0.5-1.9c1.2-1.8,2.4-3.3,3.5-4.4
			c1.1-1.1,2.2-1.7,3.2-1.7c0.7,0,1.1,0.3,1.4,0.8c0.3,0.5,0.4,1.3,0.3,2.2c0,0.7-0.2,1.5-0.5,2.2c-0.3,0.8-0.7,1.5-1.1,2.3
			S757.7,698.5,757.2,699.2z"/>
		<path class="st3" d="M445,810c-0.3,0-0.7,0-1,0.1c-0.3,0.1-0.7,0.2-1.1,0.4c-0.4,0.2-0.8,0.4-1.2,0.7c0.5,0.5,0.7,1.1,0.7,1.8
			s-0.2,1.6-0.4,2.7c-0.2,0.6-0.4,1.3-0.7,2s-0.7,1.5-1.1,2.3c-0.4,0.8-0.9,1.6-1.4,2.3c-0.5,0.8-1,1.4-1.5,2
			c-0.5,0.6-1,1.1-1.5,1.4c-0.5,0.4-1,0.5-1.4,0.5c-0.8,0-1.4-0.4-1.6-1.1c-0.2-0.8-0.2-1.9,0-3.3c0-0.3,0.2-0.8,0.4-1.6
			c0.2-0.7,0.5-1.5,0.8-2.4c0.3-0.9,0.6-1.7,0.9-2.6c0.3-0.8,0.5-1.5,0.6-2c0.2-1,0.3-1.8,0.2-2.2c-0.1-0.5-0.6-0.8-1.5-0.9
			c-0.3,0-0.7,0-1,0c-0.3,0.1-0.7,0.1-1.1,0.3c-0.4,0.1-0.8,0.3-1.2,0.6c0.4,0.6,0.6,1.3,0.4,2.1s-0.4,1.9-0.8,3
			c-0.1,0.3-0.2,0.7-0.4,1.2c-0.2,0.6-0.4,1.2-0.5,1.9c-0.1,0.3-0.1,0.7-0.2,1c-0.5,0.6-1,1.2-1.6,1.8c-0.7,0.8-1.4,1.5-2.2,2.2
			s-1.4,1.2-2,1.6c-0.6,0.4-1.2,0.7-1.6,0.7c-0.4,0-0.7-0.2-1-0.5c-0.3-0.3-0.5-0.9-0.4-1.7c0-0.5,0.1-1.2,0.3-2.1
			c0.1-0.9,0.3-1.8,0.4-2.8c1-1.6,2-3.2,2.9-4.9s1.7-3.5,2.4-5.2s1.2-3.4,1.7-5c0.4-1.6,0.7-3.1,0.7-4.5c0.1-1.1,0.1-2,0-2.7
			s-0.2-1.1-0.4-1.5s-0.4-0.5-0.6-0.6c-0.2-0.1-0.5-0.1-0.8-0.1c-0.2,0-0.5,0-0.8,0.1c-0.2,0.1-0.5,0.2-0.8,0.3
			c-0.3,0.1-0.6,0.3-0.9,0.6c-0.5,1.7-1,3.2-1.4,4.7s-0.8,2.8-1.1,4c-0.3,1.3-0.7,2.6-1,3.8c-0.2,0.8-0.4,1.6-0.6,2.5
			c-0.2,0.9-0.4,1.8-0.6,2.7c-0.1-0.4-0.2-0.9-0.4-1.4c-0.2-0.5-0.5-1-0.8-1.4s-0.7-0.8-1.1-1c-0.4-0.3-0.9-0.4-1.5-0.4
			c-1.2,0-2.4,0.4-3.6,1.1s-2.3,1.7-3.2,2.9c-0.3,0.4-0.7,0.9-1,1.4c0,0,0,0-0.1,0c-0.6,0.5-1.3,0.9-2,1.4c-0.7,0.5-1.5,0.9-2.3,1.3
			c-0.8,0.4-1.5,0.8-2.2,1c0-0.2,0.1-0.6,0.1-0.9c0-0.4,0-0.7,0-0.9c0-1.2-0.2-2.3-0.6-3.1c-0.4-0.9-0.9-1.6-1.5-2.1s-1.2-1-1.8-1.3
			s-1.1-0.4-1.5-0.5c-0.1,0-0.2-0.1-0.3-0.1c-0.1,0-0.2,0-0.3,0c-0.6,0-1.1,0.1-1.7,0.2s-1.1,0.3-1.7,0.6c-0.5,0.3-1,0.6-1.4,1
			c-0.4,0.4-0.7,0.9-0.9,1.4c-0.1,0.2-0.3,0.3-0.4,0.5c-0.9,0.4-1.9,0.7-2.9,0.9c-1.4,0.3-2.7,0.5-3.9,0.6c-0.1-1-0.4-1.9-0.8-2.6
			c-0.4-0.7-0.8-1-1.4-1c-0.3,0-0.7,0.1-1.1,0.2c-0.4,0.2-0.8,0.4-1.1,0.7s-0.6,0.6-0.9,1c-0.2,0.4-0.4,0.8-0.4,1.2
			c0,0.7,0.2,1.2,0.6,1.6c0.4,0.4,0.9,0.7,1.5,0.8c-0.1,0.9-0.3,1.9-0.7,3.1c-0.4,1.1-0.9,2.2-1.4,3.2c-0.6,1-1.2,1.8-1.9,2.5
			c-0.7,0.7-1.5,1-2.2,1c-0.9,0-1.5-0.7-1.8-2.1c-0.3-1.4-0.3-3.2,0-5.4c0.5-0.9,1-2,1.6-3.2s1.2-2.6,1.8-4.1
			c0.6-1.5,1.2-3.1,1.8-4.8c0.6-1.7,1.1-3.5,1.6-5.4c0.5-2,0.8-3.6,0.9-4.8c0.1-1.2,0-1.9-0.2-2.1c-0.1-0.1-0.3-0.1-0.7-0.1
			c-0.3,0-0.6,0-1,0.1c-0.4,0.1-0.7,0.2-1.1,0.4c-0.4,0.2-0.7,0.4-1,0.8c-0.2,0.3-0.5,0.8-1,1.7c-0.4,0.9-0.9,2-1.4,3.3
			c-0.5,1.3-1,2.8-1.6,4.4c-0.5,1.6-1,3.3-1.5,5c-0.4,1.7-0.8,3.4-1.1,5.2c-0.3,1.7-0.5,3.3-0.5,4.9c-0.1,2.3,0.1,4,0.5,5.3
			c0.4,1.2,0.8,2.1,1.4,2.7s1.1,0.9,1.6,1s1,0.1,1.4,0.1c1.1,0,2.2-0.4,3.4-1.2s2.2-1.8,3.1-3.1c0.9-1.2,1.7-2.6,2.4-4
			s1-2.8,1.2-4.1c0.6,0,1.2-0.1,1.9-0.2c0.7-0.1,1.4-0.3,2.2-0.5c0.5-0.1,0.9-0.3,1.4-0.5c-0.2,0.4-0.4,0.9-0.5,1.3
			c-0.2,0.8-0.4,1.5-0.6,2.2c-0.1,0.7-0.2,1.4-0.2,2c0,0.8,0,1.8,0.1,2.7c0.1,1,0.3,1.9,0.7,2.7c0.4,0.8,0.9,1.5,1.6,2
			s1.7,0.8,3,0.8c1.1,0,2.1-0.2,3-0.6s1.8-1,2.5-1.8s1.4-1.6,1.9-2.7s1-2.1,1.3-3.3c0.9-0.3,1.9-0.8,3-1.4c0.9-0.5,1.7-1.1,2.5-1.7
			c-0.5,1.5-0.8,3.1-0.9,4.7c-0.1,1.2,0,2.1,0.3,3c0.2,0.8,0.6,1.5,1,2c0.4,0.5,0.8,0.9,1.3,1.1s1,0.3,1.4,0.3
			c1.2,0,2.5-0.4,3.8-1.3s2.6-2,4-3.5c-0.1,0.5-0.1,0.9-0.1,1.1c0,0.5,0,1,0.2,1.5c0.2,0.5,0.4,1,0.7,1.4s0.7,0.7,1.1,1
			c0.4,0.2,0.8,0.4,1.2,0.4c0.6,0,1.3-0.2,2-0.6c0.7-0.4,1.5-0.9,2.3-1.5c0.8-0.6,1.6-1.3,2.4-2.2c0.5-0.5,1-1,1.4-1.5c0,0,0,0,0,0
			c-0.1,1.7,0.2,3,0.9,4s1.9,1.7,3.6,1.9c0.7,0.1,1.4,0,2-0.2s1.2-0.6,1.8-1s1.1-1,1.5-1.5c0.5-0.6,0.9-1.2,1.3-1.9
			c-0.2,0.6-0.3,1.3-0.4,1.9c-0.1,0.6-0.3,1.3-0.4,1.9c-0.4,1.5-0.8,3.1-1.3,5c-0.4,1.6-0.9,3.5-1.5,5.6s-1.2,4.5-1.9,7.2
			c0.1,0.3,0.3,0.6,0.5,0.8c0.2,0.2,0.4,0.4,0.5,0.5c0.2,0.2,0.4,0.3,0.6,0.4c0.6,0.2,1.1,0.3,1.6,0.2c0.5-0.1,0.9-0.6,1-1.4
			c0.6-3.2,1.1-6,1.7-8.5c0.5-2.5,1-4.6,1.3-6.3c0.4-2,0.8-3.8,1.2-5.3c0.4-1.9,0.8-3.6,1.2-5.1s0.8-2.8,1.2-4s0.7-2.2,1-3
			c0.3-0.8,0.5-1.5,0.6-2c0.2-1,0.1-1.8-0.1-2.2S445.9,810,445,810z M396.6,823.7c-0.3,0.5-0.6,1-1,1.5s-0.8,0.8-1.3,1
			c-0.5,0.3-1,0.4-1.5,0.4c-0.5,0-0.9-0.1-1.2-0.4c-0.3-0.3-0.6-0.6-0.8-1s-0.3-0.9-0.4-1.5c-0.1-0.5-0.1-1.1-0.1-1.7
			s0.1-1.2,0.2-1.8c0.1-0.6,0.3-1.3,0.5-1.9c0.5,1.1,1.1,2,2,2.7s1.9,1.1,3.1,1.1c0.2,0,0.5,0,0.7,0c0.2,0,0.4,0,0.6-0.1
			C397.1,822.6,396.8,823.2,396.6,823.7z M398.5,817.2c0,0.3,0,0.5-0.1,0.9s-0.2,0.7-0.3,1.1c-0.2,0-0.3,0.1-0.5,0.1
			c-0.2,0-0.3,0-0.5,0c-1,0-1.7-0.1-2.3-0.4c-0.5-0.3-0.9-0.7-1.2-1.1c-0.2-0.4-0.4-0.9-0.5-1.5c-0.1-0.5-0.1-1.1-0.1-1.6
			c0-0.3,0-0.6,0.1-0.9c0.5-0.6,1-1.1,1.5-1.4s1.1-0.5,1.7-0.5c0.4,0,0.7,0.2,1,0.5s0.5,0.8,0.7,1.3s0.3,1.1,0.4,1.7
			C398.6,816,398.6,816.6,398.5,817.2z M418.7,818.3c-0.1,0.6-0.2,1.2-0.4,1.8c-0.3,0.4-0.8,1-1.3,1.6s-1.1,1.3-1.8,1.9
			c-0.6,0.6-1.3,1.2-2,1.6c-0.7,0.4-1.3,0.7-1.9,0.7c-0.8,0-1.3-0.3-1.8-1s-0.6-1.7-0.6-3.2c0.1-0.9,0.3-2,0.8-3.2
			c0.4-1.2,1-2.3,1.6-3.4c0.7-1,1.4-1.9,2.1-2.7c0.8-0.7,1.5-1.1,2.2-1.1c0.5,0,0.9,0.2,1.2,0.6c0.3,0.4,0.5,0.8,0.6,1.4
			s0.2,1,0.3,1.5c0,0.5,0,0.8,0,1c0,0.4,0.1,0.6,0.2,0.8c0.1,0.2,0.4,0.2,0.7,0c0.1,0,0.1-0.1,0.2-0.1c0,0,0.1-0.1,0.2-0.1
			C419,817.1,418.8,817.7,418.7,818.3z"/>
	</g>
	<g>
		<g>
			<path class="st6" d="M529.3,51.1c-164.8,0-298.4-7.1-298.4-15.9L228.2,62c-1.4,14.1,9.5,26.3,23.6,26.5
				c0,0,121.3,17.3,255.8,19.4S803.8,97,803.8,97c13.1,0.2,23.8-10.4,23.8-23.5V35.3C827.6,44,694,51.1,529.3,51.1z"/>
			<g>
				<path d="M531.8,44.3c-56.6,0-113.3-0.7-169.9-2.8c-35.9-1.3-72.2-2.4-107.9-7.2c-4.9-0.7-9.8-1.4-14.5-2.6
					c-1.7-0.4-0.9-0.3-3-1.1c-2-0.7-0.3-0.6-0.2,1.7c-0.5-8.5-10.2-0.5-10.7,4.3c-0.7,7.3-1.5,14.7-2.2,22
					c-1.1,10.6-0.7,20.9,7.5,28.9c8.7,8.6,23,8.6,34.5,10c54.7,6.9,109.7,11.7,164.7,14.6c70.8,3.8,141.7,3.3,212.6,0.7
					c48.5-1.8,97-4.5,145.4-8c4-0.3,8-0.7,12-0.9c9.6-0.6,17.6-3.4,24.1-10.7c7.1-7.9,8.7-17.4,8.7-27.6c0-9,0-18,0-27
					c0-2.1,0-4.2,0-6.4c0-3.3-2.7-4.6-5.5-3.2c-3.3,1.6-5.1,5.7-5.3,9.2c0.2-2.9,2.2-5.8,3.2-7.1c1.7-2.3,0.9,0,0.1-0.2
					c-0.2-0.1,1.3-0.4-0.2,0.1c-0.8,0.2-1.6,0.5-2.4,0.7c-3.9,1-7.9,1.7-11.9,2.2c-13.7,2-27.6,3.1-41.4,4
					c-45.7,3.2-91.5,4.5-137.3,5.4C598.8,44,565.3,44.3,531.8,44.3c-5.8,0-11.6,13.7-5.2,13.7c59.1,0,118.3-0.8,177.4-3.1
					c35.7-1.4,72.1-2.2,107.4-7.9c8.9-1.5,20.8-3.3,21.5-14.7c-3.6,2-7.2,4-10.8,6c0,12.7,0.5,25.6,0,38.3
					c-0.6,14.2-16.1,13.6-26.6,14.4c-44.4,3.3-88.9,5.8-133.4,7.6c-66.5,2.7-133.2,3.9-199.7,1.2c-58.7-2.4-117.3-7.1-175.7-13.9
					c-10.7-1.3-21.4-2.9-32.2-4.1c-10.4-1.1-20.2-7.1-21.2-18.6c-0.5-6.3,1.2-14.6,1.9-21.5c0.3-2.6,0.5-5.1,0.8-7.7
					c-3.6,1.4-7.1,2.9-10.7,4.3c0.4,6.9,10.5,7.6,15.7,8.5c13.3,2.3,26.8,3.4,40.2,4.4c47,3.6,94.3,4.9,141.4,5.8
					c34.6,0.7,69.3,1,103.9,1C532.5,58,538.3,44.3,531.8,44.3z"/>
			</g>
		</g>
		<g>
			<ellipse class="st6" cx="529.3" cy="28.2" rx="298.4" ry="21.3"/>
			<g>
				<path d="M526.7,56.3c59.1,0,118.3-1,177.4-4.2c21.3-1.1,42.6-2.5,63.8-4.6c14.4-1.4,28.9-2.9,43-5.9c7.3-1.6,16.5-3.4,20.5-10.6
					c5.2-9.3-2.7-12.9-10.2-15c-11.6-3.3-23.9-4.6-35.9-6c-20-2.3-40.1-3.8-60.1-5c-56.5-3.4-113.1-4.7-169.6-5
					c-60.4-0.3-120.8,0.5-181.2,3.1c-39.3,1.7-79.2,3.3-118,9.8c-8.1,1.4-18.8,2.4-25.5,7.8c-6.4,5.2-7.5,14,0.6,17.4
					c9.5,4.1,20.6,5.2,30.7,6.6c18.2,2.5,36.6,4,54.9,5.3c54.2,3.8,108.5,5.3,162.8,5.9C495.4,56.3,511.1,56.3,526.7,56.3
					c5.8,0,11.6-13.7,5.2-13.7c-56.6,0-113.3-1-169.9-3.8c-35.7-1.8-72-3.3-107.2-9.6c-4.6-0.8-9.2-1.7-13.6-3.1
					c0.7,0.2-1.2-0.4-1.6-0.6c-0.5-0.2-1.1-0.4-1.6-0.7c-0.5-0.3-1-0.5-1.5-0.8c-0.2-0.1-0.4-0.3-0.6-0.4c0,0,0.1,0.3,0.2,0.1
					c0,0-0.2-0.3-0.2-0.3c0-0.7,0.2,1.3,0.3,0.6c-0.2,1.7-0.2,3.7-1,5.3c-0.7,1.3-1.4,2.5-2.5,2.7c0.4-0.1,1-0.6,1.4-0.8
					c0.3-0.1,0.6-0.3,0.9-0.4c1.1-0.5-1.3,0.5,0,0c0.7-0.3,1.4-0.5,2.2-0.7c2-0.6,4.1-1.2,6.2-1.6c12.6-2.9,25.5-4.3,38.3-5.6
					c19.6-2,39.2-3.4,58.9-4.5c112.2-6.4,225.1-6.4,337.3-1.7c39.1,1.6,78.5,3.4,117.2,9c8.5,1.2,18.9,2.3,25.8,5.9
					c0.4,0.2,0.8,0.5,1.2,0.7c1.2,0.7,0.2,0.2,0.3,0.1c0.6-0.3-0.2,1.8,0-0.2c0.2-1.8,0.1-3.7,1-5.3c0.7-1.3,1.5-2.5,2.5-2.7
					c-0.4,0.1-1,0.6-1.4,0.8c-0.3,0.2-2.2,0.9-0.5,0.3c-0.9,0.3-1.8,0.7-2.7,0.9c-10.4,3.2-21.6,4.5-32.4,5.8
					c-17.9,2.2-35.9,3.6-54,4.8c-52.6,3.5-105.3,4.9-158,5.5c-15,0.2-30,0.2-45,0.2C526,42.6,520.3,56.3,526.7,56.3z"/>
			</g>
		</g>
	</g>
	<g>
		<path d="M785.5,806.7c11.6-0.3,22.8-3.1,30.1-12.8c7.3-9.7,8.6-22,8.6-33.7c0-3.3-2.7-4.6-5.5-3.2c-3.1,1.6-5.3,5.8-5.3,9.2
			c0,6.4,0.1,15.5-3.6,20.4c-4,5.3-12.7,6.3-19.1,6.4C784.8,793.1,779.1,806.9,785.5,806.7L785.5,806.7z"/>
	</g>
	<g>
		<path d="M778.5,781.7c9.3,1.9,16.9-2.5,20-11.6c2.6-7.5,0.8-15.4-0.1-23c-1.1-8.8-11.6,0.2-10.8,6c0.6,4.7,1.7,9.6,1.5,14.4
			c0,0.3-0.1,2.8-0.3,2.7c0,0,1.1-3.3,1.3-1.9c0.1,0.6-5.6-0.2-6.3-0.3C778,766.9,771.8,780.4,778.5,781.7L778.5,781.7z"/>
	</g>
	<g>
		<path d="M282.9,158.9c-35.7-1.5-41.1,40.4-43.1,67.3c-0.2,3.4,2.9,4.5,5.5,3.2c3.3-1.6,5.1-5.7,5.3-9.2
			c0.9-12.2,1.7-25.9,7.2-37.2c3.8-7.8,10.9-10.8,19.9-10.4C283.6,172.9,289.4,159.2,282.9,158.9L282.9,158.9z"/>
	</g>
	
		<rect x="14.4" y="222.4" transform="matrix(0.9535 -0.3014 0.3014 0.9535 -80.1123 177.7469)" class="st7" width="1043.3" height="252.2"/>
	<g>
		<path class="st8" d="M328.3,391.9c-1.6,0.4-3.1,1-4.5,1.9c-1.3,0.7-2.7,1.8-4.2,3.1c-1.5,1.3-3,3-4.3,5c3,1.7,4.8,4,5.5,7.1
			c0.6,3,1.3,7.3,2,12.8c0.1,2.9,0,6.3-0.4,10.1c-0.4,3.8-1,7.8-1.8,11.9c-0.8,4.1-1.8,8.3-2.9,12.4c-1.2,4.2-2.5,7.9-4,11.3
			c-1.5,3.4-3.1,6.3-4.8,8.6c-1.7,2.3-3.5,3.8-5.4,4.4c-3.8,1.2-6.8,0.3-9-2.8c-2.2-3.1-3.7-8-4.4-14.7c-0.3-1.4-0.4-4-0.3-7.7
			c0.1-3.7,0.2-7.7,0.4-12.1c0.2-4.4,0.3-8.6,0.4-12.8c0.1-4.1,0-7.5-0.2-10c-0.3-4.9-1.1-8.3-2.5-10.4c-1.3-2-4-2.8-8-2.1
			c-1.6,0.4-3.1,0.8-4.6,1.5c-1.3,0.7-2.8,1.6-4.4,2.7c-1.6,1.1-3.2,2.5-4.8,4.4c2.8,1.9,4.4,4.9,4.8,8.9c0.4,4,0.6,9,0.6,14.9
			c-0.1,1.3-0.1,3.3,0,6.2c0,2.8,0.2,6,0.3,9.5c0.1,1.5,0.2,3,0.3,4.6c-1.5,3.6-3.2,7.3-5,11.1c-2.2,4.6-4.4,8.8-6.7,12.8
			c-2.3,4-4.7,7.3-7.2,10c-2.5,2.7-4.8,4.3-7,4.7c-2.7,0.7-5.2,0.6-7.6-0.4c-2-0.9-4-2.8-6.1-5.6c-2.1-2.8-3.6-7.4-4.7-13.7
			c1-9.6,1.8-18.6,2.4-27c0.6-8.4,1-15.8,1.3-22.2c0.3-7.4,0.5-14.2,0.5-20.4c0.1-2.7,0-5.2-0.2-7.5c-0.2-2.3-0.4-4.7-0.5-7.1
			c1.1-0.4,2.2-0.7,3.2-1.1c1-0.4,2-0.7,2.8-1c4.5-1.4,8.5-2.5,11.9-3.3c3.5-0.8,6.5-1.4,9-1.9c2.5-0.5,4.8-0.8,6.7-0.9
			c1.9-0.1,3.6-0.3,5-0.7c1.5-0.2,2.7-0.8,3.5-2c0.9-1.2,1.3-2.5,1.5-3.8c0.1-1.3,0-2.6-0.5-3.7c-0.4-1.1-1.2-1.6-2.2-1.6
			c-1.1,0-2.7,0-4.9-0.2c-2.2-0.1-5.1-0.1-8.5,0.1c-3.5,0.3-7.6,0.8-12.4,1.6c-4.8,0.8-10.1,2.2-16,4c-0.9-7.6-2-13.8-3.3-18.5
			c-1.3-4.7-2.5-7.5-3.6-8.4c-1-0.6-2.3-0.8-3.9-0.5c-1.6,0.3-3.2,0.8-4.9,1.5c-1.6,0.7-3.1,1.6-4.4,2.6c-1.3,1-2.1,1.9-2.3,2.7
			c-0.8,2.4-1.3,6.4-1.4,11.9c-0.2,5.6-0.1,12,0.2,19.3c-2.3,1.2-4.6,2.3-6.9,3.4c-2.4,1.1-4.9,2.1-7.5,3.1c-2.6,0.9-5,1.7-7.3,2.3
			c0-0.4-0.1-0.8-0.1-1.3c-0.5-4.7-1.7-9.6-3.6-14.8c-1.9-5.1-5.1-9.5-9.5-13.2c-10.9-9.9-26.9-9-48.1,2.7
			c-3.8,2.1-7.9,5.6-12.2,10.3c-4.3,4.8-7.9,10.3-10.8,16.6c-2.9,6.3-4.6,13.2-5.1,20.5c-0.5,7.4,1,14.8,4.6,22.3
			c2.6,5.4,5.9,10,9.9,14c4,4,8.2,7.6,12.5,10.7c4.4,3.1,8.7,5.9,13,8.3c4.3,2.4,8,4.8,11.2,7c3.2,2.2,6.5,5.1,10,8.6
			c3.5,3.5,6.7,7.4,9.5,11.7c2.8,4.4,5.1,9.2,6.6,14.4c1.6,5.2,2,10.8,1.2,16.6c-2,18.6-8.2,29.4-18.6,32.3c-4.3,1.2-8.1,1-11.4-0.7
			c-3.3-1.7-6.2-4-8.6-7c-2.4-3-4.3-6.4-5.7-10c-1.4-3.7-2.2-6.9-2.5-9.8c0-0.9,0.1-2,0.3-3.4c0.2-2.4,0.9-5.1,2.3-8.2
			c-1.7-0.1-3.5,0.2-5.2,0.8c-1.7,0.6-3.3,1.3-4.8,2.1c-1.7,1-3.4,2.1-5,3.2c-1.3,1.2-2.6,2.4-3.7,3.7c-1,1.1-2,2.4-3,3.7
			c-1,1.4-1.8,2.9-2.5,4.5c0,5.4,1.1,10.3,3.3,14.6c2.2,4.3,4.7,8,7.3,11c3,3.5,6.5,6.6,10.6,9.2c3.5,2.3,7.1,3.7,10.8,4.1
			c3.7,0.5,7.2,0.4,10.5-0.1c3.3-0.5,6.4-1.4,9.1-2.7c2.8-1.3,5.1-2.4,7.1-3.5c2.5-1.4,5.5-3.7,9-6.9c3.5-3.2,6.6-7.5,9.2-13
			c2.7-5.5,4.6-12.2,5.8-20.3c1.2-8,0.9-17.5-0.9-28.4c-1.3-7.5-3.3-14-6-19.7c-2.7-5.6-5.9-10.5-9.5-14.6
			c-3.6-4.1-7.4-7.6-11.5-10.5c-4-2.9-7.9-5.4-11.7-7.6c-3.8-2.1-7.2-4-10.4-5.7c-3.1-1.6-5.6-3.3-7.3-4.9c-1.3-1.1-2.7-2.5-4.3-4
			c-1.6-1.5-3.1-3.2-4.6-5c-1.5-1.8-2.9-4-4.2-6.3c-1.3-2.4-2.3-5.1-2.9-8.1c-0.9-3.7-0.8-7.7,0.3-11.9c1.1-4.2,2.7-8.2,4.9-12.1
			c2.2-3.9,4.8-7.5,7.8-10.8c3-3.4,6.1-6.1,9.2-8.3c3.1-2.1,6.1-3.5,8.9-4.2c2.8-0.7,5.2-0.4,7.1,0.9c3.4,2.5,6,5.4,7.6,8.7
			c1.7,3.3,2.8,6.8,3.4,10.5c0.6,3.7,0.9,7.4,0.7,11c-0.2,3.7-0.4,7-0.8,10c-0.4,3-0.8,5.5-1.2,7.6c-0.4,2.1-0.5,3.3-0.2,3.7
			c1,0.2,2,0.1,3.2-0.1c1.2-0.2,2.2-0.5,3.2-0.8c1.1-0.4,2.2-0.8,3.2-1.5c3.8-2.1,6.5-4,8-5.5c1.5-1.6,2.6-2.9,3.1-4
			c0.2-0.3,0.5-1.3,0.7-3c3.1-0.4,6.3-1.1,9.5-2.1c2-0.6,4.1-1.4,6.4-2.5c2.3-1,4.6-2.1,6.9-3.1c0.6,8.8,1.4,17.8,2.4,27.2
			c1,9.3,2,18.1,3.1,26.2c1,8.1,2,15.2,3,21.3c1,6.1,1.8,10.3,2.4,12.6c0.6,2.8,1.7,5.6,3.4,8.6c1.7,2.9,3.9,5.5,6.5,7.6
			c2.6,2.1,5.7,3.6,9.4,4.5c3.7,0.8,7.8,0.5,12.5-0.9c3.2-1,6.7-4.1,10.4-9.1c3.7-5,7.2-11,10.5-18.1c1.2-2.6,2.4-5.2,3.5-7.8
			c2,7,5.1,12.2,9.5,15.7c4.6,3.6,10.9,4.8,18.8,3.3c3.2-0.6,6.1-1.8,8.7-3.8c2.5-2,4.8-4.3,6.7-7.1c1.9-2.8,3.5-5.8,4.8-9.2
			c1.3-3.3,2.3-6.8,3.2-10.3c0.2,3,0.4,6.1,0.7,9.2c0.3,3.1,0.5,6.2,0.8,9.4c0.3,7.2,0.6,15.3,1.2,24.2c0.3,7.8,0.7,16.9,1.4,27.4
			c0.6,10.5,1.2,22.1,1.7,35c1,1.4,2.1,2.4,3.3,3c1.1,0.6,2.2,1.2,3.1,1.7c1.1,0.4,2.2,0.8,3.3,1c2.9,0.3,5.4-0.2,7.5-1.5
			c2.1-1.3,3-3.8,2.6-7.6c-1.9-15.2-3.4-28.7-4.6-40.6c-1.2-11.8-2.2-22-3-30.4c-0.9-9.6-1.6-18.2-2.1-25.6c-1-9-1.6-17.1-1.8-24.5
			c-0.2-7.4-0.3-13.9-0.3-19.7s0.1-10.7,0.2-14.8c0.1-4.1,0-7.3-0.3-9.9c-0.8-4.9-1.9-8.2-3.5-10C334.9,391.4,332.2,391,328.3,391.9
			z"/>
		<path class="st8" d="M375.5,311.7c-0.6-2.1-1.4-3.4-2.5-3.9c-0.5-0.6-1.3-0.9-2.3-0.8c-1.1,0.1-2.1,0.3-3.3,0.7
			c-1.3,0.4-2.6,1-4.1,1.8c-1.5,0.8-2.9,1.6-4.3,2.5c-1.2,0.7-2.4,1.4-3.6,2.3c-1.2,0.8-2.3,1.8-3.2,2.9c1,1.8,1.9,4,2.7,6.3
			c0.8,2.4,1.3,4.8,1.8,7.1c0.5,2.6,1,5.3,1.4,8.1c0.4,4.1,1,11.4,1.8,21.9c0.7,8.9,1.6,21.9,2.9,38.8c1.3,16.9,2.9,39.4,4.9,67.4
			c0.9,1.4,1.9,2.4,3.1,3.1c1.1,0.6,2.2,1.1,3.2,1.4c1.2,0.3,2.3,0.4,3.4,0.3c1.2-0.2,2.2-0.5,3.2-0.8c0.8-0.3,1.7-0.7,2.6-1.3
			c0.9-0.6,1.6-1.4,2.1-2.3c-1.6-27.5-2.9-50.3-3.9-68.4c-1-18.1-1.8-32.4-2.3-42.9c-0.6-12.3-1.1-21.8-1.3-28.4
			c-0.3-3.3-0.6-6.4-0.8-9.3C376.6,316.1,376.1,313.9,375.5,311.7z"/>
		<path class="st8" d="M989.3,222.1c-0.8-0.4-1.8-0.4-2.8,0c-1,0.4-1.9,1.3-2.5,2.8c-0.8,1.5-1.7,3.5-2.8,6c-1.1,2.5-2.2,5.2-3.5,8
			c-1.3,2.8-2.6,5.6-4.1,8.4c-1.4,2.8-2.8,5.1-4,7.1c-5.5,8.4-10,13.8-13.3,16.2c-3.4,2.4-6,2.6-8,0.8c-1.5-1.4-2.3-3.3-2.3-5.8
			c0-2.5,0.1-5.5,0.4-9.2c0.4-5.2,0.7-9.8,0.9-13.7c0.2-3.9,0.3-7.5,0.2-10.6c-0.1-3.1-0.2-6-0.5-8.5c-0.3-2.5-0.8-4.9-1.5-7.2
			c-1-3.7-2.3-6.7-3.7-8.9c-1.5-2.2-3.1-3.9-4.9-4.9c-1.8-1.1-3.7-1.6-5.6-1.7c-2-0.1-3.9,0.2-5.9,0.8c-3.8,1.2-7.1,3.1-10,5.8
			c-2.9,2.7-5.4,5.7-7.7,9.2c-2.2,3.4-4.2,7-5.8,10.8c-1.6,3.8-2.9,7.3-3.8,10.7c-0.8-13.2-1-25.8-0.8-37.7
			c0.3-11.9,0.1-24-0.6-36.4c-0.3-3.3-0.6-6.4-0.8-9.3c-0.4-2.3-0.9-4.6-1.5-6.7c-0.6-2.1-1.4-3.4-2.5-3.9c-0.5-0.6-1.3-0.9-2.3-0.8
			c-1.1,0.1-2.1,0.3-3.3,0.7c-1.3,0.4-2.6,1-4.1,1.8c-1.5,0.8-2.9,1.6-4.3,2.5c-1.2,0.7-2.4,1.4-3.6,2.3c-1.2,0.8-2.3,1.8-3.2,2.9
			c1,1.8,1.9,4,2.7,6.3c0.8,2.4,1.3,4.8,1.8,7.1c0.5,2.6,1,5.3,1.4,8.1c0.4,4.1,1,11.4,1.8,21.9c0.7,8.9,1.6,21.8,3,38.7
			c0.5,5.9,1,12.5,1.5,19.7c-0.6,0.9-1.1,2-1.4,3.2c-0.8,2.4-2.2,5.6-4.2,9.6c-2,4-4.4,8.2-7.1,12.8c-2.7,4.6-5.7,9.2-8.9,13.7
			c-3.2,4.6-6.4,8.6-9.6,12.1c-0.5-6-1-12.2-1.6-18.5c-0.5-6.3-1-12.1-1.3-17.4c-0.4-5.3-0.7-9.9-1.1-13.7c-0.4-3.8-0.6-6.3-0.6-7.4
			c-0.1-2.9-0.2-5.1-0.2-6.7c0-1.5,0-2.8,0.2-3.9c0.1-1,0.3-2.1,0.4-3c0.2-1,0.3-2.3,0.6-4.1c-0.2-0.6-1-1-2.6-1.3
			c-1.6-0.3-3.3-0.1-5.3,0.5c-3.5,1.1-5.9,2.8-7.1,5.1c-1.2,2.3-1.8,6.1-1.6,11.3c-0.1,0.8,0,1.7,0.1,2.6c0.1,1,0.2,1.9,0.2,2.8
			c-1.1-2.1-2.5-4.3-4.2-6.7c-1.7-2.3-3.6-4.4-5.9-6.3c-2.3-1.8-4.8-3.2-7.5-4c-2.7-0.8-5.7-0.8-8.8,0.2c-6.6,2.1-11.9,6-16,11.8
			c-4.1,5.8-7,12.2-8.8,19.2c-1.8,7.1-2.6,14.3-2.4,21.7c0.1,3.6,0.3,7,0.8,10.1c-1.1,3-2.4,6.2-3.8,9.5c-1.8,4.4-3.7,8.4-5.6,12.2
			c-2,3.8-4,7.1-6.1,9.8c-2.1,2.7-4.1,4.4-6.1,5c-1.1,0.4-2.2,0.4-3.3,0.2c-1.1-0.2-2.1-0.9-3.2-2c-1.1-1.1-2.2-2.9-3.4-5.3
			c-1.2-2.4-2.6-5.7-4.3-9.8c0.4-1.2,0.8-2.5,1.3-4c0.5-1.5,0.8-3.3,1.1-5.4c0.2-2.2,0.4-4.8,0.4-7.8c0-3-0.1-6.7-0.3-10.9
			c-0.1-5.2-0.7-10.1-1.9-14.7c-1.1-4.6-2.1-8-2.8-10.3c-0.4-1.3-1.5-1.8-3.3-1.7c-0.6,0-1.3,0.1-2.1,0.3c-0.8,0.2-1.7,0.5-2.8,1
			c-2.8,1-4.7,2.1-5.7,3.3c-1,1.2-1.8,3.7-2.3,7.6c-0.3,2-0.6,4.6-0.9,7.9c-0.3,3.3-0.3,7-0.2,11.1c0.1,4.1,0.5,8.4,1.1,12.9
			c0.6,4.5,1.6,9.1,3,13.6c0.8,2.4,1.7,4.6,2.8,6.8c-1.4,5.3-3.4,9.8-5.9,13.6c-2.5,3.8-5.6,6.3-9.2,7.4c-5.6,1.8-9.9,1.3-12.7-1.3
			c-2.9-2.7-4.9-7.3-6.2-13.8c-0.6-2.9-1-6.9-1.2-11.9c-0.2-4.4-0.2-10.2,0-17.4c0.1-7.2,0.6-16.2,1.3-27.1
			c-1.3-0.1-2.6,0.1-3.9,0.5c-1.3,0.4-2.6,0.9-3.8,1.4c-1.5,0.8-2.8,1.5-4.2,2.2c-3.3,2.3-5.5,5.3-6.6,8.9
			c-1.1,3.7-1.6,7.7-1.6,12.2c0,0.5,0,1.5,0,2.9c-1.8,2.4-3.7,4.7-5.7,7.1c-2.7,3.1-5.5,6.1-8.4,9c-2.9,2.9-5.8,5.6-8.7,7.8
			c-0.2-1.2-0.5-2.6-0.9-4.2c-0.4-1.7-0.7-3.1-1.1-4.2c-1.7-5.5-4.1-9.9-7.2-13.2c-3.1-3.3-6.3-5.8-9.7-7.5
			c-3.4-1.7-6.7-2.8-9.8-3.2c-3.1-0.4-5.7-0.4-7.5,0.1c-0.5,0-0.9,0-1.3-0.1c-0.4,0-0.8,0-1.2,0.2c-2.5,0.8-5,1.9-7.5,3.4
			c-2.5,1.5-4.7,3.2-6.6,5.1c-1.9,1.9-3.5,4.1-4.7,6.5c-1.2,2.4-1.8,4.9-1.9,7.6c-1.5,3.6-2.6,7.3-3.3,11.3
			c-0.7,3.9-1.1,7.8-1.1,11.5c-0.1,3.7,0.1,7.3,0.5,10.8c0.2,2.1,0.6,4.1,1,5.9c-1.4,3.1-2.9,6.4-4.5,9.9c-2.1,4.5-4.3,8.8-6.6,12.8
			c-2.3,4-4.6,7.4-6.8,10.3c-2.3,2.9-4.4,4.6-6.3,5.3c-1.7,0.5-3.5,0.3-5.4-0.9c-1.9-1.1-3.3-3.4-4.3-7c-0.6-2.4-1.2-5.7-1.8-9.9
			c-0.6-4.1-1.3-8.5-1.9-13.1c2.4-8.5,4.4-17.3,5.9-26.4c1.5-9.1,2.6-18,3.3-26.8c0.6-8.8,0.7-17.1,0.3-25c-0.4-7.9-1.5-15-3.1-21.3
			c-1.3-5.2-2.6-9.2-3.8-12c-1.2-2.9-2.4-4.9-3.7-6.1c-1.2-1.2-2.5-1.8-3.7-1.8c-1.2,0-2.6,0.2-4,0.7c-1.1,0.4-2.3,0.9-3.4,1.8
			c-1,0.6-2.1,1.4-3.2,2.4c-1.1,1-2.2,2.2-3.2,3.8c0.1,8.2,0.3,15.9,0.6,23.2c0.3,7.3,0.6,13.8,0.8,19.5c0.4,6.5,0.7,12.6,0.9,18.3
			c0.3,3.8,0.6,7.8,1,12c0.4,4.2,0.8,8.5,1.1,12.9c-1-1.8-2.4-3.7-4-5.7c-1.6-2-3.4-3.7-5.4-5.1c-2-1.5-4.2-2.5-6.5-3
			c-2.3-0.6-4.7-0.5-7.1,0.3c-5.5,1.7-10.4,5-14.9,9.9c-4.4,4.9-7.9,10.7-10.5,17.5c-2.6,6.8-4.1,14.3-4.6,22.5
			c-0.3,4.6-0.1,9.3,0.4,13.9c-2.8,5.8-5.9,11.6-9.5,17.3c-3.6,5.9-7.6,11.1-11.8,15.8c-4.2,4.7-8.8,7.8-13.5,9.3
			c-2.3,0.7-4.6,1.1-6.9,1.2c-2.4,0.1-4.6-0.4-6.8-1.3c-2.2-0.9-4.2-2.4-6.1-4.5c-1.9-2-3.4-4.8-4.7-8.3c1.6-2.2,3.5-4.7,5.8-7.5
			c2.2-2.8,4.5-5.7,7-8.8c2.2-2.9,4.5-6,6.9-9.4c2.4-3.4,4.6-7,6.4-10.9c1.9-3.8,3.3-7.9,4.1-12.2c0.9-4.3,0.8-8.7-0.1-13.2
			c-1-4-3.1-7-6.3-8.9c-3.2-1.9-7.5-2-12.9-0.3c-5.6,1.8-10.7,5.3-15.1,10.6c-4.4,5.3-8,11.3-10.8,18c-2.7,6.7-4.6,13.8-5.6,21.2
			c-1,7.4-0.9,14,0.4,20c1.5,7.3,3.9,13.1,7.3,17.4c3.3,4.4,6.9,7.6,10.9,9.8c3.9,2.2,7.9,3.4,12,3.8c4.1,0.3,7.6,0,10.7-1
			c5.9-1.9,11.5-5.2,16.9-10c5.4-4.8,10.3-10.4,14.9-16.9c3.7-5.3,7-10.9,10-16.8c1.2,3.7,2.7,6.8,4.4,9.4c2.3,3.3,4.7,5.8,7.1,7.5
			c2.5,1.7,5,2.7,7.5,3c2.6,0.3,4.8,0.1,6.8-0.5c5.5-1.7,10.6-5.5,15.4-11.2c4.8-5.8,9-12.9,12.9-21.4c0.5,2.5,0.8,4.2,1,5.3
			c0.6,2.3,1.6,4.4,3.1,6.5c1.5,2,3.2,3.7,5.2,5.1c2,1.4,4,2.4,6.1,2.9c2.1,0.6,4.2,0.5,6.1-0.1c2.7-0.8,5.4-2.7,8.1-5.5
			c2.7-2.8,5.5-6.2,8.2-10.1c2.7-3.9,5.3-8.3,7.7-13.1c2.1-4.1,4-8.2,5.8-12.4c0.4,1,0.8,2.1,1.3,3.2c1.7,4.3,4,7.9,6.8,11.1
			c2.8,3.1,6.2,5.4,10.3,6.8c4.1,1.4,9,1.2,14.8-0.6c4.9-1.6,9.2-3.9,12.7-7.1c3.5-3.2,6.4-7,8.7-11.4c2.2-4.4,3.8-9.3,4.7-14.7
			c0.9-5.4,1.2-11,1-16.8c3.8-2.7,7.5-6.2,11.3-10.5c3.8-4.3,7.1-8.5,10.1-12.7c0.1-0.1,0.1-0.2,0.2-0.2c0,0.3,0,0.6,0.1,1
			c0.3,4.3,0.8,8.9,1.6,13.9c0.8,4.9,1.8,9.5,3.2,13.7c0.8,2.4,2,4.9,3.7,7.5c1.7,2.6,3.9,4.9,6.5,6.8c2.7,1.9,6,3.1,9.9,3.7
			c3.9,0.6,8.5,0.1,13.9-1.6c5.3-1.7,9.8-4.6,13.3-8.7c3.5-4.1,6.1-9.2,7.7-15.3c3.1,4.4,6.2,7.6,9.2,9.5c3,1.9,6.4,2.3,10.2,1.1
			c4.2-1.3,8.2-4.4,11.9-9.3c3.7-4.9,7.1-10.6,10.2-17.2c1.6-3.4,3.1-6.9,4.5-10.5c3,7.5,6.7,12.9,11.1,16.3
			c5.4,4.2,11.2,5.4,17.2,3.5c6.6-2.1,11.9-5.6,16-10.6c4.1-5,7.1-10.5,9.3-16.6c0.2,2.1,0.4,4.5,0.5,7.1c0.1,2.7,0.3,5.5,0.5,8.5
			c-2,3-4.1,6.2-6.2,9.6c-2.2,3.5-4.4,7.1-6.7,11c-4.8,7.7-8.8,14.1-11.8,19.3c-3,5.1-5.2,9.8-6.6,13.9c-1.4,4.2-2,8.2-1.8,12.3
			c0.2,4,1.2,8.9,3,14.5c1.3,4.1,3.2,8.3,5.8,12.8c2.6,4.4,5.6,8.4,9.2,11.8c3.6,3.4,7.4,6,11.6,7.7c4.2,1.7,8.6,1.8,13.2,0.3
			c3.1-1,5.5-3.3,7.1-6.9c1.6-3.6,2.8-8,3.5-13.1c0.7-5.1,1.1-10.7,1.1-16.8c0-6.1-0.2-12.2-0.7-18.2c-0.4-6-0.9-11.8-1.5-17.2
			s-1-9.9-1.4-13.5c-0.3-3.5-0.6-7.3-0.9-11.6c-0.3-4.2-0.7-9.8-1.3-16.5c2.6-3,5.7-6.8,9.3-11.4c3.6-4.6,7.1-9.8,10.7-15.4
			c3.5-5.7,6.9-11.7,10-18c0.4-0.8,0.8-1.7,1.2-2.5c0.6,8.8,1.3,18.4,2,28.8c0.9,1.4,1.9,2.4,3.1,3.1c1.1,0.6,2.2,1.1,3.2,1.4
			c1.2,0.3,2.3,0.3,3.6,0.3c1-0.2,2-0.4,3-0.7c0.8-0.3,1.7-0.7,2.6-1.3c0.9-0.6,1.7-1.4,2.3-2.3c-0.3-4.4-0.8-9.4-1.4-15
			c-0.6-5.6-1.1-10.8-1.6-15.6c-0.6-5.7-1.2-11.5-1.8-17.3c0.9-3.5,2-7.2,3.5-11.1c1.4-3.8,3-7.4,4.9-10.7c1.8-3.3,3.8-6.1,5.9-8.5
			c2.1-2.4,4.3-3.9,6.5-4.6c3.2-1,5.6,0,7,3c1.4,3,2.3,7,2.7,11.8c0.4,4.8,0.4,10,0.2,15.4c-0.2,5.4-0.3,10-0.1,13.9
			c0.2,6.1,0.9,11.1,2,14.8c1.1,3.8,3.4,6.8,7,9.3c4,2.8,7.4,3.7,10.3,2.8c2.9-0.9,6.1-3.2,9.5-7c3.1-3.3,6.2-7.2,9.3-11.8
			c3.1-4.5,6-9.2,8.9-14.2c2.9-4.9,5.4-9.9,7.7-14.9c2.3-5,4.2-9.7,5.7-14.2c0.6-1.9,0.8-3.5,0.5-4.8
			C990.7,223.4,990.1,222.5,989.3,222.1z M424.3,392.3c0.5-5.2,1.4-9.7,2.7-13.6c1.2-3.9,2.8-7,4.6-9.4c1.8-2.4,3.5-3.9,5.2-4.4
			c1.5-0.5,2.9-0.3,4.2,0.7c1.2,0.9,2.1,2.8,2.7,5.5c0.5,2.6,0.1,6.1-1.1,10.3c-1.3,4.3-4.2,9.7-8.8,16.2c-1.5,2.2-3,4.2-4.5,6.2
			c-1.5,2-3,3.8-4.3,5.6C423.9,403.2,423.8,397.5,424.3,392.3z M541.5,365.6c0.4,2.8,0.7,5.7,1,8.5c-0.9,2.5-2.2,5.6-3.7,9.3
			c-1.5,3.7-3.3,7.5-5.3,11.2c-2,3.7-4.2,7.1-6.6,10c-2.4,2.9-4.9,4.8-7.4,5.6c-3.4,1.1-6.5,0.4-9.4-1.9c-2.9-2.3-5.3-6.9-7.1-13.8
			c-1.1-4.3-1.4-9.4-1.2-15.4c0.3-6,1.2-11.8,2.6-17.4c1.5-5.6,3.4-10.7,5.7-15c2.3-4.4,5.1-7.1,8.3-8.1c2.2-0.7,4.3-0.4,6.1,1
			c1.8,1.4,3.4,3.1,4.8,5.2c1.4,2.1,2.5,4.3,3.3,6.4c0.8,2.1,1.4,3.6,1.6,4.5c0.5,1.7,1.2,2.8,2,3.4c0.8,0.6,1.9,0.3,3.2-0.9
			c0.2-0.2,0.4-0.4,0.6-0.7c0.2-0.2,0.4-0.4,0.6-0.7C540.9,359.8,541.2,362.7,541.5,365.6z M639,361.8c-0.6,2.9-1.4,5.5-2.5,8
			c-1.1,2.4-2.5,4.6-4.2,6.4c-1.7,1.9-3.9,3.2-6.4,4c-2.3,0.7-4.3,0.7-6.1-0.1c-1.8-0.7-3.4-1.9-4.8-3.6c-1.4-1.6-2.7-3.6-3.8-6
			c-1.1-2.4-2-4.8-2.8-7.4c-0.8-2.5-1.4-5.3-1.7-8.3c-0.3-3-0.5-6.1-0.6-9.3c3.7,4.3,7.9,7.4,12.8,9.3c4.9,1.9,10,2.1,15.3,0.4
			c1.1-0.4,2.1-0.7,3-1.1c0.9-0.4,1.8-0.8,2.7-1.2C639.9,356,639.5,358.9,639,361.8z M638.5,329.8c0.4,1.1,0.6,2.5,0.7,4.1
			c0.1,1.6,0.3,3.4,0.4,5.3c-0.7,0.4-1.3,0.7-2,1c-0.7,0.3-1.4,0.6-2.1,0.8c-4.4,1.4-8,1.8-10.9,1.2c-2.9-0.6-5.2-1.6-6.9-3.3
			c-1.7-1.6-3.2-3.6-4.2-6c-1.1-2.4-1.9-4.7-2.7-6.9c-0.4-1.4-0.7-2.8-0.6-4.2c1.3-3.3,2.9-6.1,4.9-8.4c2-2.3,4.3-3.8,7-4.6
			c1.7-0.5,3.4-0.3,5,0.8c1.7,1.1,3.2,2.7,4.8,4.8c1.5,2.1,2.8,4.5,4,7.2C637,324.3,637.9,327.1,638.5,329.8z M840.2,356.4
			c0.4,5.1,0.7,9.8,0.9,14.2c0.2,4.4,0.5,8.3,0.7,11.7c0.2,3.4,0.4,6,0.5,7.8c0.3,7.8,0.2,14-0.2,18.8c-0.5,4.7-2.1,7.5-4.9,8.4
			c-1.1,0.4-2.2,0.4-3.4,0c-1.1-0.3-2.3-1.3-3.4-2.7c-1.2-1.5-2.4-3.7-3.7-6.5c-1.3-2.8-2.7-6.6-4.1-11.2s-2.1-8.9-1.9-12.9
			c0.2-3.9,1-7.8,2.3-11.5c1.3-3.7,2.9-7.4,5-11.1c2-3.7,4.1-7.4,6.3-11.4c0.8-1.8,1.7-3.4,2.5-4.9c0.9-1.4,1.7-2.8,2.5-4.2
			C839.5,346.2,839.8,351.4,840.2,356.4z M834.1,277.5c0.2,2.1,0.2,4.3,0.1,6.7c-0.1,2.4-0.2,4.3-0.4,5.7c-0.3,1.5-0.8,3.5-1.6,6.1
			c-0.7,2.6-1.8,5.2-3.3,7.9c-1.5,2.7-3.3,5.2-5.4,7.6c-2.1,2.4-4.6,4-7.6,5c-5.3,1.7-9.4,1-12.3-2c-2.8-3.1-5.2-7.5-7-13.4
			c-1.5-4.8-2.4-10-2.7-15.8c-0.3-5.7,0.1-11.2,1.2-16.4c1.1-5.2,2.7-9.7,5-13.5c2.3-3.8,5.2-6.3,8.7-7.4c2.1-0.7,4.4-0.1,6.8,1.6
			c2.4,1.7,4.7,4.9,7,9.6c0.5,0.9,0.9,2,1.4,3.3c0.5,1.2,1,2.5,1.7,3.6c0.7,1.2,1.4,2.2,2.2,3c0.8,0.8,1.6,1.2,2.5,1.1
			c1-0.2,1.8,0.5,2.4,2C833.5,273.6,833.9,275.4,834.1,277.5z"/>
	</g>
</g>
</svg>
