<?xml version="1.0" encoding="utf-8"?>
<!-- Generator: Adobe Illustrator 25.2.3, SVG Export Plug-In . SVG Version: 6.00 Build 0)  -->
<svg version="1.1" id="Layer_1" xmlns="http://www.w3.org/2000/svg" xmlns:xlink="http://www.w3.org/1999/xlink" x="0px" y="0px"
	 viewBox="0 0 512 512" style="enable-background:new 0 0 512 512;" xml:space="preserve">
<style type="text/css">
	.st0{fill:#FFFFFF;}
	.st1{fill:#F6EBC1;}
	.st2{opacity:0.24;}
	.st3{fill:#AAA187;}
	.st4{fill:#9C9C9C;stroke:#000000;stroke-miterlimit:10;}
	.st5{opacity:0.21;}
	.st6{fill:#9C9C9C;}
	.st7{fill:#A9177A;stroke:#A9177A;stroke-miterlimit:10;}
</style>
<g>
	<polygon class="st0" points="95.8,76.9 86.1,83.8 81.5,98.4 75.1,171.4 75.8,316.7 79.6,449.8 85.4,468.3 91.2,471.4 140.9,492.8 
		197.9,505.8 265.2,505.8 325.3,497.9 378.9,482.5 432.4,463.5 437.2,455.3 436.9,356.5 436.9,231.5 433.4,163.5 430.4,116.4 
		426.4,89.4 419,77.9 398.3,61.9 385.3,42.9 133.5,42.9 	"/>
	<path class="st1" d="M438.2,343.1c-0.1-6.4-0.2-12.8-0.3-19.2c0-1.1-0.6-2.1-1.7-2.4c-6.8-2-10.6-3.1-17.7-3.1
		c-19.4-35.4-69.2-43.6-104.5-30.8c-10,3.6-19.4,9.2-27.1,16.5c-26-13.5-64.7-9.7-82.5,15.6c-3.4,4.8-5.6,10.3-6.5,16
		c-16.9-5.3-37-2.7-50.3,9.4c-17.2-18.9-45.3-24.8-69.7-20.3c-1.4,0.3-2.1,1.9-2.1,3.2c0.8,35,2.2,70,3.9,104.9
		c0.3,7.1,1,14.3,0.6,21.4c0,0.1,0,0.2,0,0.3c0,7.9,7.2,15.2,13.2,19.3c2.9,2,6,3.2,9.4,4.2c0.6,0.2,0.1,0,0.8,0.3
		c0.5,0.2,1.1,0.4,1.6,0.7c7.3,3.3,14.3,7.1,21.7,10.2c31.6,13.3,65.1,16,99.3,16.5c36.2,0.5,72.1-2.9,107.5-10.5
		c21.6-4.7,42.7-11.3,63.6-18.3c11.9-4,20.2-7.7,31.9-12.3c8.4-3.3,7.8-11.9,8-19.4C438.2,410.5,438.6,377.8,438.2,343.1z"/>
	<g class="st2">
		<ellipse class="st3" cx="324.5" cy="337.9" rx="3.2" ry="3"/>
		<ellipse class="st3" cx="95.8" cy="349.4" rx="4.1" ry="3.9"/>
		<ellipse class="st3" cx="218.4" cy="430.8" rx="3.5" ry="3.3"/>
		<ellipse class="st3" cx="278.8" cy="489.4" rx="3.5" ry="3.3"/>
		<ellipse class="st3" cx="242.4" cy="330.9" rx="4.2" ry="4"/>
		<ellipse class="st3" cx="410.2" cy="356.5" rx="4.2" ry="4"/>
		<ellipse class="st3" cx="358.4" cy="364" rx="3" ry="2.9"/>
		<ellipse class="st3" cx="125" cy="459.8" rx="3.9" ry="3.7"/>
		<ellipse class="st3" cx="179.6" cy="382.4" rx="6.3" ry="5.9"/>
		<ellipse class="st3" cx="321.4" cy="401.4" rx="7.5" ry="7.1"/>
	</g>
	<g>
		<path d="M115.9,37.1c0.1,2.5-0.8,4.7-1.1,7.1c-0.2,1.6-0.3,3.3-0.5,4.9c-0.5,4.4-1.3,7.6-3.5,11.1c-3.7,6-10,10.3-16,13.7
			c-3.3,1.8-6.7,3-9.1,5.9c-3.1,3.9-4.6,8.9-5.8,13.6c-1.7,6.4-2.6,13.1-3.5,19.7c-2.4,19.7-3.3,39.6-3.9,59.4
			c-0.7,24.7-0.8,49.5-0.7,74.2c0.2,25.5,0.6,50.9,1.3,76.4c0.6,22.1,1.3,44.2,2.1,66.2c0.6,17.9,2.1,36,1.6,53.9
			c-0.2,7-0.6,14,1.7,20.7c1.1,3.1,2.6,5.9,5.1,8.1c1.1,1,2.3,1.8,3.7,2.4c0.3,0.1,2.7,1,1.4,0.5c0.1,0,0.2,0.1,0.3,0.1
			c2.3,0.9,4.6,2.1,6.8,3.2c9,4.6,18.1,9,27.6,12.7c15.5,6,31.6,10.4,47.9,13.5c23.1,4.3,46.7,5.7,70.1,5.1
			c31.8-0.8,63.5-5.3,94.6-12.2c19.3-4.3,38.3-9.5,57.1-15.5c10.5-3.3,21-6.9,31.4-10.7c4.3-1.5,7.9-3.4,10.8-7.1
			c2.7-3.5,4.2-7.7,4.4-12.1c0.6-13.1,0.4-26.2,0.5-39.3c0.1-20.6,0.1-41.3,0.1-61.9c-0.1-24.5-0.3-49.1-0.6-73.6
			c-0.3-24.8-0.8-49.7-1.6-74.5c-0.6-21.4-1.4-42.9-2.8-64.3c-0.9-14.8-1.9-29.7-4.3-44.4c-0.6-3.6-1.2-7.4-2.8-10.8
			c-0.6-1.3-1.1-2.3-2.3-3.1c-3.7-2.8-7.9-4.9-11.7-7.7c-3-2.3-5.8-4.7-8.4-7.4c-4.2-4.5-7.4-9.7-9.3-15.6c-1-3-1.6-6-2-9.1
			c-0.2-1.7-0.4-3.4-0.5-5.2c-0.1-0.8,0-1.6-0.1-2.4c-0.1-0.7,0.1-0.6,0,0c-0.5,1-0.9,2-1.4,3c0,0,0,0,0,0c-1.2,0.5-2.5,1-3.7,1.5
			c-0.8-0.5-0.8-1-0.8-1.7c2-1.4,4-2.8,6-4.2c-1.1-3.1-0.8-6.1-2.9-8.9c-2.6-3.6-7-5.6-11.3-6c-1-0.1-2.1-0.1-3.1-0.1
			c-5,0-10.1,0-15.1,0c-20.6,0-41.3,0-61.9,0c-26.1,0-52.3,0-78.4,0c-21.6,0-43.2,0-64.8,0c-6,0-11.9,0-17.9,0c-1.2,0-2.4,0-3.5,0
			c-6.2,0.1-11.7,2.9-15.3,8C117,28,115.5,32.6,115.9,37.1c0.4,5,6.4-0.1,6.1-3.4c-0.5-6,4.2-9.5,9.8-9.6c1.1,0,2.1,0,3.2,0
			c5.4,0,10.9,0,16.3,0c20.5,0,40.9,0,61.4,0c25.4,0,50.9,0,76.3,0c21.1,0,42.3,0,63.4,0c6.1,0,12.1,0,18.2,0
			c5.2,0,10.8-0.3,14.6,4.1c2.1,2.5,1.7,5.3,2.7,8.1c1.5,4.1,6.3-1.8,6-4.2c-0.1-0.8-0.2-1.8-1-2.3c-1.3-0.8-2.9,0.6-3.7,1.5
			c-2.1,2.2-1.6,5.5-1.4,8.2c0.3,3.5,0.7,7,1.5,10.4c1.3,6.2,3.9,12.1,7.6,17.2C401.3,73,407.1,77.9,413,82c2.9,2,6,3.6,8.8,5.6
			c-0.7-0.5,0,0.1,0.3,0.6c0.1,0.2,0.5,0.9,0.2,0.4c-0.2-0.5,0.2,0.4,0.2,0.6c0.3,0.7,0.5,1.4,0.7,2.2c0.6,1.9,1,3.9,1.3,5.9
			c1.1,6,1.6,10.8,2.3,17.2c1.8,17.9,2.7,36,3.5,54c1,23.2,1.7,46.5,2.2,69.7c0.5,24.9,0.9,49.9,1.1,74.8
			c0.2,23.2,0.3,46.4,0.3,69.7c0,17.8-0.1,35.5-0.3,53.3c-0.1,5.8-0.1,11.5-0.3,17.3c0,1.8,0,3.6-0.7,5.2c-1.8,4.1-6.8,5.1-10.6,6.4
			c-10.2,3.6-20.4,7.1-30.7,10.3c-34.6,10.8-70.1,19.2-106.2,23.5c-26.8,3.3-53.9,4.2-80.8,2c-19.5-1.6-38.9-5-57.7-10.5
			c-12.4-3.7-24.6-8.3-36.2-13.9c-5.8-2.8-11.5-6.4-17.6-8.6c-14.2-5.1-9.9-25.2-10.1-36.8c-0.1-7.5-0.5-15-0.8-22.5
			c-0.7-19-1.4-38-2-57c-0.8-24.4-1.4-48.9-1.8-73.3c-0.4-25.4-0.6-50.9-0.4-76.3c0.2-22.3,0.7-44.7,2.2-66.9
			c0.6-8.6,1.3-16.9,2.4-25.4c0.5-3.5,1-6.9,1.6-10.4c0.3-1.5,0.6-3,0.9-4.5c0.1-0.6,0.3-1.3,0.5-1.9c0.1-0.4,0.7-2.5,0.3-1.3
			c0.3-1.1,0.7-2.3,1.1-3.4c0.2-0.5,0.3-0.9,0.5-1.4c0.1-0.2,0.2-0.4,0.3-0.6c0.4-1-0.3,0.5-0.1,0.1c0.2-0.4,0.4-0.7,0.6-1.1
			c0.3-0.5,1.2-1.5,0.1-0.3c0.2-0.2,0.4-0.6,0.6-0.8c0.4-0.3-0.8,0.8,0.1,0c0.4-0.4-0.9,0.4,0,0c2-0.7,3.9-2,5.8-3
			c3.8-2.1,7.5-4.5,10.8-7.3c5-4.2,9.2-9.3,11.8-15.2c1.7-3.7,2.5-7.8,2.9-11.8c0.1-1.5,0.2-3,0.5-4.4c0-0.3,0.1-0.6,0.2-0.9
			c0.2-1-0.2,0.6,0-0.1c0.7-2.5,1.2-4.9,1-7.5c-0.1-1.8-1.5-2.6-3.1-1.8C117.2,32.7,115.8,35.2,115.9,37.1z"/>
	</g>
	<path class="st4" d="M86.1,25.9"/>
	<g class="st5">
		<path class="st3" d="M251.8,401.9c-0.1,0-0.3,0.1-0.4,0.3c-0.1,0.1-0.3,0.4-0.5,0.7c-0.2,0.3-0.5,0.6-0.8,1
			c-0.3,0.4-0.6,0.8-1,1.2c-0.3,0.4-0.7,0.8-1,1.1c-0.3,0.3-0.6,0.6-0.9,0.8c-0.3,0.2-0.5,0.3-0.7,0.3c-0.2,0-0.4,0-0.5-0.1
			c-0.1-0.1-0.2-0.2-0.3-0.4c-0.1-0.2-0.1-0.3-0.1-0.5c0-0.2,0-0.4,0-0.5c0.1-0.3,0.1-0.5,0.1-0.7c0-0.2,0.1-0.3,0.1-0.5
			c0-0.1,0.1-0.3,0.1-0.4c0-0.1,0.1-0.3,0.1-0.4c0.2-0.8,0.3-1.5,0.4-2c0.1-0.5,0.2-0.9,0.2-1.2c0.1-0.3,0.1-0.5,0.1-0.6
			c0-0.1,0-0.2,0-0.2c0,0-0.1,0-0.2,0c-0.1,0-0.2,0-0.4,0c-0.2,0-0.4,0.1-0.6,0.1c0.4-0.6,0.5-1,0.4-1.4c-0.1-0.3-0.2-0.6-0.5-0.8
			c-0.3-0.2-0.7-0.3-1.2-0.4c-0.4,0-0.9,0.1-1.5,0.4c-0.6,0.3-1.2,0.8-1.9,1.4c-0.6,0.6-1.2,1.4-1.8,2.3c-0.5,0.9-0.9,1.9-1.2,2.9
			c-0.2,0.8-0.3,1.5-0.2,2.1c0.1,0.6,0.2,1,0.4,1.4c0.2,0.4,0.4,0.6,0.7,0.8c0.3,0.2,0.5,0.3,0.8,0.3c0.5,0,1.1-0.2,1.6-0.3
			c0.5-0.2,0.9-0.5,1.5-0.8c0.5-0.4,1-0.9,1.4-1.6c0,0.5,0,0.9,0.1,1.2c0.1,0.3,0.2,0.6,0.3,0.8c0.1,0.2,0.2,0.4,0.4,0.5
			c0.2,0.1,0.3,0.2,0.6,0.2c0.2,0,0.4,0.1,0.7,0c0.2,0,0.5-0.1,0.7-0.1c0.2-0.1,0.4-0.2,0.6-0.3c0.3-0.2,0.6-0.5,1-0.9
			c0.4-0.4,0.8-0.9,1.2-1.4c0.4-0.5,0.8-1,1.2-1.6c0.4-0.5,0.7-1,1-1.3c0.2-0.3,0.3-0.5,0.4-0.7c0-0.2,0-0.4,0-0.5
			C252.1,401.9,251.9,401.8,251.8,401.9z M244.8,400.6c0,0.3-0.1,0.7-0.2,1.1c-0.1,0.4-0.2,0.9-0.3,1.4c-0.1,0.5-0.2,0.9-0.3,1.2
			c0,0.1-0.1,0.2-0.2,0.4c-0.1,0.2-0.3,0.4-0.5,0.6c-0.2,0.2-0.4,0.5-0.7,0.7s-0.5,0.4-0.8,0.5s-0.5,0.2-0.8,0.2
			c-0.2,0-0.5-0.1-0.7-0.3c-0.1-0.1-0.2-0.3-0.2-0.7c0-0.3,0-0.7,0-1.2c0.1-0.5,0.2-1,0.3-1.5c0.2-0.5,0.4-1,0.6-1.5
			c0.6-1.1,1.2-1.9,1.7-2.3c0.5-0.4,0.8-0.5,1-0.4c0.1,0.1,0.1,0.2,0.1,0.3c0,0.1,0,0.3,0,0.4c0,0.2-0.1,0.4-0.3,0.7
			c0.1,0,0.3-0.1,0.4-0.1c0.1,0,0.3,0,0.3-0.1c0.1,0,0.2-0.1,0.3-0.1C244.9,400.2,244.9,400.4,244.8,400.6z"/>
		<path class="st3" d="M119.1,407.5c-0.1-0.1-0.3-0.2-0.4-0.3c-0.1-0.1-0.2-0.1-0.3-0.1c-0.2,0-0.5,0.1-0.8,0.4
			c-0.3,0.2-0.7,0.5-1,0.8s-0.6,0.6-0.9,0.9c-0.3,0.3-0.4,0.5-0.4,0.5c0.1,0.2,0.3,0.4,0.6,0.6c0.2,0.2,0.5,0.4,0.7,0.6
			c-0.1,0.3-0.1,0.7-0.2,1.1c-0.1,0.4-0.2,0.9-0.3,1.5c-0.6,3.2-1.2,5.7-1.7,7.5c0,0,0-0.1-0.1-0.1c-0.1-0.1-0.2-0.1-0.3-0.1
			c-0.1,0-0.3,0.1-0.4,0.2c-0.1,0.1-0.3,0.3-0.5,0.6c-0.2,0.2-0.4,0.5-0.7,0.8c-0.2,0.3-0.5,0.5-0.8,0.8c-0.3,0.3-0.5,0.5-0.7,0.7
			c-0.9,0.8-1.6,1.2-2.1,1.4c-0.5,0.2-0.8,0.1-0.9-0.2c-0.1-0.2-0.1-0.5-0.1-0.7c0.1-0.3,0.2-0.6,0.4-1c0.2-0.6,0.4-1.1,0.6-1.5
			c0.2-0.4,0.3-0.8,0.4-1.2c0.1-0.4,0.2-0.7,0.3-1c0.1-0.3,0.1-0.6,0.1-0.9c0-0.5,0-0.8-0.1-1.2c-0.1-0.3-0.2-0.6-0.4-0.7
			c-0.2-0.2-0.4-0.3-0.6-0.4c-0.2-0.1-0.5-0.1-0.7-0.1c-0.5,0-0.9,0.1-1.4,0.3c-0.4,0.2-0.8,0.5-1.2,0.8c-0.4,0.3-0.7,0.7-1,1
			c-0.3,0.4-0.6,0.7-0.8,1.1c0.4-1.5,0.8-3,1.3-4.3c0.5-1.4,0.9-2.7,1.2-4.2c0.1-0.4,0.2-0.8,0.2-1.1c0-0.3,0.1-0.6,0.1-0.8
			c0-0.3,0-0.4-0.1-0.5c0-0.1-0.1-0.1-0.2-0.2c-0.1,0-0.3,0-0.4,0c-0.2,0-0.3,0-0.5,0.1c-0.2,0-0.4,0.1-0.6,0.1
			c-0.2,0-0.3,0.1-0.5,0.1c-0.2,0.1-0.3,0.1-0.5,0.2c0.1,0.2,0.1,0.5,0.1,0.8c0,0.3,0,0.6-0.1,0.9c0,0.3-0.1,0.6-0.1,1
			c-0.1,0.5-0.3,1.3-0.6,2.6c-0.2,1-0.6,2.6-1.1,4.5c-0.5,2-1.1,4.6-1.9,7.9c0.1,0.2,0.1,0.3,0.2,0.5c0.1,0.1,0.2,0.2,0.3,0.3
			c0.1,0.1,0.3,0.1,0.4,0.2c0.1,0,0.2,0,0.4,0c0.1,0,0.2,0,0.3-0.1c0.1,0,0.2-0.1,0.3-0.2c0.1-0.5,0.3-1.1,0.4-1.8
			c0.1-0.7,0.3-1.3,0.4-1.8c0.1-0.7,0.3-1.4,0.4-2c0.2-0.4,0.5-0.8,0.8-1.1c0.3-0.4,0.6-0.7,0.9-1c0.3-0.3,0.7-0.6,1-0.8
			c0.3-0.2,0.6-0.3,0.9-0.3c0.4,0,0.6,0.2,0.7,0.6s0,0.9-0.1,1.4c-0.1,0.6-0.3,1.2-0.5,1.8c-0.2,0.6-0.4,1.1-0.5,1.6
			c-0.2,0.7-0.3,1.3-0.3,1.8c0,0.5,0.1,0.9,0.5,1.3c0.4,0.5,0.7,0.7,1.1,0.7c0.4,0,0.8-0.2,1.3-0.5c0.5-0.3,1-0.6,1.5-1
			c0.5-0.4,1-0.8,1.5-1.3c0.5-0.5,1-0.9,1.4-1.4c0.4-0.5,0.8-0.9,1.1-1.3c-0.5,1.6-0.8,2.6-0.9,3.1c-0.1,0.3-0.2,0.6-0.2,0.9
			c0,0.3,0,0.5,0,0.7c0.1,0.2,0.2,0.4,0.3,0.5c0.2,0.1,0.4,0.2,0.7,0.2c0.2,0,0.5,0,0.7,0c0.2,0,0.4,0,0.6-0.1
			c0.2,0,0.4-0.1,0.6-0.2c-0.2-0.5-0.2-1.1-0.2-1.7s0.1-1.2,0.1-1.8c0.1-0.6,0.2-1.2,0.4-1.7c0.2-0.6,0.3-1.1,0.4-1.6l3-12.1
			c0-0.1,0-0.2-0.1-0.3C119.4,407.7,119.3,407.6,119.1,407.5z"/>
		<path class="st3" d="M292.4,343.8c0.4-1.4,0.7-2.5,0.9-3.3c0.1-0.4,0.2-0.8,0.2-1.1c0-0.3,0.1-0.6,0.1-0.8c0-0.3,0-0.4-0.1-0.5
			c0-0.1-0.1-0.1-0.2-0.2c-0.1,0-0.3,0-0.4,0c-0.2,0-0.3,0-0.5,0.1c-0.2,0-0.4,0.1-0.6,0.1c-0.2,0-0.3,0.1-0.5,0.1
			c-0.2,0.1-0.3,0.1-0.5,0.2c0.1,0.2,0.1,0.5,0.1,0.8c0,0.3,0,0.6-0.1,0.9c0,0.3-0.1,0.6-0.1,1c-0.1,0.5-0.3,1.3-0.6,2.6
			c-0.2,1-0.6,2.4-1,4.1c-0.6,0.2-1.2,0.4-1.8,0.6c-0.8,0.2-1.5,0.3-2.2,0.3c-0.1-0.6-0.2-1.1-0.4-1.4c-0.2-0.4-0.5-0.6-0.8-0.6
			c-0.2,0-0.4,0-0.6,0.1c-0.2,0.1-0.4,0.2-0.6,0.4c-0.2,0.2-0.4,0.3-0.5,0.6c-0.1,0.2-0.2,0.5-0.2,0.7c0,0.4,0.1,0.7,0.3,0.9
			c0.2,0.2,0.5,0.4,0.8,0.5c-0.1,0.5-0.2,1.1-0.4,1.7c-0.2,0.6-0.5,1.3-0.8,1.8c-0.3,0.6-0.7,1-1.1,1.4c-0.4,0.4-0.8,0.6-1.2,0.6
			c-0.5,0-0.9-0.4-1-1.2c-0.2-0.8-0.2-1.8,0-3.1c0.3-0.5,0.6-1.1,0.9-1.8c0.3-0.7,0.7-1.5,1-2.3c0.3-0.8,0.7-1.7,1-2.7
			c0.3-1,0.6-2,0.9-3c0.3-1.1,0.5-2,0.5-2.7c0-0.7,0-1.1-0.1-1.2c-0.1,0-0.2-0.1-0.4-0.1c-0.2,0-0.4,0-0.6,0c-0.2,0-0.4,0.1-0.6,0.2
			c-0.2,0.1-0.4,0.2-0.6,0.4c-0.1,0.1-0.3,0.5-0.5,1c-0.2,0.5-0.5,1.1-0.8,1.8c-0.3,0.7-0.6,1.6-0.9,2.5c-0.3,0.9-0.6,1.9-0.8,2.8
			c-0.2,1-0.5,1.9-0.6,2.9c-0.2,0.8-0.2,1.6-0.3,2.4c-0.1,0.2-0.2,0.3-0.4,0.5c-0.3,0.4-0.6,0.8-1,1.2c-0.3,0.4-0.7,0.8-1,1.1
			c-0.3,0.3-0.6,0.6-0.9,0.8c-0.3,0.2-0.5,0.3-0.7,0.3c-0.2,0-0.4,0-0.5-0.1c-0.1-0.1-0.2-0.2-0.3-0.4c-0.1-0.2-0.1-0.3-0.1-0.5
			s0-0.4,0-0.5c0.1-0.3,0.1-0.5,0.1-0.7c0-0.2,0.1-0.3,0.1-0.5c0-0.1,0.1-0.3,0.1-0.4s0.1-0.3,0.1-0.4c0.2-0.8,0.3-1.5,0.4-2
			c0.1-0.5,0.2-0.9,0.2-1.2c0.1-0.3,0.1-0.5,0.1-0.6c0-0.1,0-0.2,0-0.2c0,0-0.1,0-0.2,0c-0.1,0-0.2,0-0.4,0c-0.2,0-0.4,0.1-0.6,0.1
			c0.4-0.6,0.5-1,0.4-1.4c-0.1-0.3-0.2-0.6-0.5-0.8c-0.3-0.2-0.7-0.3-1.2-0.4c-0.4,0-0.9,0.1-1.5,0.4c-0.6,0.3-1.2,0.8-1.9,1.4
			c-0.6,0.6-1.2,1.4-1.8,2.3c-0.4,0.7-0.8,1.5-1,2.4c-0.3,0.4-0.6,0.7-1,1.1c-0.4,0.4-0.8,0.8-1.2,1.2c-0.4,0.4-0.8,0.7-1.2,0.9
			c-0.4,0.2-0.7,0.3-1,0.3c-0.3,0-0.6-0.1-0.8-0.3c-0.2-0.2-0.4-0.5-0.5-0.9c-0.1-0.4-0.1-1,0-1.7c0.5-1.1,0.9-2.1,1.2-3
			c0.4-0.9,0.7-1.8,1-2.5c0.3-0.8,0.6-1.6,0.8-2.3c0.1-0.3,0.2-0.6,0.3-0.9c0.1-0.3,0.1-0.6,0.2-0.8c0.1,0,0.3,0,0.4,0
			c0.1,0,0.3,0,0.4,0c0.6,0,1.1,0,1.5,0.1c0.4,0,0.8,0.1,1.1,0.1c0.3,0,0.6,0.1,0.8,0.1c0.2,0.1,0.4,0.1,0.6,0.1
			c0.2,0,0.3,0,0.5-0.1c0.1-0.1,0.2-0.2,0.3-0.4c0.1-0.2,0.1-0.3,0.1-0.4c0-0.1-0.1-0.2-0.2-0.3c-0.1,0-0.3-0.1-0.6-0.2
			c-0.2-0.1-0.6-0.2-1-0.3c-0.4-0.1-0.9-0.2-1.5-0.3c-0.6-0.1-1.2-0.1-2-0.1c0.2-0.9,0.3-1.6,0.3-2.2s0-0.9-0.1-1.1
			c-0.1-0.1-0.2-0.2-0.4-0.2c-0.2,0-0.4,0-0.6,0c-0.2,0-0.4,0.1-0.6,0.1c-0.2,0.1-0.3,0.1-0.4,0.2c-0.2,0.2-0.4,0.7-0.6,1.3
			c-0.2,0.6-0.4,1.4-0.7,2.2c-0.3,0.1-0.6,0.1-0.9,0.1c-0.3,0-0.6,0.1-1,0.1c-0.5,0-0.9,0-1.3,0c-0.4,0-0.8-0.1-1.1-0.1
			c-0.1,0-0.2,0-0.4,0.1c-0.1,0.1-0.2,0.2-0.3,0.3c-0.1,0.1-0.1,0.3-0.2,0.4c0,0.1,0,0.2,0.2,0.3c0.2,0.1,0.6,0.3,1.1,0.4
			c0.5,0.1,1,0.2,1.6,0.2c0.2,0,0.5,0,0.8-0.1c0.3,0,0.6-0.1,0.9-0.1c-0.2,1-0.5,2.1-0.7,3.2c-0.2,1.1-0.4,2.1-0.6,3.1
			c-0.2,1-0.3,1.8-0.4,2.5c-0.1,0.7-0.2,1.2-0.2,1.5c0,0.3,0,0.7,0.1,1.1s0.2,0.8,0.5,1.1c0.2,0.3,0.5,0.6,0.9,0.8
			c0.4,0.2,0.9,0.3,1.5,0.3c0.4,0,0.9-0.2,1.5-0.7c0.6-0.4,1.2-1,1.9-1.7c0.2-0.2,0.5-0.5,0.7-0.8c0,0.2,0,0.3,0,0.4
			c0.1,0.6,0.2,1,0.4,1.4c0.2,0.4,0.4,0.6,0.7,0.8c0.3,0.2,0.5,0.3,0.8,0.3c0.5,0,1.1-0.2,1.6-0.3c0.5-0.2,0.9-0.5,1.5-0.8
			c0.5-0.4,1-0.9,1.4-1.6c0,0.5,0,0.9,0.1,1.2c0.1,0.3,0.2,0.6,0.3,0.8c0.1,0.2,0.2,0.4,0.4,0.5c0.2,0.1,0.3,0.2,0.6,0.2
			c0.2,0,0.4,0.1,0.7,0c0.2,0,0.5-0.1,0.7-0.1c0.2-0.1,0.4-0.2,0.6-0.3c0.3-0.2,0.6-0.5,1-0.9c0.4-0.4,0.8-0.9,1.2-1.4
			c0.3-0.3,0.5-0.7,0.8-1c0,0.7,0.1,1.3,0.2,1.7c0.2,0.7,0.5,1.2,0.8,1.5s0.6,0.5,0.9,0.6c0.3,0.1,0.6,0.1,0.8,0.1
			c0.6,0,1.3-0.2,1.9-0.7c0.6-0.5,1.2-1,1.8-1.7c0.5-0.7,1-1.5,1.4-2.3s0.6-1.6,0.7-2.3c0.3,0,0.7,0,1.1-0.1
			c0.4-0.1,0.8-0.2,1.2-0.3c0.4-0.1,0.9-0.3,1.3-0.5c0.1,0,0.1-0.1,0.2-0.1c-0.4,1.9-1,4.2-1.7,7.1c0.1,0.2,0.1,0.3,0.2,0.5
			s0.2,0.2,0.3,0.3c0.1,0.1,0.2,0.1,0.4,0.2c0.1,0,0.3,0,0.4,0c0.1,0,0.2,0,0.3-0.1c0.1,0,0.2-0.1,0.3-0.2c0.8-3.2,1.5-5.9,2-8
			C291.6,346.7,292.1,345.1,292.4,343.8z M271,348.7c0,0.3-0.1,0.7-0.2,1.1c-0.1,0.4-0.2,0.9-0.3,1.4c-0.1,0.5-0.2,0.9-0.3,1.2
			c0,0.1-0.1,0.2-0.2,0.4c-0.1,0.2-0.3,0.4-0.5,0.6c-0.2,0.2-0.4,0.5-0.7,0.7c-0.3,0.2-0.5,0.4-0.8,0.5c-0.3,0.1-0.5,0.2-0.8,0.2
			c-0.2,0-0.5-0.1-0.7-0.3c-0.1-0.1-0.2-0.3-0.2-0.7c0-0.3,0-0.7,0-1.2c0.1-0.5,0.2-1,0.3-1.5c0.2-0.5,0.4-1,0.6-1.5
			c0.6-1.1,1.2-1.9,1.7-2.3c0.5-0.4,0.8-0.5,1-0.4c0.1,0.1,0.1,0.2,0.1,0.3c0,0.1,0,0.3,0,0.4c0,0.2-0.1,0.4-0.3,0.7
			c0.1,0,0.3-0.1,0.4-0.1c0.1,0,0.3,0,0.3-0.1c0.1,0,0.2-0.1,0.3-0.1C271,348.3,271.1,348.4,271,348.7z"/>
		<path class="st3" d="M293.5,354.5c0.2,0.6,0.5,1.1,0.9,1.5c0.4,0.4,0.8,0.7,1.2,0.9c0.5,0.2,0.9,0.3,1.3,0.3
			c0.7,0,1.5-0.2,2.3-0.5c0.8-0.4,1.6-0.8,2.3-1.4c0.8-0.6,1.5-1.2,2.1-2c0.7-0.7,1.3-1.5,1.8-2.3c0.1-0.2,0.2-0.4,0.2-0.5
			c0-0.2,0-0.3-0.1-0.3c-0.1-0.1-0.2-0.1-0.3-0.1c-0.1,0-0.3,0.1-0.4,0.3c-0.4,0.4-0.8,0.9-1.3,1.5c-0.5,0.6-1.1,1.1-1.8,1.7
			c-0.6,0.5-1.3,1-1.9,1.4c-0.7,0.4-1.3,0.6-1.9,0.6c-0.3,0-0.6,0-0.8-0.1c-0.3-0.1-0.5-0.2-0.7-0.4s-0.4-0.4-0.5-0.7
			c-0.1-0.3-0.2-0.7-0.2-1.1c0.3-0.2,0.6-0.4,0.9-0.7c0.4-0.2,0.7-0.5,1.1-0.8c0.4-0.2,0.7-0.5,1.1-0.8c0.4-0.3,0.8-0.6,1.1-1
			c0.4-0.4,0.7-0.8,0.9-1.2c0.3-0.5,0.4-1,0.5-1.5c0-0.5-0.1-0.9-0.4-1.2c-0.3-0.3-0.8-0.5-1.5-0.5c-0.7,0-1.4,0.2-2.1,0.7
			c-0.7,0.4-1.3,1-1.9,1.7c-0.6,0.7-1,1.4-1.4,2.2c-0.4,0.8-0.6,1.6-0.7,2.3C293.2,353.1,293.3,353.9,293.5,354.5z M296.2,349.6
			c0.2-0.6,0.5-1.1,0.8-1.5s0.6-0.7,0.9-0.9s0.5-0.3,0.8-0.3c0.2,0,0.3,0.1,0.5,0.2c0.1,0.2,0.1,0.4,0.1,0.7c0,0.3-0.2,0.7-0.5,1.1
			c-0.3,0.4-0.8,1-1.6,1.5c-0.2,0.2-0.5,0.4-0.7,0.5c-0.2,0.2-0.5,0.3-0.7,0.5C295.8,350.8,296,350.2,296.2,349.6z"/>
		<path class="st3" d="M154.7,368.6c-0.1,0-0.2,0.1-0.3,0.2c-0.2,0.1-0.4,0.3-0.6,0.5c-0.3,0.2-0.6,0.4-0.9,0.6
			c-0.4,0.2-0.8,0.4-1.3,0.5c-0.5,0.1-1,0.2-1.6,0.2c-0.1,0-0.3,0-0.4-0.1c-0.1,0-0.2-0.1-0.3-0.1c0.5-0.8,0.8-1.5,1.1-2.1
			c0.3-0.6,0.5-1.2,0.5-1.5c0-0.2,0-0.5-0.1-0.7c-0.1-0.2-0.4-0.4-0.9-0.4c-0.2,0-0.5,0.1-0.8,0.3s-0.6,0.4-0.8,0.8
			c-0.3,0.3-0.5,0.7-0.7,1.2c-0.2,0.5-0.3,1-0.4,1.6c0,0.4,0,0.7,0.1,1c-0.3,0.5-0.6,1.1-1,1.6c-0.3,0.5-0.7,1-1,1.4
			c-0.3,0.4-0.6,0.7-0.8,0.9c-0.2,0.2-0.4,0.4-0.5,0.4c-0.1,0-0.2-0.1-0.3-0.3c-0.1-0.2-0.2-0.4-0.3-0.8c-0.1-0.3-0.2-0.8-0.2-1.3
			s-0.1-1.1,0-1.8c0-0.4,0.1-0.8,0.2-1.2c0.1-0.4,0.2-0.8,0.3-1.2c0.1-0.4,0.2-0.7,0.3-1c0.1-0.3,0.1-0.5,0.2-0.7
			c0.1-0.2,0-0.3,0-0.4c-0.1-0.1-0.2-0.1-0.3-0.2c-0.1,0-0.3,0-0.4,0c-0.2,0-0.3,0-0.4,0.1c-0.3,0.1-0.5,0.2-0.7,0.3
			c-0.2,0.1-0.3,0.3-0.5,0.5c-0.1,0.2-0.2,0.6-0.3,1c-0.1,0.4-0.2,1-0.2,1.7c0,0.6-0.1,1.2,0,2c-0.1,0.1-0.2,0.2-0.2,0.3
			c-0.3,0.4-0.6,0.8-1,1.2c-0.3,0.4-0.7,0.8-1,1.1c-0.3,0.3-0.6,0.6-0.9,0.8c-0.3,0.2-0.5,0.3-0.7,0.3c-0.2,0-0.4,0-0.5-0.1
			c-0.1-0.1-0.2-0.2-0.3-0.4c-0.1-0.2-0.1-0.3-0.1-0.5c0-0.2,0-0.4,0-0.5c0.1-0.3,0.1-0.5,0.1-0.7c0-0.2,0.1-0.3,0.1-0.5
			c0-0.1,0.1-0.3,0.1-0.4c0-0.1,0.1-0.3,0.1-0.4c0.2-0.8,0.3-1.5,0.4-2c0.1-0.5,0.2-0.9,0.2-1.2c0.1-0.3,0.1-0.5,0.1-0.6
			c0-0.1,0-0.2,0-0.2c0,0-0.1,0-0.2,0c-0.1,0-0.2,0-0.4,0c-0.2,0-0.4,0.1-0.6,0.1c0.4-0.6,0.5-1,0.4-1.4c-0.1-0.3-0.2-0.6-0.5-0.8
			c-0.3-0.2-0.7-0.3-1.2-0.4c-0.4,0-0.9,0.1-1.5,0.4s-1.2,0.8-1.9,1.4c-0.6,0.6-1.2,1.4-1.8,2.3c-0.5,0.8-0.8,1.6-1.1,2.5
			c-0.4,0.5-0.8,1-1.3,1.5c-0.5,0.5-1,1-1.5,1.4c-0.5,0.4-0.9,0.6-1.2,0.6c-0.3,0-0.5-0.1-0.5-0.4c0-0.3,0-0.6,0.1-1
			c0.2-0.6,0.4-1.2,0.5-1.7c0.1-0.5,0.2-0.9,0.3-1.3l0.3-1.2c0.2-0.6,0.2-1.1,0.2-1.6s-0.1-0.9-0.3-1.2c-0.2-0.3-0.4-0.6-0.6-0.8
			c-0.3-0.2-0.6-0.3-0.9-0.3c-0.4,0-0.8,0.1-1.2,0.3c-0.4,0.2-0.8,0.4-1.1,0.7c-0.3,0.3-0.7,0.6-1,0.9c-0.3,0.3-0.6,0.7-0.8,1
			c0.1-0.3,0.2-0.6,0.3-0.9c0.1-0.2,0.1-0.5,0.2-0.7c0.1-0.2,0.1-0.4,0.2-0.5c-0.1-0.1-0.2-0.2-0.4-0.2c-0.1,0-0.3-0.1-0.4-0.1
			c-0.1,0-0.3,0-0.4,0c-0.2,0-0.3,0.1-0.5,0.1c-0.1,0-0.3,0.1-0.4,0.1c-0.1,0.1-0.3,0.1-0.4,0.3c-0.2,0.7-0.3,1.3-0.5,1.9
			c-0.1,0.6-0.2,1.1-0.3,1.5c-0.1,0.5-0.2,0.9-0.3,1.4c-0.1,0.5-0.3,1.1-0.4,1.6c-0.1,0.6-0.3,1.1-0.4,1.6c-0.1,0.5-0.2,0.9-0.3,1.3
			c-0.1,0.4-0.2,0.6-0.2,0.7c0,0.2,0.1,0.2,0.3,0.2s0.5-0.1,0.8-0.2s0.6-0.2,0.8-0.4c0.3-0.2,0.4-0.3,0.5-0.5
			c0.1-0.2,0.1-0.5,0.2-0.8c0.1-0.3,0.1-0.6,0.2-1c0.1-0.4,0.2-0.8,0.3-1.2c0.1-0.5,0.2-1,0.4-1.6c0.3-0.4,0.6-0.9,0.9-1.3
			c0.3-0.4,0.6-0.8,0.9-1.1s0.6-0.6,0.9-0.8s0.6-0.3,0.9-0.3c0.2,0,0.4,0.1,0.5,0.4c0.1,0.3,0.1,0.6,0.1,1c0,0.4-0.1,0.8-0.2,1.3
			c-0.1,0.5-0.2,1-0.4,1.5c-0.1,0.5-0.3,0.9-0.4,1.4c-0.1,0.4-0.2,0.7-0.3,1c-0.1,0.4-0.1,0.7-0.1,1c0.1,0.3,0.2,0.6,0.3,0.9
			c0.2,0.2,0.4,0.4,0.7,0.6c0.3,0.2,0.6,0.2,1,0.2c0.4,0,0.8-0.1,1.2-0.4s0.9-0.5,1.3-0.9c0.4-0.4,0.9-0.8,1.3-1.3
			c0.2-0.2,0.3-0.3,0.4-0.5c0,0.1,0,0.2,0,0.4c0.1,0.6,0.2,1,0.4,1.4c0.2,0.4,0.4,0.6,0.7,0.8c0.3,0.2,0.5,0.3,0.8,0.3
			c0.5,0,1.1-0.2,1.6-0.3c0.5-0.2,0.9-0.5,1.5-0.8c0.5-0.4,1-0.9,1.4-1.6c0,0.5,0,0.9,0.1,1.2c0.1,0.3,0.2,0.6,0.3,0.8
			c0.1,0.2,0.2,0.4,0.4,0.5c0.2,0.1,0.3,0.2,0.6,0.2c0.2,0,0.4,0.1,0.7,0c0.2,0,0.5-0.1,0.7-0.1c0.2-0.1,0.4-0.2,0.6-0.3
			c0.3-0.2,0.6-0.5,1-0.9c0.4-0.4,0.8-0.9,1.2-1.4c0.3-0.3,0.5-0.7,0.8-1c0.1,0.5,0.1,0.9,0.2,1.3c0.2,0.8,0.5,1.4,0.8,1.9
			c0.3,0.5,0.8,0.8,1.3,0.8c0.2,0,0.5-0.2,0.9-0.5c0.4-0.3,0.8-0.7,1.2-1.2s0.9-1.1,1.4-1.7c0.5-0.6,1-1.3,1.4-2
			c0.2,0.1,0.3,0.1,0.5,0.1c0.2,0,0.3,0,0.4,0c1.2,0,2.3-0.2,3.2-0.7c0.9-0.5,1.7-1.1,2.3-1.9c0.1-0.1,0.2-0.2,0.2-0.3
			s0-0.2-0.1-0.2C154.9,368.6,154.8,368.6,154.7,368.6z M135.5,368.6c0,0.3-0.1,0.7-0.2,1.1c-0.1,0.4-0.2,0.9-0.3,1.4
			s-0.2,0.9-0.3,1.2c0,0.1-0.1,0.2-0.2,0.4c-0.1,0.2-0.3,0.4-0.5,0.6c-0.2,0.2-0.4,0.5-0.7,0.7s-0.5,0.4-0.8,0.5
			c-0.3,0.1-0.5,0.2-0.8,0.2c-0.2,0-0.5-0.1-0.7-0.3c-0.1-0.1-0.2-0.3-0.2-0.7c0-0.3,0-0.7,0-1.2c0.1-0.5,0.2-1,0.3-1.5
			c0.2-0.5,0.4-1,0.6-1.5c0.6-1.1,1.2-1.9,1.7-2.3c0.5-0.4,0.8-0.5,1-0.4c0.1,0.1,0.1,0.2,0.1,0.3c0,0.1,0,0.3,0,0.4
			c0,0.2-0.1,0.4-0.3,0.7c0.1,0,0.3-0.1,0.4-0.1c0.1,0,0.3,0,0.3-0.1c0.1,0,0.2-0.1,0.3-0.1C135.6,368.2,135.6,368.3,135.5,368.6z"
			/>
		<path class="st3" d="M377.2,323.1c0.4-0.2,0.7-0.4,0.8-0.4c0.3,0,0.5,0.1,0.6,0.4c0.1,0.2,0.1,0.6,0,1.1c-0.1,0.4-0.2,0.8-0.3,1.3
			c-0.1,0.5-0.2,1-0.4,1.5c-0.1,0.5-0.2,1-0.3,1.5c-0.1,0.5-0.1,0.9-0.1,1.3s0.1,0.7,0.2,0.9c0.1,0.2,0.3,0.4,0.5,0.6
			c0.2,0.1,0.4,0.2,0.7,0.3c0.2,0.1,0.5,0.1,0.7,0.1c0.7,0,1.5-0.2,2.1-0.7c0.7-0.4,1.3-1,2-1.6c0.4-0.5,0.8-1,1.2-1.5
			c-0.2,0.9-0.4,1.8-0.6,2.7c0.1,0.2,0.1,0.3,0.2,0.5c0.1,0.1,0.2,0.2,0.3,0.3c0.1,0.1,0.2,0.1,0.4,0.2c0.1,0,0.3,0,0.4,0
			c0.1,0,0.2,0,0.3-0.1c0.1,0,0.2-0.1,0.3-0.2c0.8-3.2,1.5-5.9,2-8c0.5-2.1,1-3.8,1.3-5c0.4-1.4,0.7-2.5,0.9-3.3
			c0.1-0.4,0.2-0.8,0.2-1.1c0-0.3,0.1-0.6,0.1-0.8s0-0.4-0.1-0.5c0-0.1-0.1-0.1-0.2-0.2s-0.3,0-0.4,0c-0.2,0-0.3,0-0.5,0.1
			c-0.2,0-0.4,0.1-0.6,0.1c-0.2,0-0.3,0.1-0.5,0.1c-0.2,0.1-0.3,0.1-0.5,0.2c0.1,0.2,0.1,0.5,0.1,0.8c0,0.3,0,0.6-0.1,0.9
			c0,0.3-0.1,0.6-0.1,1c-0.1,0.5-0.3,1.3-0.6,2.6c-0.2,1-0.6,2.6-1.1,4.5c-0.2,0.7-0.4,1.5-0.6,2.4c-0.2,0.2-0.4,0.5-0.6,0.8
			c-0.4,0.6-0.9,1.2-1.4,1.8c-0.5,0.6-1,1.1-1.6,1.5c-0.5,0.4-1,0.6-1.5,0.6c-0.6,0-0.8-0.4-0.6-1.3l0.9-3.6c0.1-0.5,0.2-1,0.2-1.5
			c0-0.5,0-1-0.1-1.4c-0.1-0.4-0.3-0.8-0.5-1.1c-0.3-0.3-0.6-0.4-1.1-0.4c-0.4,0-0.8,0.1-1.2,0.3c-0.4,0.2-0.8,0.4-1.2,0.7
			c-0.4,0.3-0.7,0.6-1.1,1c-0.3,0.4-0.7,0.8-0.9,1.1c0.1-0.4,0.1-0.8,0.1-1.2c0-0.4-0.1-0.7-0.2-1c-0.1-0.3-0.3-0.5-0.5-0.7
			c-0.2-0.2-0.5-0.3-0.8-0.3c-0.4,0-0.8,0.1-1.2,0.3c-0.4,0.2-0.8,0.4-1.2,0.7c-0.4,0.3-0.8,0.6-1.2,1c-0.4,0.4-0.7,0.8-1.1,1.2
			c0.1-0.5,0.2-1,0.3-1.2c0.2-1,0-1.5-0.6-1.5c-0.1,0-0.3,0-0.5,0.1c-0.1,0-0.3,0.1-0.6,0.2c-0.2,0.1-0.5,0.2-0.8,0.3
			c0,0.1,0,0.3,0,0.5s0,0.4-0.1,0.6c0,0.2-0.1,0.4-0.1,0.7l-0.3,1.4c-0.1,0.1-0.1,0.2-0.2,0.3c-0.3,0.3-0.6,0.7-0.9,1.2
			c-0.4,0.4-0.7,0.9-1.2,1.3c-0.4,0.4-0.8,0.8-1.2,1.2c-0.4,0.4-0.8,0.7-1.2,0.9c-0.4,0.2-0.7,0.3-1,0.3c-0.3,0-0.6-0.1-0.8-0.3
			c-0.2-0.2-0.4-0.5-0.5-0.9s-0.1-1,0-1.7c0.5-1.1,0.9-2.1,1.2-3c0.4-0.9,0.7-1.8,1-2.5c0.3-0.8,0.6-1.6,0.8-2.3
			c0.1-0.3,0.2-0.6,0.3-0.9c0.1-0.3,0.1-0.6,0.2-0.8c0.1,0,0.3,0,0.4,0c0.1,0,0.3,0,0.4,0c0.6,0,1.1,0,1.5,0.1
			c0.4,0,0.8,0.1,1.1,0.1c0.3,0,0.6,0.1,0.8,0.1c0.2,0.1,0.4,0.1,0.6,0.1c0.2,0,0.3,0,0.5-0.1s0.2-0.2,0.3-0.4
			c0.1-0.2,0.1-0.3,0.1-0.4c0-0.1-0.1-0.2-0.2-0.3c-0.1,0-0.3-0.1-0.6-0.2c-0.2-0.1-0.6-0.2-1-0.3c-0.4-0.1-0.9-0.2-1.5-0.3
			s-1.2-0.1-2-0.1c0.2-0.9,0.3-1.6,0.3-2.2c0-0.6,0-0.9-0.1-1.1c-0.1-0.1-0.2-0.2-0.4-0.2c-0.2,0-0.4,0-0.6,0
			c-0.2,0-0.4,0.1-0.6,0.1c-0.2,0.1-0.3,0.1-0.4,0.2c-0.2,0.2-0.4,0.7-0.6,1.3c-0.2,0.6-0.4,1.4-0.7,2.2c-0.3,0.1-0.6,0.1-0.9,0.1
			c-0.3,0-0.6,0.1-1,0.1c-0.5,0-0.9,0-1.3,0c-0.4,0-0.8-0.1-1.1-0.1c-0.1,0-0.2,0-0.4,0.1c-0.1,0.1-0.2,0.2-0.3,0.3
			c-0.1,0.1-0.1,0.3-0.2,0.4c0,0.1,0,0.2,0.2,0.3c0.2,0.1,0.6,0.3,1.1,0.4s1,0.2,1.6,0.2c0.2,0,0.5,0,0.8-0.1c0.3,0,0.6-0.1,0.9-0.1
			c-0.2,1-0.5,2.1-0.7,3.2c-0.2,1.1-0.4,2.1-0.6,3.1c-0.1,0.3-0.1,0.6-0.1,0.8c-0.1,0-0.2,0.1-0.2,0.2c-0.1,0.1-0.3,0.3-0.5,0.6
			c-0.2,0.2-0.4,0.5-0.7,0.8c-0.2,0.3-0.5,0.5-0.8,0.8c-0.3,0.3-0.5,0.5-0.7,0.7c-0.9,0.8-1.6,1.2-2.1,1.4c-0.5,0.2-0.8,0.1-0.9-0.2
			c-0.1-0.2-0.1-0.5-0.1-0.7c0.1-0.3,0.2-0.6,0.4-1c0.2-0.6,0.4-1.1,0.6-1.5c0.2-0.4,0.3-0.8,0.4-1.2c0.1-0.4,0.2-0.7,0.3-1
			c0.1-0.3,0.1-0.6,0.1-0.9c0-0.5,0-0.8-0.1-1.2c-0.1-0.3-0.2-0.6-0.4-0.7c-0.2-0.2-0.4-0.3-0.6-0.4c-0.2-0.1-0.5-0.1-0.7-0.1
			c-0.5,0-0.9,0.1-1.4,0.3c-0.4,0.2-0.8,0.5-1.2,0.8c-0.4,0.3-0.7,0.7-1,1s-0.6,0.7-0.8,1.1c0.4-1.5,0.8-3,1.3-4.3
			c0.5-1.4,0.9-2.7,1.2-4.2c0.1-0.4,0.2-0.8,0.2-1.1c0-0.3,0.1-0.6,0.1-0.8s0-0.4-0.1-0.5c0-0.1-0.1-0.1-0.2-0.2s-0.3,0-0.4,0
			c-0.2,0-0.3,0-0.5,0.1c-0.2,0-0.4,0.1-0.6,0.1c-0.2,0-0.3,0.1-0.5,0.1c-0.2,0.1-0.3,0.1-0.5,0.2c0.1,0.2,0.1,0.5,0.1,0.8
			c0,0.3,0,0.6-0.1,0.9c0,0.3-0.1,0.6-0.1,1c-0.1,0.5-0.3,1.3-0.6,2.6c-0.2,1-0.6,2.6-1.1,4.5c-0.5,2-1.1,4.6-1.9,7.9
			c0.1,0.2,0.1,0.3,0.2,0.5c0.1,0.1,0.2,0.2,0.3,0.3c0.1,0.1,0.3,0.1,0.4,0.2c0.1,0,0.2,0,0.4,0c0.1,0,0.2,0,0.3-0.1
			c0.1,0,0.2-0.1,0.3-0.2c0.1-0.5,0.3-1.1,0.4-1.8c0.1-0.7,0.3-1.3,0.4-1.8c0.1-0.7,0.3-1.4,0.4-2c0.2-0.4,0.5-0.8,0.8-1.1
			c0.3-0.4,0.6-0.7,0.9-1c0.3-0.3,0.7-0.6,1-0.8c0.3-0.2,0.6-0.3,0.9-0.3c0.4,0,0.6,0.2,0.7,0.6c0.1,0.4,0,0.9-0.1,1.4
			c-0.1,0.6-0.3,1.2-0.5,1.8c-0.2,0.6-0.4,1.1-0.5,1.6c-0.2,0.7-0.3,1.3-0.3,1.8c0,0.5,0.1,0.9,0.5,1.3c0.4,0.5,0.7,0.7,1.1,0.7
			c0.4,0,0.8-0.2,1.3-0.5c0.5-0.3,1-0.6,1.5-1c0.5-0.4,1-0.8,1.5-1.3c0.5-0.5,1-0.9,1.4-1.4c0.2-0.2,0.4-0.4,0.6-0.6
			c-0.1,0.7-0.2,1.2-0.2,1.5c0,0.3,0,0.7,0.1,1.1c0.1,0.4,0.2,0.8,0.5,1.1c0.2,0.3,0.5,0.6,0.9,0.8c0.4,0.2,0.9,0.3,1.5,0.3
			c0.4,0,0.9-0.2,1.5-0.7c0.6-0.4,1.2-1,1.9-1.7c0.6-0.7,1.2-1.4,1.8-2.1l-0.7,3.1c-0.1,0.4-0.1,0.7-0.1,0.9
			c0.1,0.2,0.1,0.3,0.3,0.4c0.1,0.1,0.2,0.1,0.4,0.1c0.1,0,0.2,0,0.3-0.1l1.3-0.6c0-0.1,0.1-0.3,0.1-0.4c0-0.1,0-0.3,0.1-0.4
			c0-0.1,0.1-0.3,0.1-0.4v0.1c0.3-1.5,0.7-2.6,1.2-3.5c0.5-0.9,0.9-1.6,1.4-2.1c0.5-0.5,0.9-0.9,1.2-1c0.4-0.2,0.6-0.3,0.8-0.3
			c0.2,0,0.4,0.1,0.5,0.2c0.1,0.1,0.2,0.4,0.2,0.7c0,0.5-0.1,1-0.2,1.7c-0.1,0.6-0.3,1.3-0.5,1.9c-0.2,0.6-0.4,1.2-0.5,1.8
			c-0.2,0.5-0.3,0.9-0.4,1.2c-0.1,0.5-0.2,0.8-0.1,1s0.3,0.2,0.7,0.2c0.1,0,0.3,0,0.4-0.1c0.3-0.1,0.6-0.2,1-0.3
			c0.3-1.6,0.6-2.9,1.1-3.9c0.5-1,0.9-1.9,1.4-2.5C376.3,323.8,376.7,323.3,377.2,323.1z"/>
		<path class="st3" d="M295.2,430c-0.1-0.1-0.3-0.2-0.5-0.1c-0.2,0-0.4,0.2-0.7,0.4c-0.3,0.2-0.5,0.5-0.7,0.7
			c-0.2,0.3-0.3,0.6-0.2,0.9c0,0.3,0.2,0.6,0.6,0.9c0.1,0.1,0.3,0.1,0.5,0.1c0.2,0,0.4-0.1,0.6-0.2c0.2-0.1,0.4-0.3,0.5-0.5
			c0.2-0.2,0.3-0.4,0.3-0.6c0.1-0.2,0.1-0.4,0.1-0.6c0-0.2,0-0.4-0.1-0.6C295.4,430.3,295.3,430.2,295.2,430z"/>
		<path class="st3" d="M330.9,441.1c-0.1,0-0.3,0-0.5,0.1c-0.2,0.1-0.3,0.2-0.5,0.5c-0.2,0.2-0.5,0.6-0.8,0.9
			c-0.4,0.4-0.8,0.8-1.3,1.2c-0.5,0.4-1,0.8-1.5,1.2c-0.5,0.4-1,0.8-1.5,1c0.2-0.7,0.3-1.4,0.5-2.2c0.2-0.7,0.3-1.4,0.5-2
			c0.2-0.6,0.3-1.2,0.4-1.6c0.1-0.5,0.2-0.7,0.2-0.9c0.1-0.3,0.2-0.6,0.2-0.8c0.1-0.2,0.1-0.3,0.2-0.4c0.1-0.1,0.1-0.2,0.2-0.3
			c0.1-0.1,0.1-0.3,0.2-0.5c0-0.1-0.1-0.2-0.3-0.2c-0.2-0.1-0.4-0.1-0.6-0.1c-0.4,0-0.8,0.1-1,0.3c-0.2,0.2-0.4,0.6-0.6,1.2
			c0,0.1-0.1,0.2-0.1,0.3c0,0.1,0,0.2-0.1,0.3c-0.1-0.3-0.1-0.6-0.2-0.9c-0.1-0.3-0.3-0.6-0.5-0.9c-0.2-0.3-0.4-0.5-0.7-0.7
			c-0.3-0.2-0.6-0.3-1-0.3c-0.8,0-1.6,0.3-2.3,0.8c-0.7,0.5-1.2,1.1-1.7,1.9c-0.5,0.7-0.8,1.5-1.1,2.4c-0.1,0.4-0.2,0.8-0.3,1.1
			c-0.4,0.5-0.8,1.1-1.2,1.6c-0.5,0.6-1,1.1-1.6,1.5c-0.5,0.4-1,0.6-1.5,0.6c-0.6,0-0.8-0.4-0.6-1.3l0.9-3.6c0.1-0.5,0.2-1,0.2-1.5
			c0-0.5,0-1-0.1-1.4c-0.1-0.4-0.3-0.8-0.5-1.1c-0.3-0.3-0.6-0.4-1.1-0.4c-0.4,0-0.8,0.1-1.2,0.3c-0.4,0.2-0.8,0.4-1.2,0.7
			c-0.4,0.3-0.7,0.6-1.1,1c-0.3,0.4-0.7,0.8-0.9,1.1c0.1-0.4,0.1-0.8,0.1-1.2c0-0.4-0.1-0.7-0.2-1c-0.1-0.3-0.3-0.5-0.5-0.7
			c-0.2-0.2-0.5-0.3-0.8-0.3c-0.4,0-0.8,0.1-1.2,0.3c-0.4,0.2-0.8,0.4-1.2,0.7c-0.4,0.3-0.8,0.6-1.2,1c-0.4,0.4-0.7,0.8-1.1,1.2
			c0.1-0.5,0.2-1,0.3-1.2c0.2-1,0-1.5-0.6-1.5c-0.1,0-0.3,0-0.5,0.1c-0.1,0-0.3,0.1-0.6,0.2c-0.2,0.1-0.5,0.2-0.8,0.3
			c0,0.1,0,0.3,0,0.5s0,0.4-0.1,0.6c0,0.2-0.1,0.4-0.1,0.7l-0.3,1.3c-0.1,0.1-0.1,0.1-0.2,0.2c-0.2,0.3-0.6,0.8-1.1,1.3
			c-0.5,0.6-1,1.1-1.6,1.6c-0.6,0.5-1.1,1-1.6,1.4c-0.5,0.4-1,0.6-1.3,0.6c-0.1,0-0.2,0-0.3-0.1s-0.2-0.2-0.3-0.4
			c-0.1-0.2-0.1-0.4-0.1-0.8c0-0.3,0.1-0.7,0.2-1.1c0.1-0.4,0.2-0.8,0.3-1.2c0.1-0.4,0.2-0.8,0.3-1.1c0.1-0.3,0.2-0.7,0.4-1.2
			c0.2-0.5,0.3-1,0.5-1.5c0.2-0.5,0.3-0.9,0.4-1.2c0.1-0.4,0.2-0.5,0.1-0.6c0,0-0.2,0-0.4,0c-0.2,0-0.5,0-0.7,0.1
			c-0.3,0-0.5,0.1-0.8,0.2c-0.2,0.1-0.4,0.2-0.5,0.3c-0.3,0.4-0.5,0.9-0.8,1.6c-0.2,0.7-0.4,1.5-0.5,2.3c-0.1,0.8-0.2,1.6-0.3,2.4
			c-0.1,0.8-0.1,1.4,0,1.8c0,0.3,0.1,0.6,0.3,0.9c0.2,0.3,0.4,0.5,0.6,0.7c0.2,0.2,0.5,0.4,0.8,0.5c0.3,0.1,0.6,0.2,0.9,0.1
			c0.4,0,0.9-0.2,1.4-0.7c0.6-0.4,1.2-1,1.8-1.6c0.6-0.6,1.2-1.3,1.8-2c0,0,0,0,0,0l-0.8,3.2c-0.1,0.4-0.1,0.7-0.1,0.9
			c0.1,0.2,0.1,0.3,0.3,0.4c0.1,0.1,0.2,0.1,0.4,0.1c0.1,0,0.2,0,0.3-0.1l1.3-0.6c0-0.1,0.1-0.3,0.1-0.4c0-0.1,0-0.3,0.1-0.4
			c0-0.1,0.1-0.3,0.1-0.4v0.1c0.3-1.5,0.7-2.6,1.2-3.5c0.5-0.9,0.9-1.6,1.4-2.1c0.5-0.5,0.9-0.9,1.2-1c0.4-0.2,0.6-0.3,0.8-0.3
			c0.2,0,0.4,0.1,0.5,0.2c0.1,0.1,0.2,0.4,0.2,0.7c0,0.5-0.1,1-0.2,1.7c-0.1,0.6-0.3,1.3-0.5,1.9c-0.2,0.6-0.4,1.2-0.5,1.8
			c-0.2,0.5-0.3,0.9-0.4,1.2c-0.1,0.5-0.2,0.8-0.1,1s0.3,0.2,0.7,0.2c0.1,0,0.3,0,0.4-0.1c0.3-0.1,0.6-0.2,1-0.3
			c0.3-1.6,0.6-2.9,1.1-3.9s0.9-1.9,1.4-2.5c0.5-0.6,0.9-1,1.4-1.3c0.4-0.2,0.7-0.4,0.8-0.4c0.3,0,0.5,0.1,0.6,0.4
			c0.1,0.2,0.1,0.6,0,1.1c-0.1,0.4-0.2,0.8-0.3,1.3s-0.2,1-0.4,1.5c-0.1,0.5-0.2,1-0.3,1.5c-0.1,0.5-0.1,0.9-0.1,1.3
			c0,0.4,0.1,0.7,0.2,0.9c0.1,0.2,0.3,0.4,0.5,0.6c0.2,0.1,0.4,0.2,0.7,0.3c0.2,0.1,0.5,0.1,0.7,0.1c0.7,0,1.5-0.2,2.1-0.7
			c0.7-0.4,1.3-1,2-1.6c0.4-0.4,0.7-0.8,1-1.2c0.1,0.9,0.3,1.7,0.7,2.2c0.5,0.7,1.1,1,1.8,1c0.8,0,1.6-0.2,2.2-0.6
			c0.6-0.4,1.2-0.9,1.7-1.6c-0.1,0.2-0.1,0.5-0.2,0.8c-0.1,0.3-0.2,0.6-0.3,1c-0.3,0.3-0.7,0.6-1.1,0.9c-0.4,0.3-0.8,0.7-1.2,1
			c-0.8,0.7-1.5,1.3-2,1.8c-0.5,0.5-1,0.9-1.3,1.4s-0.5,0.9-0.7,1.3c-0.1,0.5-0.2,1.1-0.2,1.8c0,0.5,0.1,1.1,0.2,1.7
			c0.1,0.6,0.3,1.2,0.6,1.7c0.3,0.5,0.6,1,1,1.3c0.4,0.3,0.9,0.5,1.5,0.5c0.4,0,0.7-0.2,1.1-0.5c0.3-0.4,0.6-0.8,0.9-1.4
			c0.3-0.6,0.5-1.2,0.7-1.9c0.2-0.7,0.4-1.4,0.6-2.1c0.2-0.7,0.3-1.4,0.5-2c0.1-0.6,0.2-1.2,0.3-1.6c0.1-0.4,0.2-0.9,0.3-1.4
			c0.1-0.5,0.3-1.1,0.5-1.9c0.4-0.2,0.9-0.6,1.5-1c0.6-0.4,1.2-0.9,1.8-1.4c0.6-0.5,1.2-1.1,1.8-1.7c0.6-0.6,1.1-1.2,1.5-1.9
			c0.1-0.2,0.2-0.4,0.2-0.5C331.1,441.2,331.1,441.2,330.9,441.1z M321.7,451.4c-0.1,0.6-0.3,1.1-0.4,1.7c-0.1,0.5-0.2,1-0.3,1.4
			s-0.2,0.7-0.2,0.9c-0.2,0.9-0.5,1.6-0.7,2.1c-0.2,0.5-0.5,0.8-0.9,0.8c-0.1,0-0.3,0-0.4-0.1c-0.1-0.1-0.2-0.2-0.3-0.4
			s-0.1-0.5-0.2-0.9c0-0.4-0.1-0.8-0.1-1.4c0-0.6,0.1-1.1,0.3-1.5c0.2-0.4,0.4-0.9,0.7-1.2c0.3-0.4,0.6-0.7,1-1.1
			c0.4-0.3,0.7-0.7,1.1-1.1c0.2-0.2,0.3-0.3,0.5-0.5c0.2-0.1,0.3-0.3,0.4-0.4C322,450.2,321.8,450.8,321.7,451.4z M323.8,442.1
			c-0.1,0.2-0.1,0.5-0.2,0.8c-0.1,0.3-0.2,0.5-0.3,0.6c-0.1,0.2-0.2,0.4-0.4,0.6s-0.4,0.5-0.7,0.8c-0.3,0.3-0.6,0.5-0.9,0.7
			c-0.3,0.2-0.7,0.3-1,0.3c-0.7,0-1.1-0.2-1.3-0.7c-0.2-0.5-0.3-1-0.3-1.8c0-0.6,0.1-1.2,0.3-1.9c0.2-0.7,0.4-1.3,0.7-1.8
			c0.3-0.6,0.7-1,1.1-1.4c0.4-0.4,0.8-0.5,1.3-0.5c0.3,0,0.5,0.1,0.7,0.4c0.2,0.3,0.4,0.7,0.5,1.4c0,0.1,0,0.3,0,0.4
			c0,0.2,0,0.3,0.1,0.5c0,0.2,0.1,0.3,0.1,0.4c0.1,0.1,0.1,0.2,0.3,0.2c0.1,0,0.2,0.1,0.2,0.3C323.9,441.7,323.9,441.9,323.8,442.1z
			"/>
		<path class="st3" d="M392.2,394.9c-0.1-0.1-0.2,0-0.3,0c-0.1,0.1-0.3,0.2-0.4,0.4c-0.1,0.1-0.3,0.3-0.5,0.6
			c-0.2,0.3-0.5,0.6-0.8,1c-0.3,0.4-0.7,0.7-1,1.1c-0.4,0.4-0.8,0.7-1.2,1.1c-0.4,0.3-0.8,0.6-1.2,0.8c-0.4,0.2-0.8,0.3-1.2,0.3
			c-0.1,0-0.1,0-0.2,0c0,0,0,0,0,0c0,0,0,0,0,0c0,0-0.1,0-0.1,0c0.3-0.4,0.7-0.9,1-1.4c0.3-0.5,0.6-1,0.8-1.5c0.2-0.5,0.4-1,0.5-1.5
			c0.1-0.5,0.2-1,0.2-1.4c0-0.4,0-0.8,0-1.2c0-0.4-0.1-0.8-0.3-1.1c-0.1-0.3-0.3-0.6-0.6-0.8c-0.3-0.2-0.6-0.3-1-0.3
			c-0.3,0-0.6,0.1-0.9,0.2c-0.3,0.1-0.6,0.3-1,0.5s-0.6,0.5-0.9,0.7c-0.3,0.3-0.6,0.5-0.8,0.8c0-0.1,0-0.1,0-0.2c0-0.1,0-0.1,0-0.2
			c0.1-0.6,0.1-1,0-1.3c-0.1-0.3-0.4-0.4-0.9-0.5c-0.2,0-0.4,0-0.6,0.1c-0.2,0-0.4,0.1-0.6,0.2c-0.2,0.1-0.4,0.2-0.7,0.4
			c0.3,0.3,0.4,0.7,0.4,1.1c0,0.4-0.1,1-0.3,1.7c-0.1,0.6-0.3,1.3-0.5,2c-0.2,0.7-0.3,1.4-0.5,2c-0.2,0.7-0.4,1.4-0.5,2.1
			c-0.2,0.7-0.4,1.7-0.7,2.8c-0.2,0.9-0.5,2.1-0.9,3.5c-0.3,1.4-0.8,3-1.3,4.9c0.1,0.2,0.2,0.4,0.3,0.5c0.1,0.1,0.2,0.2,0.3,0.3
			c0.1,0.1,0.2,0.2,0.4,0.2c0.4,0.1,0.7,0.2,0.9,0.1c0.3-0.1,0.5-0.3,0.6-0.8c0.3-1.8,0.6-3.3,0.9-4.7c0.3-1.4,0.5-2.5,0.7-3.5
			c0.2-1.1,0.5-2.1,0.7-2.9c0-0.1,0-0.2,0-0.2c0-0.1,0-0.1,0-0.2c0.1,0.2,0.1,0.4,0.2,0.6c0.1,0.2,0.2,0.4,0.3,0.6
			c0.1,0.2,0.3,0.3,0.5,0.4c0.2,0.1,0.5,0.1,0.8,0.1c0.3,0,0.6-0.1,1-0.2c0.3-0.1,0.7-0.3,1-0.6c0.1,0.1,0.2,0.1,0.3,0.1
			c0.1,0,0.2,0.1,0.3,0.1c0.1,0,0.2,0.1,0.4,0.1c0.1,0,0.3,0,0.6,0c0.5,0,1-0.1,1.5-0.4c0.5-0.3,1-0.6,1.5-1
			c0.5-0.4,0.9-0.8,1.4-1.3c0.4-0.5,0.8-0.9,1.2-1.4c0.3-0.4,0.6-0.8,0.8-1.2c0.2-0.4,0.4-0.6,0.5-0.8c0.1-0.2,0.2-0.4,0.2-0.6
			C392.3,395.1,392.2,395,392.2,394.9z M384.1,398.3c-0.3,0.4-0.6,0.8-0.8,1.1c-0.4-0.2-0.8-0.4-1.1-0.7c-0.3-0.2-0.5-0.3-0.7-0.3
			c-0.2,0-0.4,0-0.5,0.1c-0.2,0.1-0.3,0.1-0.5,0.2c0.1-0.5,0.2-1,0.3-1.4c0.1-0.4,0.2-0.7,0.3-1c0.7-1,1.3-1.9,2-2.5
			c0.6-0.6,1.2-1,1.8-1c0.4,0,0.6,0.2,0.8,0.5c0.2,0.3,0.2,0.7,0.2,1.2c0,0.4-0.1,0.8-0.3,1.3c-0.2,0.4-0.4,0.9-0.6,1.3
			C384.7,397.5,384.4,397.9,384.1,398.3z"/>
		<path class="st3" d="M207.3,461c-0.2,0-0.4,0-0.6,0.1c-0.2,0-0.4,0.1-0.6,0.2c-0.2,0.1-0.4,0.2-0.7,0.4c0.3,0.3,0.4,0.6,0.4,1
			c0,0.4-0.1,0.9-0.2,1.5c-0.1,0.3-0.2,0.7-0.4,1.1c-0.2,0.4-0.4,0.9-0.6,1.3c-0.2,0.4-0.5,0.9-0.8,1.3c-0.3,0.4-0.6,0.8-0.9,1.2
			c-0.3,0.3-0.6,0.6-0.9,0.8c-0.3,0.2-0.5,0.3-0.8,0.3c-0.5,0-0.8-0.2-0.9-0.7c-0.1-0.4-0.1-1,0-1.8c0-0.2,0.1-0.5,0.2-0.9
			c0.1-0.4,0.3-0.9,0.5-1.4c0.2-0.5,0.3-1,0.5-1.4c0.2-0.5,0.3-0.9,0.3-1.2c0.1-0.6,0.2-1,0.1-1.3c-0.1-0.3-0.4-0.5-0.8-0.5
			c-0.2,0-0.4,0-0.6,0c-0.2,0-0.4,0.1-0.6,0.1c-0.2,0.1-0.5,0.2-0.7,0.3c0.2,0.3,0.3,0.7,0.2,1.2c-0.1,0.5-0.3,1.1-0.5,1.7
			c-0.1,0.1-0.1,0.4-0.2,0.7c-0.1,0.3-0.2,0.7-0.3,1.1c0,0.2-0.1,0.4-0.1,0.6c-0.3,0.3-0.6,0.7-0.9,1c-0.4,0.4-0.8,0.8-1.2,1.2
			s-0.8,0.7-1.2,0.9c-0.4,0.2-0.7,0.4-0.9,0.4c-0.2,0-0.4-0.1-0.6-0.3c-0.2-0.2-0.3-0.5-0.2-1c0-0.3,0.1-0.7,0.1-1.2
			c0.1-0.5,0.2-1,0.3-1.6c0.6-0.9,1.1-1.8,1.6-2.8c0.5-1,1-2,1.3-2.9c0.4-1,0.7-1.9,0.9-2.9c0.2-0.9,0.4-1.8,0.4-2.5
			c0-0.6,0-1.1,0-1.5c0-0.4-0.1-0.7-0.2-0.8c-0.1-0.2-0.2-0.3-0.4-0.3c-0.1,0-0.3-0.1-0.5-0.1c-0.1,0-0.3,0-0.5,0.1
			c-0.1,0-0.3,0.1-0.5,0.2c-0.2,0.1-0.3,0.2-0.5,0.3c-0.3,0.9-0.5,1.8-0.8,2.7c-0.2,0.8-0.4,1.6-0.6,2.3c-0.2,0.8-0.4,1.5-0.6,2.1
			c-0.1,0.4-0.2,0.9-0.3,1.4c-0.1,0.5-0.2,1-0.3,1.5c-0.1-0.2-0.1-0.5-0.3-0.8c-0.1-0.3-0.3-0.5-0.4-0.8c-0.2-0.2-0.4-0.4-0.6-0.6
			c-0.2-0.2-0.5-0.2-0.8-0.2c-0.7,0-1.4,0.2-2.1,0.6c-0.7,0.4-1.3,0.9-1.8,1.6c-0.2,0.2-0.4,0.5-0.5,0.8c0,0,0,0,0,0
			c-0.4,0.3-0.7,0.5-1.2,0.8c-0.4,0.3-0.8,0.5-1.3,0.7c-0.4,0.2-0.9,0.4-1.3,0.6c0-0.1,0-0.3,0.1-0.5c0-0.2,0-0.4,0-0.5
			c0-0.7-0.1-1.3-0.3-1.8c-0.2-0.5-0.5-0.9-0.8-1.2c-0.3-0.3-0.7-0.6-1-0.7c-0.3-0.2-0.6-0.2-0.9-0.3c-0.1,0-0.1,0-0.1-0.1
			c0,0-0.1,0-0.1,0c-0.3,0-0.6,0-1,0.1c-0.3,0.1-0.7,0.2-0.9,0.3c-0.3,0.2-0.5,0.3-0.8,0.6c-0.2,0.2-0.4,0.5-0.5,0.8
			c-0.1,0.1-0.1,0.2-0.2,0.3c-0.5,0.2-1.1,0.4-1.7,0.5c-0.8,0.2-1.5,0.3-2.2,0.3c-0.1-0.6-0.2-1.1-0.4-1.4c-0.2-0.4-0.5-0.6-0.8-0.6
			c-0.2,0-0.4,0-0.6,0.1c-0.2,0.1-0.4,0.2-0.6,0.4c-0.2,0.2-0.4,0.3-0.5,0.6c-0.1,0.2-0.2,0.5-0.2,0.7c0,0.4,0.1,0.7,0.3,0.9
			c0.2,0.2,0.5,0.4,0.8,0.5c-0.1,0.5-0.2,1.1-0.4,1.7c-0.2,0.6-0.5,1.3-0.8,1.8c-0.3,0.6-0.7,1-1.1,1.4c-0.4,0.4-0.8,0.6-1.2,0.6
			c-0.5,0-0.9-0.4-1-1.2c-0.2-0.8-0.2-1.8,0-3.1c0.3-0.5,0.6-1.1,0.9-1.8c0.3-0.7,0.7-1.5,1-2.3c0.3-0.8,0.7-1.7,1-2.7
			c0.3-1,0.6-2,0.9-3c0.3-1.1,0.5-2,0.5-2.7c0-0.7,0-1.1-0.1-1.2c-0.1,0-0.2-0.1-0.4-0.1c-0.2,0-0.4,0-0.6,0c-0.2,0-0.4,0.1-0.6,0.2
			c-0.2,0.1-0.4,0.2-0.6,0.4c-0.1,0.1-0.3,0.5-0.5,1c-0.2,0.5-0.5,1.1-0.8,1.8c-0.3,0.7-0.6,1.6-0.9,2.5c-0.3,0.9-0.6,1.9-0.8,2.8
			c-0.2,1-0.5,1.9-0.6,2.9c-0.2,1-0.3,1.9-0.3,2.8c0,1.3,0.1,2.3,0.3,3c0.2,0.7,0.5,1.2,0.8,1.5s0.6,0.5,0.9,0.6
			c0.3,0.1,0.6,0.1,0.8,0.1c0.6,0,1.3-0.2,1.9-0.7c0.6-0.5,1.2-1,1.8-1.7c0.5-0.7,1-1.5,1.4-2.3s0.6-1.6,0.7-2.3
			c0.3,0,0.7,0,1.1-0.1c0.4-0.1,0.8-0.2,1.2-0.3c0.3-0.1,0.5-0.2,0.8-0.3c-0.1,0.2-0.2,0.5-0.3,0.7c-0.1,0.4-0.3,0.8-0.3,1.2
			c-0.1,0.4-0.1,0.8-0.1,1.1c0,0.5,0,1,0.1,1.5c0,0.5,0.2,1.1,0.4,1.5c0.2,0.5,0.5,0.8,0.9,1.2s1,0.5,1.7,0.5c0.6,0,1.2-0.1,1.7-0.4
			c0.5-0.2,1-0.6,1.4-1s0.8-0.9,1.1-1.5c0.3-0.6,0.5-1.2,0.7-1.9c0.5-0.2,1.1-0.4,1.7-0.8c0.5-0.3,1-0.6,1.4-1
			c-0.3,0.8-0.5,1.7-0.5,2.7c0,0.7,0,1.2,0.2,1.7c0.1,0.5,0.3,0.8,0.5,1.1c0.2,0.3,0.5,0.5,0.8,0.6c0.3,0.1,0.5,0.2,0.8,0.2
			c0.7,0,1.4-0.2,2.2-0.7s1.5-1.1,2.2-2c0,0.3-0.1,0.5-0.1,0.6c0,0.3,0,0.6,0.1,0.8c0.1,0.3,0.2,0.5,0.4,0.8
			c0.2,0.2,0.4,0.4,0.6,0.6c0.2,0.1,0.5,0.2,0.7,0.2c0.3,0,0.7-0.1,1.1-0.3c0.4-0.2,0.8-0.5,1.3-0.9c0.5-0.4,0.9-0.8,1.4-1.2
			c0.3-0.3,0.5-0.6,0.8-0.9c0,0,0,0,0,0c-0.1,0.9,0.1,1.7,0.5,2.3c0.4,0.6,1.1,0.9,2,1.1c0.4,0.1,0.8,0,1.1-0.1s0.7-0.3,1-0.6
			c0.3-0.2,0.6-0.5,0.9-0.9c0.3-0.3,0.5-0.7,0.7-1.1c-0.1,0.4-0.2,0.7-0.3,1.1c-0.1,0.4-0.2,0.7-0.3,1.1c-0.2,0.8-0.5,1.8-0.7,2.8
			c-0.2,0.9-0.5,2-0.8,3.2s-0.7,2.6-1.1,4.1c0.1,0.2,0.2,0.3,0.3,0.5c0.1,0.1,0.2,0.2,0.3,0.3c0.1,0.1,0.2,0.2,0.3,0.2
			c0.3,0.1,0.6,0.2,0.9,0.1c0.3-0.1,0.5-0.3,0.6-0.8c0.3-1.8,0.7-3.4,0.9-4.8c0.3-1.4,0.5-2.6,0.8-3.6c0.2-1.1,0.5-2.1,0.7-3
			c0.2-1.1,0.4-2,0.7-2.9c0.2-0.8,0.5-1.6,0.7-2.3c0.2-0.7,0.4-1.2,0.6-1.7c0.2-0.5,0.3-0.8,0.3-1.1c0.1-0.6,0.1-1,0-1.3
			C208.1,461.2,207.8,461,207.3,461z M179.9,468.8c-0.2,0.3-0.4,0.6-0.6,0.8c-0.2,0.2-0.5,0.4-0.7,0.6c-0.3,0.2-0.6,0.2-0.9,0.2
			c-0.3,0-0.5-0.1-0.7-0.2c-0.2-0.2-0.3-0.3-0.4-0.6c-0.1-0.2-0.2-0.5-0.2-0.8c0-0.3-0.1-0.6-0.1-0.9s0-0.7,0.1-1
			c0.1-0.4,0.2-0.7,0.3-1.1c0.3,0.6,0.6,1.1,1.1,1.5s1.1,0.6,1.7,0.6c0.1,0,0.3,0,0.4,0c0.1,0,0.2,0,0.4,0
			C180.2,468.1,180,468.5,179.9,468.8z M181,465.1c0,0.1,0,0.3-0.1,0.5c0,0.2-0.1,0.4-0.1,0.6c-0.1,0-0.2,0-0.3,0
			c-0.1,0-0.2,0-0.3,0c-0.5,0-1-0.1-1.3-0.3c-0.3-0.2-0.5-0.4-0.7-0.6c-0.1-0.2-0.2-0.5-0.3-0.8c0-0.3-0.1-0.6-0.1-0.9
			c0-0.2,0-0.3,0.1-0.5c0.3-0.3,0.6-0.6,0.9-0.8c0.3-0.2,0.6-0.3,1-0.3c0.2,0,0.4,0.1,0.5,0.3c0.2,0.2,0.3,0.4,0.4,0.7
			c0.1,0.3,0.2,0.6,0.2,1C181,464.4,181,464.8,181,465.1z M192.4,465.7c-0.1,0.3-0.1,0.7-0.2,1c-0.2,0.2-0.4,0.6-0.8,0.9
			c-0.3,0.4-0.6,0.7-1,1.1c-0.4,0.4-0.7,0.7-1.1,0.9c-0.4,0.2-0.7,0.4-1,0.4c-0.4,0-0.8-0.2-1-0.6c-0.2-0.4-0.4-1-0.3-1.8
			c0-0.5,0.2-1.1,0.4-1.8c0.2-0.7,0.6-1.3,0.9-1.9c0.4-0.6,0.8-1.1,1.2-1.5c0.4-0.4,0.8-0.6,1.2-0.6c0.3,0,0.5,0.1,0.7,0.3
			c0.2,0.2,0.3,0.5,0.4,0.8c0.1,0.3,0.1,0.6,0.1,0.8c0,0.3,0,0.5,0,0.6c0,0.2,0,0.4,0.1,0.5c0.1,0.1,0.2,0.1,0.4,0
			c0,0,0.1,0,0.1-0.1c0,0,0.1,0,0.1-0.1C192.6,465,192.5,465.3,192.4,465.7z"/>
	</g>
	<g>
		<g>
			<path class="st6" d="M255,31.3c-93.3,0-168.9-4-168.9-9l-1.5,15.1c-0.8,8,5.4,14.9,13.4,15c0,0,68.7,9.8,144.9,11
				s167.7-6.2,167.7-6.2c7.4,0.1,13.5-5.9,13.5-13.3V22.3C424,27.3,348.3,31.3,255,31.3z"/>
			<g>
				<path d="M256.5,27.4c-32.1,0-64.1-0.4-96.2-1.6c-20.3-0.7-40.9-1.4-61.1-4.1c-2.8-0.4-5.5-0.8-8.2-1.5c-1-0.2-0.5-0.2-1.7-0.6
					c-1.1-0.4-0.2-0.3-0.1,1c-0.3-4.8-5.8-0.3-6,2.5c-0.4,4.1-0.8,8.3-1.3,12.4c-0.6,6-0.4,11.8,4.2,16.4c4.9,4.9,13,4.8,19.6,5.7
					c31,3.9,62.1,6.6,93.3,8.3c40.1,2.1,80.2,1.9,120.4,0.4c27.5-1,54.9-2.5,82.4-4.5c2.3-0.2,4.5-0.4,6.8-0.5
					c5.4-0.3,9.9-1.9,13.7-6.1c4-4.5,5-9.9,5-15.6c0-5.1,0-10.2,0-15.3c0-1.2,0-2.4,0-3.6c0-1.9-1.6-2.6-3.1-1.8
					c-1.9,0.9-2.9,3.2-3,5.2c0.1-1.7,1.3-3.3,1.8-4c1-1.3,0.5,0,0-0.1c-0.1,0,0.7-0.2-0.1,0c-0.5,0.1-0.9,0.3-1.4,0.4
					c-2.2,0.6-4.5,0.9-6.7,1.3c-7.8,1.1-15.6,1.7-23.5,2.3c-25.9,1.8-51.8,2.5-77.8,3C294.4,27.2,275.4,27.4,256.5,27.4
					c-3.3,0-6.6,7.8-2.9,7.8c33.5,0,67-0.4,100.5-1.8c20.2-0.8,40.8-1.2,60.8-4.5c5.1-0.8,11.8-1.9,12.2-8.3c-2,1.1-4.1,2.3-6.1,3.4
					c0,7.2,0.3,14.5,0,21.7c-0.3,8-9.1,7.7-15.1,8.2c-25.1,1.9-50.3,3.3-75.5,4.3c-37.7,1.5-75.4,2.2-113.1,0.7
					c-33.2-1.3-66.4-4-99.5-7.9c-6.1-0.7-12.1-1.6-18.2-2.3c-5.9-0.6-11.4-4-12-10.5c-0.3-3.5,0.7-8.3,1-12.2
					c0.1-1.4,0.3-2.9,0.4-4.3c-2,0.8-4,1.6-6,2.5c0.2,3.9,6,4.3,8.9,4.8c7.5,1.3,15.2,1.9,22.8,2.5c26.6,2,53.4,2.8,80.1,3.3
					c19.6,0.4,39.2,0.6,58.8,0.6C256.9,35.2,260.1,27.4,256.5,27.4z"/>
			</g>
		</g>
		<g>
			<ellipse class="st6" cx="255" cy="18.3" rx="168.9" ry="12.1"/>
			<g>
				<path d="M253.6,34.2c33.5,0,67-0.6,100.5-2.4c12.1-0.6,24.1-1.4,36.1-2.6c8.1-0.8,16.3-1.6,24.3-3.3c4.2-0.9,9.3-1.9,11.6-6
					c2.9-5.2-1.5-7.3-5.8-8.5C413.7,9.6,406.8,8.8,400,8c-11.3-1.3-22.7-2.1-34.1-2.8c-32-1.9-64-2.7-96.1-2.8
					c-34.2-0.2-68.4,0.3-102.6,1.8c-22.2,1-44.8,1.9-66.8,5.5c-4.6,0.8-10.6,1.4-14.4,4.4c-3.6,2.9-4.2,7.9,0.3,9.9
					c5.4,2.3,11.7,3,17.4,3.7c10.3,1.4,20.7,2.3,31.1,3c30.7,2.2,61.4,3,92.2,3.3C235.9,34.2,244.7,34.2,253.6,34.2
					c3.3,0,6.6-7.8,2.9-7.8c-32.1,0-64.2-0.6-96.2-2.1c-20.2-1-40.7-1.9-60.7-5.4c-2.6-0.5-5.2-1-7.7-1.8c0.4,0.1-0.7-0.2-0.9-0.3
					c-0.3-0.1-0.6-0.2-0.9-0.4c-0.3-0.1-0.6-0.3-0.9-0.5c-0.1-0.1-0.2-0.2-0.3-0.2c0,0,0,0.2,0.1,0.1c0,0-0.1-0.2-0.1-0.2
					c0-0.4,0.1,0.7,0.2,0.4c-0.1,1-0.1,2.1-0.6,3c-0.4,0.7-0.8,1.4-1.4,1.5c0.3-0.1,0.6-0.4,0.8-0.5c0.2-0.1,0.3-0.2,0.5-0.2
					c0.6-0.3-0.7,0.3,0,0c0.4-0.1,0.8-0.3,1.2-0.4c1.2-0.4,2.3-0.7,3.5-0.9c7.1-1.6,14.4-2.4,21.7-3.2c11.1-1.2,22.2-1.9,33.3-2.6
					c63.5-3.6,127.5-3.6,191-1c22.1,0.9,44.4,1.9,66.4,5.1c4.8,0.7,10.7,1.3,14.6,3.3c0.2,0.1,0.5,0.3,0.7,0.4
					c0.7,0.4,0.1,0.1,0.2,0.1c0.3-0.2-0.1,1,0-0.1c0.1-1,0.1-2.1,0.6-3c0.4-0.7,0.8-1.4,1.4-1.5c-0.3,0-0.6,0.4-0.8,0.5
					c-0.2,0.1-1.2,0.5-0.3,0.1c-0.5,0.2-1,0.4-1.5,0.5c-5.9,1.8-12.2,2.6-18.4,3.3c-10.1,1.2-20.3,2.1-30.5,2.7
					c-29.8,2-59.6,2.8-89.5,3.1c-8.5,0.1-17,0.1-25.5,0.1C253.2,26.5,249.9,34.2,253.6,34.2z"/>
			</g>
		</g>
	</g>
	<g>
		<path d="M400.1,459.1c6.6-0.1,12.9-1.8,17.1-7.2c4.1-5.5,4.9-12.5,4.8-19.1c0-1.9-1.5-2.6-3.1-1.8c-1.8,0.9-3,3.3-3,5.2
			c0,3.6,0.1,8.8-2,11.5c-2.3,3-7.2,3.5-10.8,3.6C399.7,451.4,396.5,459.2,400.1,459.1L400.1,459.1z"/>
	</g>
	<g>
		<path d="M396.2,445c5.3,1,9.6-1.4,11.3-6.6c1.4-4.2,0.5-8.7-0.1-13c-0.6-5-6.5,0.1-6.1,3.4c0.3,2.7,1,5.4,0.8,8.2
			c0,0.1-0.1,1.6-0.2,1.5c0,0,0.6-1.9,0.7-1.1c0,0.3-3.1-0.1-3.6-0.2C395.9,436.6,392.4,444.2,396.2,445L396.2,445z"/>
	</g>
	<g>
		<path d="M115.5,92.3c-20.2-0.9-23.3,22.9-24.4,38.1c-0.1,1.9,1.6,2.5,3.1,1.8c1.9-0.9,2.9-3.2,3-5.2c0.5-6.9,1-14.7,4.1-21
			c2.1-4.4,6.2-6.1,11.3-5.9C115.9,100.2,119.2,92.5,115.5,92.3L115.5,92.3z"/>
	</g>
</g>
<g>
	<path class="st7" d="M212.1,220.6c-0.2-0.5,0.3-1.9,1.6-4.1c1.2-2.2,2.6-4.9,4.1-8.1c1.5-3.2,3-6.9,4.5-11
		c1.5-4.1,2.5-8.3,3.1-12.7c0.6-4.4,0.6-8.7-0.1-13.1c-0.7-4.4-2.5-8.6-5.5-12.6c-1.7-2.1-4.3-3.3-7.7-3.5
		c-3.4-0.3-7.2,0.3-11.5,1.6c-4.3,1.3-8.7,3.3-13.4,6c-4.6,2.7-8.9,5.9-12.7,9.4c-3.8,3.6-7.1,7.6-9.8,11.9
		c-2.7,4.4-4.2,8.8-4.6,13.4c-0.4,3.7-0.2,7.1,0.4,10.2c0.6,3.1,1.4,6,2.5,8.6c1,2.6,2.2,5.1,3.4,7.3c1.2,2.3,2.4,4.3,3.4,6
		c1.4,2.4,3.6,5.2,6.5,8.1c3,3,6.2,6.3,9.7,10.1c3.5,3.8,7,8,10.5,12.7c3.5,4.7,6.5,10,9.2,16c2.6,5.9,4.5,12.6,5.5,19.9
		c1,7.3,1,15.5-0.3,24.4c-1.9,12.9-5,23.7-9.2,32.3c-4.2,8.6-8.8,15.6-13.8,20.8c-5,5.2-10,9-15.1,11.4c-5.1,2.4-9.3,3.9-12.6,4.6
		c-2.6,0.5-5.7,1-9.3,1.4c-3.6,0.4-7.3,0.3-11.3-0.3c-3.9-0.6-7.9-1.8-11.9-3.7c-4-1.8-7.6-4.7-10.7-8.5c-3.7-4.4-6.5-9.1-8.6-14.1
		c-1.9-4.4-3.4-9.4-4.3-15.1c-1-5.7-0.5-11.6,1.4-17.7c1.4-1.6,2.9-3,4.5-4.2c1.6-1.2,3.1-2.3,4.7-3.1c1.7-1,3.6-2,5.5-2.9
		c2.3-0.7,4.5-1.3,6.8-1.8c1.9-0.3,4-0.6,6.2-0.7c2.2-0.1,4.2,0.2,6.2,0.9c-2.6,3-4.5,5.8-5.5,8.4c-0.7,1.4-1.2,2.6-1.6,3.7
		c-0.7,3.3-0.9,7.3-0.7,11.9c0.3,4.6,1.2,9.1,2.9,13.4c1.7,4.3,4.1,7.9,7.2,11c3.1,3.1,7.3,4.7,12.6,4.8
		c12.7,0.3,23.6-9.6,32.5-29.9c3-6.3,4.5-12.7,4.6-19.1c0.1-6.5-0.7-12.7-2.4-18.6c-1.7-5.9-3.8-11.5-6.5-16.6
		c-2.7-5.1-5.5-9.6-8.3-13.2c-2.8-3.7-6.2-7.6-10.1-11.9c-3.9-4.3-7.8-8.9-11.7-14c-3.8-5.1-7.3-10.6-10.3-16.5
		c-3.1-5.9-5.1-12.4-6.2-19.4c-1.4-9.8-0.5-18.7,2.8-26.8c3.2-8.1,7.6-15.2,13.1-21.3c5.5-6.1,11.5-11.1,18.1-14.9
		c6.5-3.8,12.4-6.3,17.4-7.3c28.1-5.6,46.5-0.9,55.3,14.1c3.7,5.8,5.7,11.9,6,18.3c0.3,6.5,0,12.4-1.2,17.9
		c-1.1,5.5-2.5,10.1-4.2,13.9c-1.7,3.8-2.8,5.8-3.3,6.2c-1,1-2.7,2.2-5,3.4c-2.3,1.2-5.9,2.4-11,3.4c-1.4,0.4-2.8,0.5-4.2,0.5
		c-1.2,0-2.5-0.1-3.9-0.3C214.3,221.5,213.1,221.2,212.1,220.6z"/>
	<path class="st7" d="M241.7,374.7c-1.6-1-2.4-2.2-2.5-3.4c-0.1-1.2,0.2-2.4,0.9-3.7c0.7-1.4,1.7-2.8,3.1-4.2c1.4-1.2,3.1-4.3,5-9.3
		c1.9-5,4-11,6.2-18.1c2.2-7.1,4.4-14.8,6.5-23.2c2.2-8.4,4.2-16.6,6.2-24.6c1.9-8,3.6-15.5,5-22.3c1.4-6.8,2.4-12.2,3.1-16.2
		c0.9-4.9,1.8-10.2,2.9-16c0.9-5.1,1.8-11,2.9-17.7c1-6.7,2-14.2,2.9-22.4l21-9.4c3-1.4,5.1-1.1,6.3,0.9c1.2,2,1.2,6.2,0,12.4
		c-0.5,3.1-1.5,8.3-2.9,15.3c-1.4,7.1-3,14.8-4.8,23.3c-1.8,8.5-3.8,17.1-5.8,25.9c-2,8.8-4,16.6-5.9,23.4c-1.7,6.5-3.8,13.9-6,22.3
		c-4,14.3-9.6,33.9-16.8,58.7c2.4,4.2,7,6.3,13.6,6.3c7.3,0,15.8-2.8,25.5-8.4c9.7-5.6,19.1-14,28.2-25.1c9.1-11.2,17.1-25.2,24-42
		c6.9-16.9,11.2-36.5,13-59.1c0.9-12.2,0.3-23-1.8-32.2c-2.1-9.3-5.3-17-9.6-23.3c-4.3-6.3-9.5-11-15.7-14.1
		c-6.2-3.1-13.1-4.7-20.6-4.7c-17.6,0-35.9,7.3-54.7,22l-1.3-21.7c4.5-5.1,9.7-8.9,15.6-11.7c5.8-2.7,11.3-4.8,16.4-6.2
		c5.9-1.6,12-2.4,18.1-2.6c11.2,0,22,2.1,32.3,6.4c10.4,4.3,19.4,10.8,27,19.5c7.6,8.7,13.4,19.7,17.4,32.9
		c4,13.2,5.4,28.6,4.2,46.2c-0.7,10.1-2.8,20.7-6.2,31.6c-3.4,10.9-7.9,21.6-13.4,32.1s-12,20.4-19.5,29.9
		c-7.5,9.4-15.7,17.7-24.6,24.8c-8.9,7.1-18.4,12.7-28.6,16.8c-10.1,4.1-20.6,6.2-31.4,6.2c-3.3-0.2-6.9-0.8-10.7-1.8
		c-3.3-0.9-7.1-2.4-11.3-4.5C250.6,381.5,246.2,378.5,241.7,374.7z"/>
</g>
</svg>
