<svg id="Layer_1" data-name="Layer 1" xmlns="http://www.w3.org/2000/svg" viewBox="0 0 512 512"><defs><style>.cls-1{fill:#d89e82;}.cls-2{fill:#fee7b5;}.cls-3{fill:#cb917a;}</style></defs><path class="cls-1" d="M6.09,176.31v-23c1.53-.93,1.35-2.63,1.6-4,5.06-27.89,19.91-49.73,41.74-67.11,29.29-23.32,63.2-33.88,100.18-34.11q106.37-.65,212.75,0c33,.15,63.87,8.79,91.36,27.56,26.78,18.28,45.17,42.45,50.92,75.1.22,1.22-.16,2.75,1.27,3.58v22c-1.56,6.23-3,12.5-4.71,18.68-4.32,15.36-13.14,28.17-23.17,40.27l-207.89.05c-1.06-7.32-.1-13.83,6.63-18.46,1.71-1.19,2.84-3.24,4.19-4.94,21.74-27.25,22.28-63.61.93-91-18.73-24-44.12-37.19-73.58-42.5-25.89-4.66-52.1-4.32-78.11-1.05-29.63,3.73-55.64,15.44-76,38.06-27.78,30.85-26.86,73.64,2.43,103,3.5,3.52,4.89,6.81,4.89,12.07,0,55.8-1.14,111.6.48,167.39.59,20.47,18.42,38.14,38.9,38.25,43.31.24,86.63.07,129.94.08a31.67,31.67,0,0,0,11.23-2.09c17.3-6.51,27.89-21.77,27.92-40.48q.12-69.21.15-138.42l207.88,0q0,77.19,0,154.36a40.42,40.42,0,0,1-.6,7.45c-5.56,29.27-27.09,47.07-56.94,47.08q-119.89,0-239.8,0-45.21,0-90.42,0c-10.56,0-20.55-2.27-29.49-7.94-18-11.45-26.84-28.05-26.84-49.39q0-83.17.08-166.35a14.06,14.06,0,0,0-3.52-9.92A98.84,98.84,0,0,1,8.93,188.31C8,184.31,8.08,180.05,6.09,176.31Z"/><path class="cls-2" d="M270.13,255.25q-.06,69.21-.15,138.42c0,18.71-10.62,34-27.92,40.48a31.67,31.67,0,0,1-11.23,2.09c-43.31,0-86.63.16-129.94-.08-20.48-.11-38.31-17.78-38.9-38.25-1.62-55.79-.46-111.59-.48-167.39,0-5.26-1.39-8.55-4.89-12.07-29.29-29.37-30.21-72.16-2.43-103,20.37-22.62,46.38-34.33,76-38.06,26-3.27,52.22-3.61,78.11,1.05,29.46,5.31,54.85,18.49,73.58,42.5,21.35,27.37,20.81,63.73-.93,91-1.35,1.7-2.48,3.75-4.19,4.94-6.73,4.63-7.69,11.14-6.63,18.46Q270.14,245.29,270.13,255.25Z"/><path class="cls-3" d="M270.13,255.25q0-10,0-19.94L478,235.26q0,10,0,20Z"/></svg>